<svg width="48" height="49" viewBox="0 0 48 49" fill="none" xmlns="http://www.w3.org/2000/svg">
<path d="M1.77208 0.315964C1.50652 0.414528 1.13277 0.680649 0.83771 0.976341C-0.0769883 1.89299 0.0016954 0.0301285 0.0016954 20.5018C0.0016954 40.9834 -0.0671528 39.2191 0.818039 40.1062C1.71307 41.0031 0.808203 40.9341 13.8107 41.0228L25.2198 41.1017L25.8395 43.5066C26.1739 44.8274 26.5574 46.1087 26.6755 46.3551C26.9902 46.9761 27.6197 47.6463 28.2393 48.0209C29.2425 48.6221 29.4589 48.6418 34.5242 48.6418C39.4026 48.6418 39.7075 48.6122 40.6418 48.1391C41.1729 47.8632 41.9598 47.1239 42.2647 46.5917C42.786 45.7046 42.8843 45.1428 42.8843 43.0237V41.0721L44.2416 41.013C46.012 40.9243 46.5234 40.7666 47.1824 40.1062C48.0676 39.2191 47.9987 40.9735 47.9987 20.5511C47.9987 0.128693 48.0676 1.88313 47.1824 0.986198C46.2579 0.0596962 48.6085 0.148403 23.9609 0.15826C4.41782 0.15826 2.1655 0.177975 1.77208 0.315964ZM46.0907 1.58744C46.2382 1.69586 46.4546 1.9127 46.5628 2.06054C46.7595 2.31681 46.7693 2.47451 46.7988 5.57927L46.8283 8.82202H24.0002H1.18195V5.72712C1.18195 2.51394 1.21146 2.26753 1.60488 1.83385C2.08681 1.31146 0.759026 1.34103 24.1182 1.36074L45.8251 1.38045L46.0907 1.58744ZM46.8185 24.2374C46.8185 34.0642 46.789 38.5587 46.7103 38.7559C46.5628 39.1403 46.1497 39.5542 45.7956 39.6626C45.6284 39.7119 44.9006 39.7908 44.1924 39.8204L42.8843 39.8893V38.5784C42.8843 37.031 42.7663 36.6663 42.0975 36.1045C41.5368 35.6215 40.9369 35.4835 40.1894 35.6807L39.6484 35.8285L39.1763 35.3554C38.5862 34.764 37.9764 34.557 37.2879 34.7147C37.042 34.764 36.7667 34.8429 36.688 34.8823C36.5896 34.9217 36.4913 34.8429 36.3732 34.6556C36.2847 34.4979 36.029 34.2416 35.7929 34.0839C35.4487 33.8572 35.2717 33.808 34.7799 33.808C34.4455 33.808 34.0816 33.8474 33.9537 33.8868L33.7373 33.9657V29.7077C33.7373 25.5877 33.7275 25.43 33.5308 25.0161C33.098 24.1093 31.9965 23.577 31.0227 23.7939C30.3146 23.9516 29.7835 24.3655 29.4687 24.9963L29.213 25.5187V31.6494V37.7801L28.6131 37.1591C27.7377 36.2425 26.7542 35.7694 25.328 35.592C24.7772 35.523 24.2953 35.7201 24.0297 36.1144C23.7445 36.5283 23.7445 36.8634 24.0101 37.4745C24.2363 38.0068 24.8854 39.7514 24.8854 39.8401C24.8854 39.9485 2.46056 39.7711 2.17533 39.6626C1.82126 39.5247 1.47701 39.1895 1.31965 38.815C1.20162 38.5489 1.18195 36.0946 1.18195 24.2473V10.0048H24.0002H46.8185V24.2374ZM31.9079 25.0259C32.5866 25.3118 32.5571 25.1048 32.5571 30.4174C32.5571 36.5875 32.6358 39.3472 32.8226 39.5345C33.039 39.7514 33.5013 39.7021 33.6783 39.4557C33.8062 39.2782 33.8357 38.8939 33.8357 37.3267C33.8357 35.4343 33.8357 35.4244 34.0816 35.1879C34.3373 34.9217 34.7897 34.8626 35.1241 35.0499C35.5175 35.2568 35.5864 35.6412 35.5274 37.4647C35.488 38.9628 35.4979 39.1994 35.6454 39.4261C35.7831 39.6429 35.8815 39.6824 36.1765 39.6528C36.7076 39.6134 36.7863 39.3867 36.7863 37.7308V36.341L37.0912 36.0848C37.4945 35.7398 37.8781 35.7497 38.2813 36.1144L38.6059 36.4002L38.6551 38.2532C38.7042 40.0963 38.7042 40.116 38.9403 40.2245C39.2354 40.3723 39.5501 40.2639 39.7075 39.9583C39.7861 39.8105 39.8353 39.2782 39.8353 38.539C39.8353 37.2084 39.914 37.0014 40.4648 36.8142C40.868 36.686 41.2024 36.7944 41.4975 37.169C41.7139 37.445 41.7139 37.4647 41.6844 41.3382L41.6549 45.2414L41.3893 45.7342C41.0549 46.3748 40.3959 46.9859 39.7763 47.2225C39.3239 47.3999 38.9796 47.4098 34.475 47.4098C29.7638 47.4098 29.6458 47.4098 29.2032 47.2028C28.5934 46.9169 27.9934 46.3551 27.7377 45.8426C27.6295 45.606 27.1869 44.0389 26.7542 42.3534C26.0558 39.6232 25.5149 37.8589 25.1215 37.1C25.0526 36.9521 25.0133 36.8142 25.0428 36.7944C25.1411 36.6959 26.0952 36.9127 26.6361 37.1591C27.3541 37.4844 27.9049 38.0265 28.6327 39.1008L29.213 39.9583V41.151C29.213 42.2056 29.2327 42.3534 29.4097 42.5309C29.6556 42.7773 29.813 42.7773 30.1376 42.521L30.3933 42.3239V34.0445C30.3933 25.1146 30.3834 25.3709 30.9047 25.1146C31.4162 24.8584 31.4948 24.8584 31.9079 25.0259Z" fill="#00B25A"/>
<path d="M4.52669 2.7994C4.00541 2.90782 3.60216 3.15423 3.21857 3.60762C2.62845 4.29757 2.52026 5.22407 2.95302 6.06186C3.76936 7.64874 6.09053 7.65859 6.90687 6.07172C7.78223 4.39613 6.35609 2.43471 4.52669 2.7994ZM5.58892 4.09058C5.68727 4.09058 6.00201 4.78053 6.00201 5.00723C6.00201 5.95344 4.92011 6.41669 4.21195 5.77602C3.38578 5.0368 4.18245 3.70618 5.26435 4.01173C5.42172 4.05116 5.56925 4.09058 5.58892 4.09058Z" fill="#00B25A"/>
<path d="M10.4272 2.82897C8.76499 3.13452 8.08634 5.31278 9.2666 6.5744C10.0731 7.4319 11.5779 7.48118 12.4238 6.67296C13.2991 5.83517 13.3877 4.50456 12.6205 3.60763C12.0402 2.92754 11.3025 2.66141 10.4272 2.82897ZM11.6566 4.29757C11.9025 4.53413 11.9517 4.66226 11.9517 5.0368C11.9517 5.4212 11.9025 5.52962 11.6271 5.77603C10.919 6.4167 9.83705 5.95345 9.83705 5.00723C9.83705 4.58341 10.1715 4.1103 10.5452 4.01174C10.9976 3.8836 11.3124 3.96246 11.6566 4.29757Z" fill="#00B25A"/>
<path d="M16.4566 2.81977C14.2633 3.23373 13.9584 6.24979 16.0337 7.12701C16.5746 7.3537 17.5877 7.25514 18.0893 6.92002C18.7188 6.4962 19.0236 5.96395 19.063 5.16559C19.0925 4.62348 19.063 4.40664 18.886 4.05181C18.4434 3.12531 17.4598 2.63249 16.4566 2.81977ZM17.686 4.33765C18.0204 4.7319 17.9909 5.40214 17.6172 5.77668C17.3811 6.00338 17.2434 6.06252 16.8894 6.06252C16.1419 6.06252 15.6501 5.45142 15.8468 4.74176C16.0828 3.91382 17.1156 3.68713 17.686 4.33765Z" fill="#00B25A"/>
<path d="M25.4755 4.357C25.0821 4.49499 24.9542 5.03709 25.2591 5.30321C25.4263 5.46092 26.2623 5.47077 35.2913 5.47077H45.1464L45.3038 5.22436C45.5103 4.90896 45.4218 4.55413 45.0973 4.40628C44.9104 4.31757 42.3827 4.28801 35.2323 4.29786C29.9506 4.29786 25.5542 4.32743 25.4755 4.357Z" fill="#00B25A"/>
<path d="M11.5485 16.0855C10.7518 17.0515 10.083 17.8597 10.0732 17.8794C10.0535 17.8991 9.7978 17.702 9.4929 17.4556C9.188 17.2092 8.87327 17.0022 8.80442 17.0022C8.72574 17.0022 8.5487 17.1007 8.40117 17.2289C7.99791 17.5738 8.12577 17.8597 9.01097 18.5693C9.73879 19.1607 10.0437 19.2691 10.4666 19.1114C10.742 19.003 13.8697 15.1689 13.8697 14.9323C13.8697 14.5381 13.6926 14.3409 13.3386 14.3409C13.0238 14.3409 12.9058 14.4592 11.5485 16.0855Z" fill="#00B25A"/>
<path d="M6.28678 14.8841C5.82451 15.1403 5.79501 15.3572 5.82451 18.6196L5.85402 21.6554L6.12941 21.8919L6.40481 22.1285H9.55215H12.6995L12.9356 21.8821C13.1716 21.6554 13.1814 21.5962 13.1814 20.3741C13.1814 19.2701 13.1618 19.0829 13.0044 18.9449C12.7585 18.7182 12.4339 18.7379 12.1979 18.9745C12.0307 19.142 12.0012 19.2997 12.0012 20.0587V20.9457H9.49314H6.9851L7.00477 18.4521L7.03428 15.9683L8.41124 15.9387C9.67018 15.919 9.79804 15.8993 9.96524 15.712C10.1915 15.4262 10.1816 15.2684 9.88656 14.9826C9.65051 14.7461 9.621 14.7362 8.09651 14.7362C6.94576 14.7461 6.47365 14.7756 6.28678 14.8841Z" fill="#00B25A"/>
<path d="M19.1806 15.1991C18.6986 15.3765 18.5413 15.8595 18.8658 16.1453C19.033 16.303 20.0067 16.3129 30.8159 16.3129C41.3792 16.3129 42.589 16.2932 42.7267 16.1552C42.8939 15.9975 42.9332 15.6525 42.8053 15.4554C42.766 15.3962 42.6086 15.2878 42.4611 15.2385C42.166 15.1301 19.4756 15.0907 19.1806 15.1991Z" fill="#00B25A"/>
<path d="M18.886 20.255C18.6402 20.5014 18.6303 20.8661 18.8664 21.073C19.0336 21.2307 20.0073 21.2406 30.8066 21.2406C42.0682 21.2406 42.5698 21.2307 42.7174 21.0632C42.9436 20.8168 42.9239 20.4915 42.6879 20.255C42.4912 20.0578 42.3633 20.0578 30.787 20.0578C19.2106 20.0578 19.0828 20.0578 18.886 20.255Z" fill="#00B25A"/>
<path d="M11.647 28.5055C10.8995 29.4123 10.2307 30.2205 10.1717 30.2993C10.0733 30.4275 9.99466 30.3979 9.63075 30.1022C8.89309 29.501 8.60786 29.4517 8.27345 29.8558C8.0374 30.1416 8.23411 30.4866 9.01111 31.0977C9.88647 31.7975 10.2405 31.8665 10.7126 31.4131C10.8799 31.2653 11.647 30.3683 12.4339 29.4221C13.919 27.6381 14.0665 27.3621 13.7125 27.0172C13.6338 26.9284 13.4371 26.8594 13.2895 26.8594C13.0535 26.8594 12.8174 27.096 11.647 28.5055Z" fill="#00B25A"/>
<path d="M6.53216 27.3219C6.41414 27.3416 6.21743 27.4697 6.08957 27.6077L5.85352 27.864V30.9983V34.1326L6.08957 34.3889L6.32562 34.6452H9.51231H12.699L12.9351 34.3987C13.1711 34.1721 13.1809 34.1129 13.1809 32.8809C13.1809 31.6685 13.1711 31.5897 12.9646 31.4517C12.6597 31.2348 12.4334 31.2546 12.1974 31.5108C12.0302 31.6882 12.0007 31.8558 12.0007 32.595V33.4624H9.49264H6.98459L7.00427 30.9687L7.03377 28.4849L8.43041 28.4553C9.80737 28.4356 9.83688 28.4258 9.99425 28.1794C10.2008 27.8738 10.0631 27.4894 9.67951 27.3514C9.44346 27.2529 6.96492 27.2332 6.53216 27.3219Z" fill="#00B25A"/>
<path d="M18.856 27.9236C18.6495 28.1503 18.6396 28.4361 18.8265 28.6924C18.9642 28.8698 19.1412 28.8796 22.7902 28.9092C24.8852 28.9191 26.7047 28.9092 26.8227 28.8796C27.3243 28.7614 27.5112 28.2193 27.167 27.9137C26.9998 27.7659 26.567 27.7462 22.9967 27.7462C19.2593 27.7462 19.0035 27.756 18.856 27.9236Z" fill="#00B25A"/>
<path d="M37.0218 27.9923C36.835 28.2782 36.9136 28.5837 37.2284 28.7907C37.4152 28.9188 37.8578 28.9287 40.0315 28.909C42.451 28.8794 42.6182 28.8696 42.7461 28.6921C42.9329 28.426 42.9231 28.1008 42.7067 27.9135C42.5494 27.7656 42.2051 27.7459 39.8544 27.7459H37.1792L37.0218 27.9923Z" fill="#00B25A"/>
<path d="M19.0829 32.645C18.6895 32.783 18.5617 33.3251 18.8666 33.5912C19.0141 33.7292 19.2796 33.7588 20.3222 33.7588C21.7287 33.7588 21.8369 33.7193 21.8369 33.2068C21.8369 32.6746 21.5811 32.576 20.3124 32.5858C19.7222 32.5858 19.1616 32.6154 19.0829 32.645Z" fill="#00B25A"/>
</svg>
