<svg width="47" height="49" viewBox="0 0 47 49" fill="none" xmlns="http://www.w3.org/2000/svg">
<path d="M25.6963 0.248646C25.5085 0.315056 25.2173 0.476334 25.0577 0.599663C24.9074 0.722996 22.0432 4.8783 18.6999 9.84L12.6239 18.8526L10.9053 18.8811L9.18676 18.9001L9.23371 18.5965C9.26189 18.4257 9.44032 16.7276 9.61875 14.8207C9.79718 12.9138 9.96622 11.1777 9.99439 10.9595C10.0507 10.5705 10.0789 10.542 10.7175 10.2005C11.3561 9.85897 12.2576 9.08104 12.6333 8.53079L12.8211 8.25567L15.5351 8.54028C17.3758 8.72054 18.3431 8.78694 18.5121 8.73002C19.038 8.54977 19.0756 7.73389 18.5685 7.51569C18.4464 7.45876 17.1128 7.29749 15.5915 7.14569C12.53 6.8516 12.2952 6.86108 11.8444 7.36389C11.6942 7.52517 11.3561 7.89516 11.0838 8.18926C10.802 8.50233 10.3982 8.82489 10.0695 8.98617C9.23371 9.39411 8.94259 9.65026 8.79233 10.0961C8.69842 10.3428 8.48243 12.2023 8.23826 14.6973L7.83444 18.9001H7.39306H6.94229L6.98924 18.5396C7.01742 18.3498 7.31793 15.3804 7.64662 11.9461C7.9847 8.50233 8.304 5.61829 8.35095 5.51393C8.49182 5.24829 8.75477 5.14394 9.26189 5.14394C9.50606 5.14394 12.0135 5.38111 14.8214 5.66572C19.3479 6.1211 19.9677 6.15905 20.1931 6.0452C20.6439 5.80803 20.6251 5.05855 20.1649 4.85933C20.0429 4.81189 18.39 4.62215 16.4742 4.43241C14.5679 4.24267 12.1262 4.0055 11.0462 3.89165C9.95683 3.7873 8.91442 3.73037 8.68903 3.75883C7.83444 3.89165 7.10194 4.63164 6.9329 5.55188C6.87655 5.827 6.6136 8.33157 6.34126 11.1207L5.85292 16.1963L4.66964 16.2532C3.65541 16.2912 3.42063 16.3386 3.0356 16.5378C2.23735 16.9552 1.78658 17.7427 1.77719 18.7578C1.7678 19.2132 1.74902 19.2416 1.32642 19.5167C1.09164 19.6685 0.753561 19.9816 0.584521 20.2093C-0.0446817 21.0441 -0.0165084 20.3136 0.0116648 33.9939L0.0398381 46.3649L0.265224 46.8583C0.537566 47.4844 1.30764 48.2149 1.91806 48.4616C2.37822 48.6418 2.86656 48.6418 22.2028 48.6418H42.018L42.5063 48.4141C43.0886 48.1485 43.7835 47.437 44.0653 46.8108C44.2625 46.3839 44.2719 46.2321 44.3 42.7314L44.3282 39.1074H44.6757C45.4833 39.1074 46.197 38.6994 46.4412 38.0923C46.5445 37.8456 46.5727 36.9538 46.5727 33.7947C46.5727 30.0094 46.5633 29.7817 46.3849 29.4306C46.1031 28.8709 45.7087 28.6337 44.9574 28.5958L44.3188 28.5578V25.1236C44.3188 22.2395 44.2906 21.6039 44.1686 21.177C43.9995 20.6077 43.6051 19.9626 43.2388 19.678C43.0229 19.5072 43.0041 19.4219 43.0041 18.7862C43.0041 17.9419 42.7223 17.2683 42.1777 16.8129C41.7832 16.4904 41.0883 16.2437 40.5436 16.2437H40.1774L41.2761 14.6214C41.8865 13.7202 42.4312 12.7999 42.5063 12.5533C42.7317 11.7943 42.4876 10.8931 41.9053 10.3523C41.7644 10.2195 40.5248 9.33719 39.1537 8.39798C37.7826 7.45876 34.6366 5.28624 32.1574 3.57858C29.6781 1.87092 27.5276 0.409924 27.3773 0.33403C26.9923 0.1348 26.1283 0.087368 25.6963 0.248646ZM26.8608 1.64323C27.4336 1.94682 40.7408 11.1777 40.9662 11.4148C41.3794 11.8607 41.3137 12.0884 40.4027 13.4545C39.9426 14.1281 38.9471 15.6271 38.1677 16.7845L36.759 18.8906L36.2143 18.9001H35.679L36.7778 17.2778C37.3788 16.3765 37.9235 15.4848 37.9986 15.276C38.1395 14.8491 38.0831 14.5266 37.6887 13.5874C37.4727 13.0656 37.4258 12.8189 37.407 11.9461C37.3882 11.1018 37.3412 10.8646 37.1816 10.6084C37.0501 10.3808 35.8856 9.52693 33.181 7.66748C31.0868 6.22545 29.2743 5.00163 29.1428 4.9542C28.7296 4.79292 28.2976 4.84984 27.5369 5.16291C26.8984 5.42855 26.6824 5.4665 25.7996 5.48547C24.6163 5.51393 24.2782 5.63726 23.8744 6.21597C23.7148 6.43417 21.7614 9.3277 19.5263 12.6387C17.2913 15.9496 15.4131 18.7198 15.3567 18.7862C15.2816 18.8621 15.0656 18.9001 14.7557 18.8811L14.2861 18.8526L20.0053 10.3618C23.1513 5.69418 25.8184 1.79502 25.9217 1.70016C26.1471 1.51991 26.5791 1.49144 26.8608 1.64323ZM32.4391 8.82489L36.0077 11.282L36.0641 12.3161C36.111 13.1225 36.1768 13.4925 36.374 14.0143C36.5148 14.3748 36.6369 14.7448 36.6463 14.8207C36.6557 14.9061 36.0734 15.8548 35.3503 16.9363L34.0356 18.8906L32.8617 18.9001H31.6784L31.5751 18.2645C31.4249 17.3916 30.8144 16.1963 30.1758 15.4942C29.4997 14.7543 28.7766 14.2799 27.8093 13.9384C25.8466 13.2553 23.4988 13.8151 22.0526 15.314C21.2449 16.1489 20.6345 17.3347 20.4842 18.3593L20.4185 18.8526L18.6999 18.8811C17.3194 18.9001 16.9908 18.8811 17.0471 18.7862C17.0941 18.7198 18.9159 16.0065 21.1041 12.7525L25.0859 6.8516H25.9686C26.6448 6.8516 27.011 6.79467 27.5745 6.61442C27.9783 6.4816 28.3728 6.3393 28.4385 6.29186C28.523 6.23494 28.6451 6.23494 28.7202 6.28238C28.8047 6.32981 30.4764 7.46825 32.4391 8.82489ZM27.0862 15.1527C27.8469 15.3614 28.4761 15.7219 29.0489 16.3006C29.6406 16.8983 29.9974 17.534 30.1758 18.3119L30.3073 18.9001H26.0438H21.7708L21.8366 18.5396C22.2685 16.1394 24.7384 14.5361 27.0862 15.1527ZM5.68388 17.9609C5.65571 18.1221 5.62754 18.4068 5.62754 18.5775V18.9001H4.40669H3.18585V18.5585C3.18585 18.3119 3.26098 18.1506 3.45819 17.9419C3.73054 17.6763 3.75871 17.6668 4.73538 17.6668H5.74962L5.68388 17.9609ZM41.2479 17.866C41.5203 18.0747 41.7738 18.7673 41.633 18.8811C41.586 18.9191 40.8441 18.938 39.9801 18.9191L38.4118 18.8906L38.8063 18.2834L39.2007 17.6668H40.1022C40.8723 17.6668 41.0413 17.6952 41.2479 17.866ZM42.2246 20.6647C42.8162 21.139 42.9102 21.4331 42.9102 22.7613V23.9282H22.1559H1.40155V22.7423C1.40155 21.898 1.43911 21.4711 1.53302 21.2908C1.70206 20.9588 2.13405 20.5508 2.43457 20.4275C2.58482 20.3706 9.39336 20.3421 22.2685 20.3516L41.8584 20.3706L42.2246 20.6647ZM42.9102 26.964V28.5768H39.3697C36.5336 28.5768 35.6978 28.6053 35.2189 28.7191C33.5754 29.1176 32.1668 30.3888 31.5469 32.0396C31.284 32.7511 31.1901 34.2026 31.3591 34.9426C31.7817 36.7831 33.1716 38.282 35.0216 38.8797C35.463 39.022 36.0453 39.0505 39.2289 39.0884L42.9102 39.1264V40.7297V42.333H26.025C9.21493 42.333 9.13041 42.333 8.96137 42.5227C8.74538 42.7694 8.74538 43.2247 8.96137 43.4714C9.13041 43.6611 9.21493 43.6611 26.025 43.6611H42.9102V44.866C42.9102 45.9475 42.882 46.1183 42.6942 46.4598C42.5721 46.6685 42.3185 46.9247 42.1119 47.048L41.7363 47.2662H22.1746C0.377918 47.2662 2.23735 47.3231 1.70206 46.6211C1.45789 46.2985 1.4485 46.2321 1.42033 44.9703L1.38276 43.6611H3.36428C5.22372 43.6611 5.35519 43.6517 5.53363 43.4714C5.63693 43.367 5.72145 43.1583 5.72145 42.9971C5.72145 42.8358 5.63693 42.6271 5.53363 42.5227C5.35519 42.3424 5.22372 42.333 3.37367 42.333H1.40155V33.8421V25.3512H22.1559H42.9102V26.964ZM45.1452 33.8136L45.164 37.6843H40.5906C37.9047 37.6843 35.8387 37.6369 35.6039 37.5895C34.1295 37.2384 32.9462 35.9767 32.6645 34.4493C32.2888 32.3716 33.8102 30.2845 35.895 30.0094C36.2143 29.9619 38.4212 29.9335 40.7972 29.9429L45.1171 29.9524L45.1452 33.8136Z" fill="#4086F4"/>
<path d="M35.7736 31.1287C34.5903 31.4987 33.7076 32.8173 33.8296 34.0317C33.9799 35.5401 35.1068 36.5837 36.5625 36.5837C38.9854 36.5932 40.2156 33.8135 38.6379 31.9161C38.5064 31.7548 38.1402 31.4892 37.8209 31.3374C37.3419 31.0907 37.1353 31.0433 36.6282 31.0528C36.2901 31.0528 35.9051 31.0907 35.7736 31.1287ZM37.1259 32.5043C38.112 32.9217 38.2622 34.3163 37.3889 34.9709C37.032 35.246 36.2713 35.2745 35.8863 35.0373C34.9378 34.4301 34.9941 33.0071 35.999 32.5517C36.4592 32.343 36.7127 32.3335 37.1259 32.5043Z" fill="#4086F4"/>
</svg>
