<svg width="42" height="49" viewBox="0 0 42 49" fill="none" xmlns="http://www.w3.org/2000/svg">
<path d="M18.4403 0.256466C12.377 0.87278 6.79244 4.29569 3.32905 9.52961C1.6959 12.0043 0.466352 15.4273 0.0909168 18.5373C-0.0498716 19.7225 -0.0217139 21.9602 0.137846 22.9178C1.15152 28.7491 6.86753 36.9793 16.0469 45.8163C17.9335 47.6273 18.3559 47.9876 18.9472 48.291C19.6136 48.6229 19.698 48.6418 20.5522 48.6418C21.4063 48.6418 21.4907 48.6229 22.1571 48.291C22.7485 47.9876 23.1708 47.6273 25.0574 45.8163C31.0174 40.0798 35.8136 34.2296 38.4604 29.4413C39.7651 27.0708 40.5441 25.0702 40.9289 23.079C41.1354 22.0076 41.173 19.8742 41.0134 18.5373C40.6661 15.6264 39.5961 12.5069 38.1319 10.0985C36.9962 8.2401 35.1284 6.1067 33.4484 4.73185C29.2623 1.33739 23.8184 -0.293476 18.4403 0.256466ZM23.5556 1.80199C28.5208 2.63638 32.9509 5.34816 35.9169 9.37791C37.8973 12.0612 39.0799 14.9721 39.568 18.3476C39.7932 19.969 39.7182 22.3395 39.3803 23.61C37.9161 29.2232 32.6787 36.4578 23.9405 44.925C22.7766 46.0438 21.838 46.8782 21.594 47.0015C21.0308 47.2764 20.402 47.3239 19.8201 47.1247C19.2569 46.9446 17.9992 45.8068 15.2116 42.9907C9.2797 37.0077 5.39395 31.9634 3.18826 27.4027C1.81792 24.5866 1.40494 23.0127 1.40494 20.6707C1.40494 12.0233 7.45884 4.29569 15.9155 2.14333C16.6289 1.96318 18.1306 1.69769 18.9096 1.62184C19.698 1.54598 22.7015 1.65976 23.5556 1.80199Z" fill="#FFB60A"/>
<path d="M18.9568 5.4614C15.4558 5.86911 12.443 7.28189 9.90876 9.7187C7.62799 11.9185 6.11687 14.6587 5.42231 17.9014C5.24398 18.7358 5.21582 19.153 5.21582 20.9546C5.21582 22.7561 5.24398 23.1733 5.42231 23.9982C5.88222 26.1221 6.79265 28.2555 7.94711 29.9148C8.85755 31.2138 10.6033 32.9395 11.861 33.7928C15.3244 36.1254 19.0506 36.9597 23.1335 36.3055C23.6497 36.2202 24.2035 36.0969 24.3724 36.0305C24.8605 35.8219 24.9262 35.1582 24.4851 34.8264C24.2504 34.6462 24.2316 34.6462 23.171 34.8548C21.7725 35.1393 19.4542 35.1582 18.112 34.9022C15.2306 34.3428 12.7151 33.0059 10.6503 30.9104C9.32684 29.583 7.83448 27.3737 8.12545 27.1841C8.18176 27.1461 9.2893 26.2264 10.5752 25.1455C12.1051 23.8655 12.9498 23.0974 12.9873 22.9457C13.1187 22.4337 12.5368 21.9027 12.0769 22.1208C11.9643 22.1682 10.8755 23.05 9.66473 24.0646L7.45905 25.9135L7.32765 25.6196C7.12116 25.1265 6.77388 23.6379 6.65186 22.7371C6.48292 21.4571 6.59555 19.1056 6.87712 17.873C8.06913 12.8003 11.6827 8.88431 16.5446 7.40515C17.9806 6.96899 18.8911 6.83625 20.5524 6.83625C22.3732 6.83625 23.3681 6.99744 24.9731 7.5379C26.8691 8.17318 28.5585 9.16876 29.957 10.4678C30.8018 11.2642 31.1209 11.378 31.4775 11.0177C31.9187 10.5721 31.8248 10.3066 30.9425 9.46269C27.8546 6.51387 23.2273 4.96835 18.9568 5.4614Z" fill="#FFB60A"/>
<path d="M23.9315 11.9662C23.3214 12.1937 22.5048 13.0376 22.289 13.6919C21.9135 14.8392 22.2984 16.1287 23.2276 16.8493C24.6542 17.9492 26.6346 17.4751 27.4794 15.8347C27.836 15.1331 27.836 14.147 27.47 13.3979C27.1509 12.7437 26.522 12.1558 25.9307 11.9567C25.3863 11.7671 24.4853 11.7766 23.9315 11.9662ZM25.621 13.3695C26.4751 13.8151 26.5971 15.0193 25.8556 15.6735C25.2455 16.2235 24.2788 16.1097 23.8001 15.4365C23.5279 15.0572 23.4997 14.2987 23.7344 13.9099C24.1286 13.2841 24.9827 13.0376 25.621 13.3695Z" fill="#FFB60A"/>
<path d="M32.3879 12.4305C32.1439 12.7434 32.1439 12.9046 32.3785 13.3218C32.8666 14.1846 33.5048 15.5216 33.7395 16.1663C34.2651 17.655 34.4528 18.7264 34.5091 20.6417C34.5373 21.6278 34.5373 22.4243 34.4997 22.4243C34.4622 22.4243 33.5799 21.7321 32.5381 20.8882C31.4963 20.0349 30.492 19.2669 30.3136 19.1815C29.9007 18.9634 29.3375 18.9729 28.8588 19.191C28.6523 19.2953 27.6856 20.0349 26.7188 20.8598C25.4987 21.8743 24.9168 22.3105 24.8417 22.2536C24.776 22.2062 23.4526 21.1442 21.9039 19.8832C20.3458 18.6316 18.9755 17.5791 18.8629 17.5412C18.4311 17.3989 17.7459 17.4653 17.3987 17.6739C16.7229 18.0816 14.001 20.4331 13.9446 20.6702C13.8132 21.1822 14.3952 21.7131 14.8551 21.5045C14.9677 21.4477 15.7186 20.8503 16.5164 20.1771C17.3142 19.5039 18.0369 18.9255 18.1214 18.8971C18.2058 18.8591 18.3748 18.9065 18.5062 18.9919C19.0506 19.3617 31.6277 29.564 31.6277 29.6399C31.6277 29.6778 31.1771 30.1803 30.6234 30.7492C29.5065 31.8965 28.6148 32.5982 27.404 33.2904C26.9629 33.5369 26.5311 33.8024 26.4467 33.8782C26.212 34.0773 26.2308 34.6083 26.4654 34.8454C26.7282 35.1108 27.038 35.0824 27.7137 34.7411C31.0739 33.0343 33.946 29.6114 35.1849 25.8567C35.7762 24.0646 35.8889 23.2587 35.8889 20.9546C35.8889 18.66 35.7762 17.8541 35.1849 16.0525C34.8376 14.9716 33.899 13.0184 33.5048 12.5348C33.1294 12.0892 32.6883 12.0418 32.3879 12.4305ZM31.9656 22.2346C33.824 23.7328 34.1994 24.0741 34.1806 24.2543C34.068 25.0318 32.998 27.6298 32.5475 28.2366C32.4348 28.3883 32.1439 28.1702 29.253 25.8282C27.5073 24.4154 26.0994 23.2397 26.1275 23.2113C26.5405 22.7846 29.4595 20.4331 29.5722 20.4331C29.6566 20.4331 30.7266 21.2485 31.9656 22.2346Z" fill="#FFB60A"/>
</svg>
