<svg width="106" height="83" viewBox="0 0 106 83" fill="none" xmlns="http://www.w3.org/2000/svg">
<path d="M51.31 14.5661C43.4144 9.82283 30.3943 21.2478 27.086 24.3613C27.7534 22.3868 28.9095 20.6157 30.4455 19.2149C30.4815 19.1866 30.5103 19.15 30.5296 19.1083C30.5488 19.0665 30.558 19.0208 30.5563 18.9748C30.5564 18.9306 30.5456 18.887 30.5247 18.8481C30.5039 18.8091 30.4737 18.776 30.437 18.7518C29.7056 18.2545 28.8469 17.9804 27.9643 17.9627C28.4185 17.3998 29.002 16.9565 29.6645 16.6711C30.3271 16.3857 31.0487 16.2667 31.7671 16.3244C31.8201 16.3323 31.8743 16.3243 31.9228 16.3014C31.9713 16.2785 32.0121 16.2418 32.04 16.1957C32.0669 16.1488 32.0811 16.0956 32.0811 16.0414C32.0811 15.9872 32.0669 15.9339 32.04 15.887C31.6914 15.3565 31.2098 14.9281 30.6439 14.6449C30.078 14.3618 29.4477 14.234 28.8169 14.2744C29.9339 13.4167 32.4663 13.1079 33.4895 13.0736C33.5441 13.0731 33.5973 13.0566 33.6427 13.0261C33.6881 12.9956 33.7238 12.9525 33.7453 12.9021C33.7662 12.8529 33.7733 12.7989 33.7658 12.746C33.7583 12.693 33.7364 12.6432 33.7026 12.6019C32.7152 11.4466 31.3154 10.7287 29.806 10.6034C31.2214 8.88791 35.4165 8.37326 35.4591 8.36468C35.519 8.36005 35.5757 8.33571 35.6204 8.29539C35.6651 8.25507 35.6953 8.20105 35.7064 8.14169C35.7204 8.10846 35.7278 8.07277 35.7281 8.03667C35.7284 8.00057 35.7217 7.96478 35.7082 7.93131C35.6948 7.89785 35.6749 7.86738 35.6497 7.84166C35.6245 7.81594 35.5945 7.79547 35.5614 7.78143C34.2307 6.92897 32.7219 6.39764 31.1532 6.22894C32.8585 4.10177 38.2814 2.79803 38.3411 2.79803C38.3989 2.7844 38.4512 2.75323 38.4909 2.70874C38.5305 2.66425 38.5556 2.60859 38.5628 2.54928C38.5695 2.49076 38.5584 2.43158 38.531 2.37953C38.5036 2.32747 38.4612 2.28498 38.4093 2.25765C34.777 0.353494 30.3432 2.20619 30.1385 2.25765C25.0226 4.83084 24.7924 13.3652 25.3295 19.275C23.3173 12.0958 18.9431 0.850988 11.2096 0.259155C10.9538 0.259155 4.92547 0.259135 1.61716 4.17896C1.58377 4.22666 1.56585 4.28358 1.56585 4.34193C1.56585 4.40027 1.58377 4.45719 1.61716 4.5049C1.64698 4.55618 1.69123 4.59741 1.74435 4.62337C1.79748 4.64933 1.85707 4.65885 1.91557 4.65072C1.99231 4.65072 9.19729 3.47562 12.1475 5.27685C10.3478 6.21557 8.80028 7.57803 7.63692 9.24814C7.60207 9.29848 7.58339 9.35835 7.58339 9.41969C7.58339 9.48103 7.60207 9.54089 7.63692 9.59122C7.67162 9.64031 7.72058 9.6774 7.77707 9.69737C7.83356 9.71733 7.8948 9.7192 7.9524 9.70273C8.01208 9.70273 13.3582 8.20172 15.8139 9.65986C14.9493 10.0815 14.1773 10.6727 13.5432 11.399C12.9092 12.1252 12.4259 12.9716 12.1219 13.8885C12.1043 13.9406 12.1022 13.9967 12.1158 14.0501C12.1294 14.1034 12.1582 14.1516 12.1986 14.1887C12.2368 14.2274 12.2856 14.2537 12.3388 14.2644C12.3919 14.2751 12.447 14.2697 12.4971 14.2487C13.7675 13.777 17.0758 12.842 18.7812 13.4768C17.996 13.7066 17.2881 14.1475 16.7337 14.752C16.1793 15.3566 15.7993 16.102 15.6348 16.9077C15.6266 16.9614 15.6333 17.0163 15.6544 17.0663C15.6755 17.1163 15.7101 17.1594 15.7542 17.1907C15.8009 17.2178 15.8538 17.2321 15.9077 17.2321C15.9616 17.2321 16.0145 17.2178 16.0612 17.1907C16.9046 16.7539 17.8441 16.539 18.7924 16.566C19.7406 16.5929 20.6666 16.861 21.4841 17.3451C20.4195 17.7788 19.508 18.5225 18.8664 19.4809C18.8455 19.5205 18.8346 19.5647 18.8346 19.6095C18.8346 19.6544 18.8455 19.6985 18.8664 19.7382C18.8822 19.7805 18.9073 19.8186 18.9397 19.8498C18.9722 19.881 19.0113 19.9044 19.054 19.9183C21.5637 20.824 23.7966 22.3698 25.5342 24.4042C21.3221 22.766 7.03151 17.834 2.01789 24.4042C1.89851 24.5843 -0.923781 28.8644 0.312572 33.0587C0.329605 33.115 0.363148 33.1647 0.408798 33.2015C0.454447 33.2382 0.510112 33.2602 0.568411 33.2645H0.611033C0.662145 33.2591 0.710968 33.2404 0.752796 33.2103C0.794623 33.1803 0.828011 33.1399 0.84975 33.093C0.84975 33.033 3.33954 27.5092 5.91456 26.2312C5.76097 27.9231 6.00635 29.6275 6.63079 31.206C6.6506 31.2624 6.68767 31.3111 6.73669 31.345C6.78572 31.3789 6.84417 31.3963 6.90365 31.3947C6.96492 31.3938 7.02431 31.3734 7.07333 31.3364C7.12235 31.2994 7.15846 31.2478 7.17648 31.1889C7.17648 31.146 8.58337 26.7887 10.6809 25.6651C10.5875 26.4675 10.6524 27.2805 10.8719 28.0577C11.0913 28.8348 11.4611 29.5607 11.9599 30.1939C11.9941 30.236 12.0396 30.2672 12.091 30.284C12.1424 30.3007 12.1976 30.3022 12.2498 30.2882C12.3023 30.2775 12.3506 30.2514 12.3885 30.2133C12.4264 30.1752 12.4523 30.1267 12.463 30.0738C12.7102 28.9931 13.5373 26.3341 14.7055 25.3563C14.5272 26.0147 14.5265 26.7089 14.7033 27.3677C14.8801 28.0264 15.2281 28.6259 15.7116 29.1046C15.7514 29.1406 15.8001 29.1652 15.8526 29.1757C15.9051 29.1863 15.9595 29.1825 16.01 29.1646C16.061 29.1444 16.1054 29.1106 16.1385 29.0667C16.1716 29.0228 16.192 28.9707 16.1976 28.9159C16.2874 28.1407 16.5633 27.3991 17.0015 26.755C17.4397 26.111 18.0271 25.5839 18.7129 25.219C18.5431 26.1557 18.6498 27.1218 19.0199 27.9981C19.037 28.0393 19.0637 28.0756 19.0979 28.104C19.1321 28.1324 19.1726 28.152 19.216 28.1611C19.259 28.1706 19.3037 28.1702 19.3465 28.1598C19.3894 28.1494 19.4293 28.1293 19.4633 28.101C20.137 27.5695 20.8729 27.123 21.6546 26.7716C21.3132 27.0884 21.0481 27.4795 20.8797 27.9151C20.7112 28.3506 20.6438 28.819 20.6826 29.2847C20.752 30.1023 21.1412 30.8588 21.7647 31.3879C22.3883 31.917 23.1951 32.1755 24.0079 32.1066C24.6762 32.0476 25.306 31.7671 25.7985 31.3089C26.5233 33.2131 29.2944 42.3393 24.6048 60.4717C18.2781 62.3844 17.2719 64.3915 16.3937 66.167C16.1089 66.8122 15.7295 67.4107 15.2682 67.9426C14.8225 68.5764 14.5588 69.3215 14.5062 70.0962C14.4535 70.8708 14.6139 71.6451 14.9698 72.3341C16.1379 74.7872 19.9834 77.4805 31.6307 76.4941C39.6457 75.8079 44.5825 73.9209 46.3049 70.8846C46.6545 70.303 46.8643 69.6473 46.9176 68.9698C46.9709 68.2922 46.8662 67.6115 46.6119 66.9819C44.9065 62.8819 40.5409 59.5625 36.38 59.1594C35.7149 52.5463 33.6771 37.0471 28.851 30.8543C29.0551 30.8757 29.2609 30.8757 29.4649 30.8543C30.2784 30.7823 31.0304 30.389 31.5562 29.7604C32.082 29.1318 32.3388 28.3192 32.2702 27.5006C32.2172 26.8854 31.9815 26.3004 31.5937 25.8217C31.206 25.3429 30.6841 24.9925 30.0959 24.8159C31.7384 24.6724 33.3932 24.8264 34.9816 25.2705C35.0201 25.2895 35.0624 25.2993 35.1053 25.2993C35.1481 25.2993 35.1904 25.2895 35.2289 25.2705C35.2667 25.2467 35.2982 25.2139 35.3204 25.175C35.3427 25.1362 35.3552 25.0924 35.3568 25.0475C35.3782 23.9808 35.0812 22.9321 34.5041 22.0369C35.3706 22.1191 36.203 22.417 36.9264 22.9037C37.6499 23.3903 38.2415 24.0504 38.648 24.8245C38.6716 24.8727 38.708 24.9135 38.7531 24.9422C38.7983 24.971 38.8504 24.9867 38.9039 24.9875C38.9573 24.9867 39.0094 24.971 39.0546 24.9422C39.0997 24.9135 39.1361 24.8727 39.1596 24.8245C39.4691 24.1302 39.585 23.3643 39.4948 22.6088C39.4047 21.8534 39.112 21.1368 38.648 20.5359C40.251 21.0076 42.2292 23.4521 42.9113 24.4814C42.9406 24.524 42.9804 24.5582 43.0267 24.5807C43.073 24.6032 43.1243 24.6134 43.1757 24.6101C43.2298 24.602 43.2804 24.5782 43.3213 24.5416C43.3622 24.5051 43.3916 24.4573 43.4059 24.4042C43.6585 23.5536 43.7418 22.6611 43.6511 21.7781C43.5604 20.895 43.2974 20.0385 42.8772 19.2578C45.4949 19.5152 48.7179 23.4693 48.752 23.5465C48.7903 23.5933 48.8417 23.6273 48.8995 23.6441C48.9573 23.661 49.0189 23.6598 49.076 23.6408C49.1344 23.6217 49.1847 23.5834 49.2187 23.5321C49.2527 23.4807 49.2686 23.4193 49.2636 23.3578C49.2708 21.4771 48.8324 19.6218 47.9846 17.9455C51.148 18.1857 55.9485 22.9032 55.9996 22.9547C56.0415 22.9962 56.0953 23.0236 56.1534 23.0328C56.2115 23.042 56.2711 23.0327 56.3236 23.0061C56.3764 22.9816 56.4203 22.9412 56.4493 22.8905C56.4783 22.8398 56.491 22.7813 56.4856 22.7231C56.119 17.9455 51.5232 14.7119 51.31 14.5661ZM36.056 62.2644C35.9444 63.1656 35.577 64.0154 34.9979 64.7121C34.4187 65.4088 33.6523 65.9228 32.7903 66.1928C30.3687 67.0505 26.9496 66.4844 25.3295 64.9576C24.9996 64.6881 24.7529 64.3294 24.6185 63.9238C24.4841 63.5181 24.4675 63.0823 24.5707 62.6675L24.7753 61.9127C26.8725 62.6968 29.1061 63.044 31.3408 62.9334C33.0813 62.8628 34.7276 62.1193 35.9366 60.8577C36.0133 61.6382 36.0474 62.1357 36.056 62.2644ZM35.8599 60.0343C32.9353 63.9884 26.2589 61.8355 24.9203 61.3466C25.3125 59.8885 25.6564 58.4875 25.952 57.1437C27.4589 58.0796 29.2282 58.4952 30.9912 58.3274C32.5891 58.1568 34.1311 57.6388 35.5103 56.8092C35.6552 58.0615 35.7746 59.1594 35.8599 60.0343ZM35.4335 56.1831C30.3176 59.2709 26.8047 57.0408 26.0543 56.5347C26.3442 55.1881 26.583 53.9015 26.7961 52.675C28.1709 53.1215 29.6191 53.2934 31.0594 53.181C32.3765 53.076 33.6544 52.6806 34.8026 52.0231C35.0839 53.5069 35.2715 54.9565 35.4335 56.1831ZM26.907 52.0917C27.1201 50.8051 27.2907 49.57 27.4186 48.412C28.5468 48.8272 29.7517 48.9882 30.9486 48.8838C32.0668 48.7884 33.1515 48.452 34.129 47.8974C34.3592 49.0896 34.5553 50.2647 34.7344 51.4055C33.5516 52.0601 32.246 52.4593 30.9011 52.5775C29.5563 52.6956 28.2017 52.5302 26.924 52.0917H26.907ZM27.4782 47.8031C27.5891 46.7052 27.6744 45.6587 27.7255 44.6724C28.6888 44.9941 29.7068 45.1167 30.7183 45.0326C31.6547 44.9487 32.5606 44.6557 33.3701 44.1749C33.6003 45.1956 33.822 46.2334 34.0181 47.2541C33.0403 47.8286 31.9475 48.1767 30.8192 48.2731C29.6909 48.3695 28.5555 48.2119 27.4953 47.8116L27.4782 47.8031ZM27.7596 44.0634C27.7596 43.1456 27.8108 42.2793 27.8022 41.4902C28.4321 41.6054 29.0742 41.6372 29.7122 41.5845C30.6967 41.5177 31.6424 41.1728 32.4407 40.5896C32.7221 41.5845 32.9864 42.6052 33.2252 43.6345C32.4029 44.1006 31.4896 44.3812 30.5488 44.4567C29.6079 44.5323 28.662 44.401 27.7767 44.0719L27.7596 44.0634ZM27.8022 40.864C27.8022 39.8433 27.734 38.9084 27.6573 38.0507C28.1157 38.1551 28.5875 38.1869 29.0557 38.145C29.9006 38.0684 30.7114 37.7729 31.409 37.2873C31.7074 38.145 31.9973 39.0028 32.2617 39.9377C31.6272 40.3971 30.9041 40.7177 30.139 40.8788C29.3738 41.0398 28.5836 41.0377 27.8193 40.8726L27.8022 40.864ZM27.6062 37.4331C27.5323 36.7126 27.447 36.0522 27.3503 35.4518C27.6197 35.4783 27.891 35.4783 28.1604 35.4518C28.9476 35.3965 29.6984 35.0968 30.3091 34.594C30.6245 35.2717 30.9145 35.9921 31.2044 36.7384C30.7007 37.1233 30.1159 37.3869 29.495 37.5088C28.8742 37.6308 28.2338 37.6078 27.6232 37.4417L27.6062 37.4331ZM27.2566 34.8599C27.1287 34.1738 27.0008 33.5819 26.8729 33.0758C27.0487 33.0931 27.2257 33.0931 27.4015 33.0758C28.045 33.0315 28.6508 32.7542 29.1068 32.2953C29.4627 32.8482 29.7872 33.421 30.0789 34.0108C29.7041 34.3546 29.2578 34.61 28.7725 34.7584C28.2872 34.9067 27.7752 34.9444 27.2736 34.8685L27.2566 34.8599ZM26.7023 32.4583C26.5403 31.8922 26.3954 31.4719 26.2845 31.1803H26.6512C27.1034 31.1385 27.5406 30.9948 27.9301 30.76C28.2342 31.0889 28.5189 31.4355 28.7828 31.7978C28.5282 32.0826 28.2031 32.2945 27.8407 32.4121C27.4783 32.5296 27.0914 32.5485 26.7194 32.4669L26.7023 32.4583ZM27.8193 30.151C27.5394 30.344 27.2241 30.479 26.8918 30.5482C26.5595 30.6174 26.2168 30.6194 25.8838 30.5541C25.356 30.4451 24.8774 30.1674 24.5194 29.7624C24.1614 29.3574 23.9431 28.8469 23.8971 28.3069C23.8678 27.9828 23.9024 27.6561 23.999 27.3455C24.0955 27.0349 24.2522 26.7466 24.4598 26.4971C24.668 26.2372 24.9265 26.0225 25.2196 25.8662C25.5128 25.7099 25.8345 25.6152 26.1652 25.5879H26.5318C26.8481 25.6039 27.1582 25.6826 27.4441 25.8195C27.8399 26.0071 28.1797 26.296 28.4296 26.6573C28.6795 27.0186 28.8307 27.4395 28.8681 27.878C28.9114 28.3161 28.8388 28.7578 28.6576 29.1585C28.4764 29.5592 28.1931 29.9046 27.8364 30.1596L27.8193 30.151ZM30.3773 2.84949C31.4711 2.42316 32.6193 2.15462 33.7879 2.05181C35.0091 1.92413 36.2432 2.06759 37.4032 2.47208C35.6211 2.96957 31.4346 4.32479 30.3773 6.4005C30.35 6.4442 30.3356 6.49472 30.3356 6.5463C30.3356 6.59788 30.35 6.64842 30.3773 6.69212C30.4039 6.73528 30.4419 6.77013 30.4871 6.79285C30.5322 6.81556 30.5828 6.82524 30.6331 6.82078C31.9967 6.85358 33.3316 7.22168 34.5212 7.89294C33.0035 8.17599 29.8913 8.94795 28.9875 10.7149C28.9628 10.7579 28.9497 10.8067 28.9497 10.8564C28.9497 10.9061 28.9628 10.9549 28.9875 10.9979C29.0137 11.042 29.0514 11.078 29.0964 11.1022C29.1415 11.1264 29.1922 11.1378 29.2432 11.1352C30.5551 11.1412 31.8196 11.6293 32.7988 12.5075C31.5028 12.619 28.5782 13.0393 27.8278 14.4717C27.7991 14.518 27.7839 14.5715 27.7839 14.6261C27.7839 14.6807 27.7991 14.7342 27.8278 14.7805C27.8583 14.8275 27.9027 14.8635 27.9548 14.8836C28.0069 14.9036 28.0639 14.9065 28.1177 14.892C28.6498 14.7845 29.1996 14.8062 29.7216 14.9554C30.2436 15.1046 30.7227 15.3769 31.1191 15.7497C30.2985 15.7643 29.4955 15.9913 28.7876 16.409C28.0796 16.8267 27.4906 17.4209 27.0775 18.1342C27.0504 18.1796 27.0361 18.2314 27.0361 18.2843C27.0361 18.3372 27.0504 18.3891 27.0775 18.4344C27.1069 18.479 27.1479 18.5145 27.196 18.5372C27.2441 18.5599 27.2975 18.5689 27.3503 18.5631C28.1561 18.5071 28.9622 18.6669 29.6866 19.0262C28.2384 20.4352 27.1376 22.1653 26.4721 24.0783C25.8667 19.9612 23.9738 6.10887 30.4455 2.85807L30.3773 2.84949ZM19.4888 19.5752C20.1784 18.7518 21.0816 18.1372 22.098 17.7997C22.1491 17.785 22.1953 17.7564 22.2314 17.7171C22.2675 17.6777 22.2922 17.6292 22.3026 17.5767C22.3109 17.5239 22.305 17.4698 22.2855 17.42C22.266 17.3702 22.2336 17.3266 22.1918 17.2936C21.3479 16.6572 20.3541 16.2522 19.3078 16.1184C18.2615 15.9846 17.1986 16.1265 16.2232 16.5303C16.9138 14.386 19.3439 13.9571 19.4547 13.9056C19.5093 13.8986 19.5604 13.8752 19.6015 13.8385C19.6426 13.8018 19.6717 13.7534 19.685 13.6998C19.6975 13.6459 19.6954 13.5895 19.6789 13.5367C19.6624 13.4839 19.6321 13.4365 19.5912 13.3995C18.0052 12.0615 14.2279 13.0993 12.7699 13.5711C13.4837 11.9801 14.7735 10.7225 16.3767 10.0544C16.4251 10.0379 16.4682 10.0084 16.5013 9.96912C16.5343 9.92983 16.5561 9.88223 16.5642 9.83141C16.5729 9.78142 16.5689 9.73 16.5525 9.682C16.5361 9.634 16.5079 9.59098 16.4704 9.55693C14.5264 7.88436 10.2972 8.59628 8.50662 8.99942C9.60857 7.55198 11.0579 6.40978 12.7187 5.67998C12.7667 5.66269 12.8094 5.63297 12.8423 5.59381C12.8752 5.55466 12.8973 5.50747 12.9063 5.45699C12.9168 5.40698 12.9136 5.35507 12.8971 5.30674C12.8806 5.25842 12.8514 5.21548 12.8126 5.18251C10.5019 3.22689 4.71231 3.75009 2.58067 4.01599C5.80371 0.876698 11.1072 0.893866 11.1584 0.893866C20.4694 1.61436 24.8776 19.4122 25.8838 24.1555C24.1663 22.1321 21.9824 20.5625 19.523 19.5838L19.4888 19.5752ZM19.361 27.5092C19.1346 26.6666 19.1346 25.7786 19.361 24.936C19.3768 24.8851 19.378 24.8307 19.3644 24.7791C19.3508 24.7275 19.323 24.6808 19.2842 24.6444C19.2471 24.6068 19.2003 24.5804 19.149 24.5683C19.0978 24.5562 19.0442 24.5588 18.9943 24.5758C18.1679 24.872 17.431 25.3772 16.8547 26.0426C16.2783 26.708 15.8817 27.5114 15.703 28.3755C15.3874 27.8757 15.1969 27.3064 15.1479 26.7163C15.0989 26.1263 15.1928 25.533 15.4217 24.9875C15.4507 24.9428 15.4661 24.8907 15.4661 24.8374C15.4661 24.7841 15.4507 24.7319 15.4217 24.6873C15.3851 24.646 15.3377 24.616 15.2848 24.6008C15.232 24.5856 15.176 24.5859 15.1232 24.6015C13.4691 25.0904 12.4459 28.1353 12.0793 29.4477C11.3406 28.2314 11.0792 26.7818 11.346 25.382C11.3566 25.3328 11.3543 25.2816 11.3393 25.2335C11.3244 25.1854 11.2973 25.142 11.2607 25.1076C11.2255 25.0698 11.1802 25.0432 11.1302 25.0311C11.0802 25.0189 11.0278 25.0216 10.9793 25.0389C8.95002 25.6308 7.50903 28.813 6.92922 30.3311C6.46005 28.9234 6.34003 27.4217 6.57963 25.9567C6.59377 25.907 6.5941 25.8543 6.58057 25.8044C6.56704 25.7545 6.54017 25.7093 6.5029 25.6736C6.46658 25.6376 6.42121 25.6122 6.37165 25.6001C6.32208 25.5881 6.27018 25.5898 6.2215 25.605C3.82554 26.3255 1.55746 30.4941 0.696278 32.2353C0.0738384 28.5556 2.47832 24.9017 2.49537 24.876C3.94489 22.989 6.27266 22.1398 8.93295 21.9082C14.9442 21.3936 22.5755 24.0697 25.3978 25.1419C23.2264 25.4348 21.1565 26.2465 19.361 27.5092ZM24.3064 25.9224L24.1614 26.0596H23.9056L24.3064 25.9224ZM21.2112 29.3533C21.1832 29.0237 21.2201 28.6918 21.3199 28.3766C21.4196 28.0614 21.5803 27.7691 21.7926 27.5165C22.0049 27.2639 22.2647 27.056 22.557 26.9046C22.8494 26.7532 23.1686 26.6613 23.4963 26.6343H23.7521V26.6772C23.7521 26.7201 23.7095 26.7715 23.6839 26.8144C23.6256 26.9313 23.5744 27.0516 23.5305 27.1747L23.4793 27.3548C23.4448 27.4757 23.4191 27.599 23.4025 27.7236V27.8866C23.3855 28.072 23.3855 28.2587 23.4025 28.4441C23.4156 28.6003 23.4413 28.7552 23.4793 28.9073C23.4793 28.9588 23.4793 29.0102 23.5219 29.0617L23.6242 29.3533L23.701 29.5163C23.7413 29.6019 23.7869 29.685 23.8374 29.765L23.9397 29.928C23.9889 30.003 24.043 30.0747 24.1017 30.1424L24.2296 30.2882C24.2907 30.3582 24.3562 30.4241 24.4257 30.4855L24.5707 30.6056C24.6438 30.6675 24.7207 30.7248 24.8009 30.7771L24.9458 30.8715C25.0687 30.9418 25.1971 31.002 25.3295 31.0516C24.9355 31.3883 24.4465 31.5923 23.9312 31.6349C23.5971 31.6666 23.26 31.6304 22.94 31.5286C22.6201 31.4269 22.3237 31.2615 22.0684 31.0423C21.8132 30.8231 21.6042 30.5546 21.4541 30.2527C21.3039 29.9508 21.2155 29.6216 21.1942 29.2847L21.2112 29.3533ZM46.0662 67.3421C46.2839 67.8982 46.3702 68.4976 46.3184 69.0929C46.2667 69.6883 46.0781 70.2635 45.7677 70.773C44.6508 72.7287 41.2742 75.2418 31.5539 76.0824C19.6167 77.1031 16.3511 74.1182 15.4558 72.2398C15.1557 71.6546 15.0165 70.9994 15.0525 70.3419C15.0884 69.6844 15.2983 69.0486 15.6604 68.5001C16.1614 67.927 16.5752 67.2824 16.8883 66.5873C17.7409 64.8719 18.6362 63.105 24.4002 61.2952C24.2893 61.7326 24.1699 62.1529 24.0506 62.616C23.9099 63.1319 23.9221 63.6778 24.0857 64.1868C24.2493 64.6958 24.5571 65.1455 24.9714 65.4808C25.8237 66.1644 26.8016 66.6722 27.8492 66.9754C28.8967 67.2786 29.9933 67.3711 31.0764 67.2478C31.7388 67.191 32.3917 67.0528 33.0205 66.8361C33.9864 66.5303 34.8443 65.9511 35.4915 65.1677C36.1387 64.3843 36.5478 63.43 36.6699 62.4188V62.3587C36.6699 62.1786 36.5931 61.2866 36.4567 59.9056C38.5349 60.2446 40.4978 61.0945 42.1712 62.3798C43.8445 63.6651 45.1766 65.346 46.0491 67.2735L46.0662 67.3421ZM31.6904 27.715C31.7184 28.044 31.6818 28.3752 31.5826 28.6899C31.4834 29.0046 31.3235 29.2965 31.112 29.549C30.9006 29.8015 30.6418 30.0096 30.3504 30.1615C30.059 30.3133 29.7408 30.406 29.4138 30.4341C29.1278 30.4619 28.8391 30.4387 28.5611 30.3654C28.6123 30.3225 28.6464 30.2711 28.6976 30.2196L28.7658 30.1424C28.8425 30.0481 28.9192 29.9451 28.9875 29.8422C29.0471 29.7479 29.0983 29.6449 29.1495 29.5506L29.2006 29.4391C29.2006 29.3619 29.2603 29.2847 29.2859 29.1989C29.3115 29.1131 29.2859 29.1132 29.3285 29.0703C29.3534 28.9916 29.3733 28.9113 29.3882 28.8301V28.7015V28.4441C29.3921 28.4042 29.3921 28.364 29.3882 28.324C29.3967 28.1955 29.3967 28.0666 29.3882 27.9381C29.3882 27.8094 29.3882 27.6893 29.3285 27.5607C29.2688 27.432 29.3285 27.4835 29.3285 27.4406C29.3285 27.3977 29.2859 27.2776 29.2603 27.2004L29.2091 27.0632C29.1815 26.9902 29.1502 26.9186 29.1153 26.8488C29.096 26.8041 29.0732 26.7611 29.0471 26.7201C29.0471 26.6515 28.9704 26.5828 28.9278 26.5142L28.851 26.4027C28.7987 26.3227 28.7388 26.248 28.672 26.1797L28.6208 26.1111C28.5398 26.0239 28.4544 25.9408 28.365 25.8623L28.2627 25.7852L28.1177 25.6651C28.372 25.5532 28.6427 25.4836 28.9192 25.4592C29.5719 25.3865 30.2268 25.5753 30.7422 25.9846C31.2576 26.3939 31.5921 26.9909 31.6733 27.6464L31.6904 27.715ZM47.4986 17.4223C47.4484 17.4269 47.4001 17.4443 47.3584 17.4728C47.3166 17.5013 47.2827 17.54 47.2599 17.5853C47.2352 17.6299 47.2223 17.6801 47.2223 17.7311C47.2223 17.7821 47.2352 17.8323 47.2599 17.8769C48.1128 19.3072 48.5992 20.9282 48.6753 22.5944C47.5072 21.3078 44.7275 18.5631 42.3912 18.7689C42.3417 18.7725 42.2942 18.7895 42.2536 18.8183C42.213 18.847 42.181 18.8863 42.161 18.9319C42.1363 18.9765 42.1234 19.0267 42.1234 19.0777C42.1234 19.1288 42.1363 19.1789 42.161 19.2235C42.9981 20.5792 43.3021 22.2002 43.0136 23.7695C42.161 22.603 39.8418 19.8325 37.9403 20.0041C37.885 20.0065 37.8316 20.0259 37.7874 20.0596C37.7432 20.0933 37.7103 20.1398 37.6931 20.1928C37.6721 20.2437 37.6673 20.3 37.6796 20.3538C37.6918 20.4076 37.7203 20.4562 37.7613 20.493C38.2237 20.9687 38.5622 21.5519 38.7466 22.1908C38.9311 22.8298 38.9558 23.5046 38.8186 24.1555C38.289 23.3419 37.5612 22.6783 36.7045 22.2279C35.8478 21.7775 34.8906 21.5552 33.9243 21.5823C33.8705 21.5857 33.8185 21.6034 33.7736 21.6335C33.7286 21.6637 33.6924 21.7051 33.6685 21.7538C33.6476 21.803 33.6405 21.857 33.648 21.91C33.6555 21.9629 33.6774 22.0128 33.7112 22.0541C34.2952 22.8448 34.6494 23.7831 34.7344 24.7645C33.1467 24.3663 31.5038 24.2387 29.8742 24.387C29.0846 24.4604 28.3011 24.5893 27.5294 24.773C30.94 21.6423 43.602 10.6805 50.9689 15.115C51.0116 15.115 55.0105 17.9541 55.8035 22.0369C54.3199 20.5787 50.2527 17.1393 47.4986 17.3794V17.4223Z" fill="#999999"/>
<path d="M100.336 19.9499C92.4408 15.2066 79.4207 26.6316 76.1124 29.7451C76.7797 27.7706 77.9359 25.9995 79.4719 24.5987C79.5079 24.5703 79.5367 24.5338 79.5559 24.492C79.5752 24.4503 79.5844 24.4046 79.5827 24.3586C79.5828 24.3143 79.572 24.2708 79.5511 24.2319C79.5303 24.1929 79.5001 24.1598 79.4633 24.1356C78.7319 23.6383 77.8732 23.3642 76.9906 23.3465C77.4448 22.7835 78.0284 22.3403 78.6909 22.0549C79.3534 21.7694 80.075 21.6505 80.7935 21.7082C80.8465 21.7161 80.9006 21.7081 80.9491 21.6852C80.9977 21.6623 81.0384 21.6256 81.0663 21.5795C81.0933 21.5326 81.1075 21.4794 81.1075 21.4252C81.1075 21.3709 81.0933 21.3177 81.0663 21.2708C80.7178 20.7403 80.2362 20.3119 79.6703 20.0287C79.1043 19.7456 78.4741 19.6178 77.8433 19.6582C78.9603 18.8005 81.4927 18.4917 82.5158 18.4574C82.5704 18.4569 82.6237 18.4403 82.6691 18.4099C82.7145 18.3794 82.7501 18.3363 82.7716 18.2859C82.7926 18.2367 82.7997 18.1827 82.7922 18.1297C82.7846 18.0768 82.7628 18.0269 82.729 17.9857C81.7416 16.8304 80.3418 16.1124 78.8324 15.9872C80.2478 14.2717 84.4428 13.757 84.4855 13.7485C84.5453 13.7438 84.602 13.7195 84.6467 13.6792C84.6914 13.6389 84.7217 13.5848 84.7328 13.5255C84.7468 13.4923 84.7542 13.4566 84.7545 13.4205C84.7548 13.3844 84.748 13.3486 84.7346 13.3151C84.7211 13.2816 84.7012 13.2512 84.676 13.2254C84.6508 13.1997 84.6209 13.1793 84.5878 13.1652C83.257 12.3128 81.7483 11.7814 80.1796 11.6127C81.8849 9.48556 87.3078 8.18181 87.3675 8.18181C87.4253 8.16819 87.4776 8.13702 87.5172 8.09253C87.5569 8.04804 87.582 7.99238 87.5891 7.93307C87.5958 7.87455 87.5848 7.81537 87.5574 7.76332C87.53 7.71126 87.4875 7.66877 87.4357 7.64144C83.8033 5.73728 79.3695 7.58998 79.1649 7.64144C74.049 10.2146 73.8187 18.749 74.3559 24.6588C72.3436 17.4796 67.9695 6.23478 60.2359 5.64294C59.9801 5.64294 53.9518 5.64292 50.6435 9.56275C50.6101 9.61045 50.5922 9.66737 50.5922 9.72572C50.5922 9.78406 50.6101 9.84098 50.6435 9.88869C50.6733 9.93997 50.7176 9.9812 50.7707 10.0072C50.8238 10.0331 50.8834 10.0426 50.9419 10.0345C51.0187 10.0345 58.2237 8.85941 61.1738 10.6606C59.3741 11.5994 57.8267 12.9618 56.6633 14.6319C56.6284 14.6823 56.6098 14.7421 56.6098 14.8035C56.6098 14.8648 56.6284 14.9247 56.6633 14.975C56.698 15.0241 56.7469 15.0612 56.8034 15.0812C56.8599 15.1011 56.9212 15.103 56.9788 15.0865C57.0384 15.0865 62.3846 13.5855 64.8403 15.0436C63.9757 15.4652 63.2036 16.0565 62.5696 16.7827C61.9355 17.5089 61.4523 18.3554 61.1483 19.2722C61.1306 19.3244 61.1285 19.3805 61.1422 19.4339C61.1558 19.4872 61.1846 19.5353 61.225 19.5725C61.2632 19.6111 61.312 19.6375 61.3651 19.6482C61.4183 19.6589 61.4734 19.6534 61.5234 19.6325C62.7939 19.1608 66.1022 18.2258 67.8075 18.8606C67.0224 19.0903 66.3145 19.5313 65.7601 20.1358C65.2056 20.7404 64.8257 21.4857 64.6612 22.2915C64.6529 22.3451 64.6597 22.4001 64.6808 22.4501C64.7019 22.5001 64.7364 22.5432 64.7806 22.5745C64.8272 22.6016 64.8802 22.6159 64.9341 22.6159C64.988 22.6159 65.0409 22.6016 65.0875 22.5745C65.9309 22.1377 66.8705 21.9227 67.8187 21.9497C68.767 21.9767 69.693 22.2448 70.5104 22.7289C69.4458 23.1625 68.5343 23.9063 67.8928 24.8647C67.8719 24.9043 67.8609 24.9484 67.8609 24.9933C67.8609 25.0382 67.8719 25.0823 67.8928 25.122C67.9086 25.1642 67.9336 25.2024 67.9661 25.2336C67.9986 25.2648 68.0377 25.2882 68.0804 25.3021C70.5901 26.2078 72.823 27.7536 74.5605 29.788C70.3484 28.1497 56.0579 23.2178 51.0443 29.788C50.9249 29.9681 48.1026 34.2482 49.3389 38.4425C49.356 38.4987 49.3895 38.5485 49.4352 38.5853C49.4808 38.622 49.5365 38.644 49.5948 38.6483H49.6374C49.6885 38.6428 49.7373 38.6242 49.7792 38.5941C49.821 38.5641 49.8544 38.5237 49.8761 38.4768C49.8761 38.4168 52.3659 32.893 54.9409 31.615C54.7873 33.3068 55.0327 35.0113 55.6572 36.5898C55.677 36.6462 55.714 36.6949 55.7631 36.7288C55.8121 36.7627 55.8705 36.7801 55.93 36.7785C55.9913 36.7776 56.0507 36.7572 56.0997 36.7202C56.1487 36.6832 56.1848 36.6316 56.2028 36.5726C56.2028 36.5298 57.6097 32.1725 59.7073 31.0489C59.6139 31.8513 59.6787 32.6643 59.8982 33.4414C60.1177 34.2186 60.4874 34.9445 60.9863 35.5777C61.0205 35.6197 61.066 35.651 61.1174 35.6678C61.1688 35.6845 61.2239 35.686 61.2762 35.672C61.3287 35.6613 61.3769 35.6352 61.4149 35.5971C61.4528 35.559 61.4787 35.5104 61.4893 35.4576C61.7366 34.3768 62.5637 31.7179 63.7318 30.7401C63.5536 31.3984 63.5529 32.0927 63.7297 32.7515C63.9065 33.4102 64.2545 34.0097 64.7379 34.4883C64.7778 34.5244 64.8265 34.549 64.879 34.5595C64.9315 34.5701 64.9859 34.5662 65.0364 34.5484C65.0873 34.5282 65.1318 34.4944 65.1648 34.4505C65.1979 34.4066 65.2184 34.3545 65.224 34.2997C65.3138 33.5245 65.5897 32.7829 66.0279 32.1388C66.4661 31.4948 67.0534 30.9676 67.7393 30.6028C67.5695 31.5395 67.6762 32.5056 68.0463 33.3819C68.0633 33.423 68.0901 33.4594 68.1243 33.4878C68.1584 33.5162 68.199 33.5358 68.2424 33.5449C68.2854 33.5544 68.3301 33.554 68.3729 33.5436C68.4158 33.5332 68.4557 33.5131 68.4896 33.4848C69.1633 32.9533 69.8993 32.5068 70.681 32.1553C70.3395 32.4722 70.0745 32.8633 69.906 33.2988C69.7376 33.7344 69.6702 34.2028 69.7089 34.6685C69.7784 35.4861 70.1676 36.2426 70.7911 36.7717C71.4146 37.3008 72.2214 37.5593 73.0343 37.4904C73.7025 37.4314 74.3324 37.1509 74.8249 36.6927C75.5496 38.5969 78.3208 47.7231 73.6312 65.8555C67.3044 67.7682 66.2983 69.7753 65.4201 71.5508C65.1352 72.1959 64.7559 72.7944 64.2946 73.3263C63.8488 73.9602 63.5852 74.7053 63.5325 75.48C63.4799 76.2546 63.6403 77.0289 63.9961 77.7179C65.1643 80.171 69.0098 82.8643 80.6571 81.8779C88.672 81.1917 93.6089 79.3047 95.3313 76.2683C95.6809 75.6868 95.8907 75.0311 95.944 74.3536C95.9973 73.676 95.8926 72.9953 95.6382 72.3657C93.9329 68.2657 89.5673 64.9463 85.4063 64.5432C84.7413 57.9301 82.7034 42.4309 77.8774 36.2381C78.0815 36.2595 78.2872 36.2595 78.4913 36.2381C79.3048 36.1661 80.0568 35.7728 80.5826 35.1442C81.1084 34.5156 81.3651 33.703 81.2966 32.8844C81.2435 32.2692 81.0078 31.6842 80.6201 31.2055C80.2324 30.7267 79.7105 30.3763 79.1223 30.1997C80.7648 30.0562 82.4195 30.2102 84.008 30.6543C84.0465 30.6733 84.0888 30.6831 84.1316 30.6831C84.1745 30.6831 84.2168 30.6733 84.2552 30.6543C84.2931 30.6305 84.3245 30.5977 84.3468 30.5588C84.3691 30.52 84.3816 30.4762 84.3832 30.4313C84.4046 29.3646 84.1076 28.3159 83.5305 27.4207C84.3969 27.5029 85.2294 27.8008 85.9528 28.2875C86.6762 28.7741 87.2679 29.4342 87.6744 30.2083C87.698 30.2565 87.7343 30.2973 87.7795 30.326C87.8246 30.3548 87.8768 30.3704 87.9302 30.3713C87.9837 30.3704 88.0358 30.3548 88.0809 30.326C88.1261 30.2973 88.1624 30.2565 88.186 30.2083C88.4955 29.514 88.6113 28.7481 88.5212 27.9926C88.4311 27.2372 88.1384 26.5206 87.6744 25.9196C89.2774 26.3914 91.2556 28.8359 91.9377 29.8652C91.967 29.9077 92.0067 29.9419 92.053 29.9645C92.0994 29.987 92.1507 29.9972 92.202 29.9939C92.2561 29.9858 92.3067 29.962 92.3476 29.9254C92.3885 29.8889 92.4179 29.8411 92.4323 29.788C92.6849 28.9374 92.7682 28.0449 92.6775 27.1618C92.5868 26.2787 92.3238 25.4223 91.9036 24.6416C94.5212 24.899 97.7443 28.8531 97.7784 28.9303C97.8166 28.977 97.8681 29.0111 97.9259 29.0279C97.9837 29.0448 98.0452 29.0436 98.1024 29.0246C98.1608 29.0055 98.211 28.9672 98.2451 28.9159C98.2791 28.8645 98.2949 28.8031 98.29 28.7416C98.2972 26.8609 97.8587 25.0056 97.011 23.3293C100.174 23.5695 104.975 28.287 105.026 28.3384C105.068 28.38 105.122 28.4073 105.18 28.4166C105.238 28.4258 105.297 28.4165 105.35 28.3899C105.403 28.3653 105.447 28.3249 105.476 28.2743C105.505 28.2236 105.517 28.1651 105.512 28.1069C105.145 23.3293 100.55 20.0957 100.336 19.9499ZM85.0823 67.6482C84.9707 68.5494 84.6034 69.3992 84.0243 70.0959C83.4451 70.7925 82.6787 71.3066 81.8167 71.5766C79.3951 72.4343 75.976 71.8682 74.3559 70.3414C74.0259 70.0719 73.7793 69.7132 73.6448 69.3076C73.5104 68.9019 73.4938 68.4661 73.597 68.0513L73.8017 67.2965C75.8989 68.0805 78.1325 68.4278 80.3671 68.3172C82.1077 68.2466 83.754 67.5031 84.963 66.2415C85.0397 67.022 85.0738 67.5195 85.0823 67.6482ZM84.8862 65.4181C81.9616 69.3722 75.2853 67.2193 73.9466 66.7304C74.3389 65.2723 74.6828 63.8713 74.9784 62.5275C76.4852 63.4633 78.2545 63.8789 80.0176 63.7112C81.6155 63.5406 83.1575 63.0226 84.5366 62.193C84.6816 63.4453 84.801 64.5432 84.8862 65.4181ZM84.4599 61.5669C79.344 64.6547 75.831 62.4246 75.0807 61.9185C75.3706 60.5719 75.6093 59.2853 75.8225 58.0588C77.1972 58.5053 78.6455 58.6772 80.0858 58.5648C81.4028 58.4598 82.6808 58.0644 83.8289 57.4069C84.1103 58.8907 84.2979 60.3403 84.4599 61.5669ZM75.9333 57.4755C76.1465 56.1889 76.317 54.9538 76.4449 53.7958C77.5731 54.2109 78.7781 54.372 79.9749 54.2676C81.0931 54.1722 82.1779 53.8358 83.1553 53.2812C83.3856 54.4734 83.5817 55.6485 83.7607 56.7893C82.5779 57.4439 81.2724 57.8431 79.9275 57.9612C78.5826 58.0794 77.2281 57.914 75.9504 57.4755H75.9333ZM76.5046 53.1869C76.6154 52.089 76.7007 51.0425 76.7519 50.0561C77.7151 50.3779 78.7332 50.5005 79.7447 50.4164C80.6811 50.3325 81.587 50.0394 82.3965 49.5587C82.6267 50.5793 82.8484 51.6172 83.0445 52.6379C82.0667 53.2124 80.9739 53.5605 79.8456 53.6569C78.7173 53.7533 77.5818 53.5957 76.5217 53.1954L76.5046 53.1869ZM76.786 49.4471C76.786 48.5294 76.8371 47.6631 76.8286 46.874C77.4584 46.9892 78.1006 47.021 78.7386 46.9683C79.723 46.9015 80.6687 46.5566 81.4671 45.9734C81.7484 46.9683 82.0128 47.989 82.2515 49.0183C81.4293 49.4844 80.516 49.765 79.5752 49.8405C78.6343 49.916 77.6884 49.7848 76.803 49.4557L76.786 49.4471ZM76.8286 46.2478C76.8286 45.2271 76.7604 44.2922 76.6837 43.4345C77.1421 43.5389 77.6139 43.5707 78.082 43.5288C78.9269 43.4522 79.7377 43.1567 80.4354 42.6711C80.7338 43.5288 81.0237 44.3865 81.288 45.3215C80.6536 45.7809 79.9305 46.1015 79.1654 46.2625C78.4002 46.4236 77.61 46.4215 76.8457 46.2564L76.8286 46.2478ZM76.6325 42.8169C76.5586 42.0964 76.4733 41.436 76.3767 40.8356C76.6461 40.8621 76.9174 40.8621 77.1867 40.8356C77.974 40.7803 78.7247 40.4806 79.3354 39.9778C79.6509 40.6554 79.9408 41.3759 80.2307 42.1222C79.727 42.5071 79.1423 42.7707 78.5214 42.8926C77.9006 43.0145 77.2602 42.9916 76.6496 42.8255L76.6325 42.8169ZM76.2829 40.2437C76.155 39.5575 76.0271 38.9657 75.8992 38.4596C76.075 38.4768 76.2521 38.4768 76.4279 38.4596C77.0714 38.4153 77.6772 38.138 78.1332 37.6791C78.4891 38.232 78.8136 38.8048 79.1052 39.3946C78.7305 39.7384 78.2842 39.9938 77.7989 40.1421C77.3136 40.2905 76.8015 40.3281 76.3 40.2523L76.2829 40.2437ZM75.7287 37.8421C75.5667 37.276 75.4217 36.8557 75.3109 36.5641H75.6775C76.1298 36.5223 76.5669 36.3786 76.9565 36.1438C77.2606 36.4727 77.5453 36.8193 77.8092 37.1816C77.5545 37.4664 77.2295 37.6783 76.8671 37.7958C76.5047 37.9133 76.1178 37.9323 75.7458 37.8507L75.7287 37.8421ZM76.8457 35.5348C76.5658 35.7278 76.2505 35.8628 75.9182 35.932C75.5859 36.0012 75.2432 36.0032 74.9101 35.9379C74.3824 35.8289 73.9038 35.5512 73.5458 35.1462C73.1877 34.7412 72.9695 34.2307 72.9235 33.6907C72.8941 33.3666 72.9288 33.0399 73.0253 32.7293C73.1219 32.4187 73.2785 32.1304 73.4862 31.8809C73.6943 31.6209 73.9528 31.4063 74.246 31.25C74.5392 31.0937 74.8609 30.999 75.1915 30.9717H75.5582C75.8745 30.9877 76.1845 31.0664 76.4705 31.2033C76.8663 31.3909 77.2061 31.6798 77.456 32.0411C77.7059 32.4024 77.8571 32.8233 77.8944 33.2618C77.9377 33.6998 77.8651 34.1416 77.6839 34.5423C77.5027 34.943 77.2194 35.2884 76.8627 35.5434L76.8457 35.5348ZM79.4037 8.23328C80.4975 7.80695 81.6457 7.5384 82.8143 7.43559C84.0354 7.30792 85.2695 7.45138 86.4295 7.85587C84.6475 8.35336 80.4609 9.70858 79.4037 11.7843C79.3764 11.828 79.3619 11.8785 79.3619 11.9301C79.3619 11.9817 79.3764 12.0322 79.4037 12.0759C79.4303 12.1191 79.4683 12.1539 79.5134 12.1766C79.5586 12.1994 79.6091 12.209 79.6594 12.2046C81.023 12.2374 82.3579 12.6055 83.5476 13.2767C82.0298 13.5598 78.9176 14.3317 78.0138 16.0987C77.9891 16.1417 77.9761 16.1905 77.9761 16.2402C77.9761 16.2899 77.9891 16.3387 78.0138 16.3817C78.0401 16.4258 78.0777 16.4618 78.1228 16.486C78.1679 16.5102 78.2186 16.5216 78.2696 16.5189C79.5815 16.525 80.846 17.0131 81.8252 17.8913C80.5292 18.0028 77.6045 18.4231 76.8542 19.8555C76.8255 19.9018 76.8102 19.9553 76.8102 20.0099C76.8102 20.0645 76.8255 20.118 76.8542 20.1643C76.8847 20.2113 76.9291 20.2473 76.9812 20.2673C77.0332 20.2874 77.0903 20.2903 77.1441 20.2758C77.6761 20.1683 78.226 20.19 78.748 20.3392C79.27 20.4883 79.7491 20.7607 80.1455 21.1335C79.3249 21.1481 78.5219 21.3751 77.8139 21.7928C77.106 22.2105 76.517 22.8047 76.1039 23.518C76.0768 23.5634 76.0625 23.6152 76.0625 23.6681C76.0625 23.721 76.0768 23.7729 76.1039 23.8182C76.1332 23.8628 76.1742 23.8983 76.2224 23.921C76.2705 23.9437 76.3239 23.9527 76.3767 23.9469C77.1825 23.8909 77.9886 24.0507 78.713 24.41C77.2647 25.819 76.1639 27.5491 75.4985 29.4621C74.8931 25.345 73.0002 11.4927 79.4719 8.24186L79.4037 8.23328ZM68.5152 24.959C69.2048 24.1356 70.108 23.521 71.1243 23.1835C71.1755 23.1688 71.2217 23.1402 71.2578 23.1009C71.2939 23.0615 71.3185 23.013 71.329 22.9605C71.3373 22.9077 71.3313 22.8535 71.3118 22.8038C71.2924 22.754 71.26 22.7104 71.2181 22.6774C70.3742 22.041 69.3804 21.636 68.3341 21.5022C67.2878 21.3684 66.2249 21.5103 65.2495 21.9141C65.9402 19.7697 68.3703 19.3409 68.4811 19.2894C68.5356 19.2824 68.5868 19.259 68.6279 19.2223C68.6689 19.1855 68.698 19.1372 68.7113 19.0835C68.7239 19.0296 68.7218 18.9733 68.7053 18.9205C68.6888 18.8677 68.6585 18.8203 68.6175 18.7833C67.0316 17.4453 63.2543 18.4831 61.7963 18.9549C62.5101 17.3638 63.7999 16.1063 65.403 15.4382C65.4515 15.4217 65.4946 15.3922 65.5276 15.3529C65.5607 15.3136 65.5825 15.266 65.5906 15.2152C65.5993 15.1652 65.5953 15.1138 65.5789 15.0658C65.5625 15.0178 65.5342 14.9748 65.4968 14.9407C63.5527 13.2682 59.3236 13.9801 57.533 14.3832C58.6349 12.9358 60.0843 11.7936 61.7451 11.0638C61.7931 11.0465 61.8357 11.0168 61.8687 10.9776C61.9016 10.9384 61.9237 10.8913 61.9327 10.8408C61.9431 10.7908 61.9399 10.7389 61.9234 10.6905C61.9069 10.6422 61.8777 10.5993 61.8389 10.5663C59.5282 8.61068 53.7387 9.13388 51.607 9.39978C54.8301 6.26049 60.1336 6.27766 60.1848 6.27766C69.4958 6.99815 73.904 24.796 74.9101 29.5393C73.1926 27.5159 71.0088 25.9463 68.5493 24.9676L68.5152 24.959ZM68.3873 32.893C68.161 32.0504 68.161 31.1624 68.3873 30.3198C68.4032 30.2689 68.4044 30.2144 68.3908 30.1628C68.3772 30.1112 68.3494 30.0646 68.3106 30.0282C68.2735 29.9906 68.2267 29.9642 68.1754 29.9521C68.1242 29.94 68.0705 29.9425 68.0207 29.9595C67.1942 30.2558 66.4574 30.761 65.881 31.4264C65.3046 32.0918 64.9081 32.8952 64.7294 33.7593C64.4137 33.2595 64.2233 32.6902 64.1743 32.1001C64.1252 31.51 64.2192 30.9168 64.448 30.3713C64.477 30.3266 64.4925 30.2745 64.4925 30.2212C64.4925 30.1679 64.477 30.1157 64.448 30.071C64.4115 30.0298 64.364 29.9998 64.3112 29.9846C64.2584 29.9694 64.2023 29.9696 64.1496 29.9853C62.4955 30.4742 61.4723 33.5191 61.1056 34.8315C60.367 33.6152 60.1056 32.1656 60.3723 30.7658C60.3829 30.7165 60.3806 30.6654 60.3657 30.6173C60.3507 30.5692 60.3237 30.5258 60.2871 30.4914C60.2519 30.4536 60.2065 30.427 60.1566 30.4148C60.1066 30.4027 60.0542 30.4054 60.0057 30.4227C57.9764 31.0146 56.5354 34.1967 55.9556 35.7149C55.4864 34.3072 55.3664 32.8055 55.606 31.3405C55.6201 31.2908 55.6205 31.2381 55.6069 31.1882C55.5934 31.1383 55.5665 31.0931 55.5293 31.0574C55.4929 31.0214 55.4476 30.996 55.398 30.9839C55.3485 30.9718 55.2966 30.9735 55.2479 30.9888C52.8519 31.7093 50.5838 35.8779 49.7226 37.6191C49.1002 33.9394 51.5047 30.2855 51.5217 30.2598C52.9713 28.3727 55.299 27.5236 57.9593 27.292C63.9705 26.7774 71.6018 29.4535 74.4241 30.5256C72.2528 30.8186 70.1828 31.6303 68.3873 32.893ZM73.3327 31.3062L73.1878 31.4434H72.932L73.3327 31.3062ZM70.2376 34.7371C70.2096 34.4075 70.2465 34.0756 70.3462 33.7604C70.446 33.4452 70.6066 33.1529 70.8189 32.9003C71.0312 32.6477 71.291 32.4397 71.5834 32.2883C71.8758 32.137 72.195 32.0451 72.5227 32.0181H72.7785V32.061C72.7785 32.1039 72.7359 32.1553 72.7103 32.1982C72.652 32.3151 72.6007 32.4354 72.5568 32.5585L72.5056 32.7386C72.4711 32.8595 72.4455 32.9828 72.4289 33.1074V33.2704C72.4119 33.4558 72.4119 33.6425 72.4289 33.8279C72.442 33.9841 72.4677 34.139 72.5056 34.2911C72.5056 34.3426 72.5057 34.394 72.5483 34.4455L72.6506 34.7371L72.7273 34.9001C72.7677 34.9857 72.8133 35.0688 72.8638 35.1488L72.9661 35.3118C73.0153 35.3868 73.0694 35.4585 73.1281 35.5262L73.256 35.672C73.317 35.742 73.3825 35.8079 73.4521 35.8693L73.597 35.9894C73.6701 36.0513 73.7471 36.1086 73.8273 36.1609L73.9722 36.2553C74.0951 36.3256 74.2234 36.3858 74.3559 36.4354C73.9619 36.7721 73.4728 36.9761 72.9575 37.0187C72.6234 37.0503 72.2864 37.0142 71.9664 36.9124C71.6464 36.8106 71.35 36.6452 71.0948 36.4261C70.8395 36.2069 70.6306 35.9384 70.4804 35.6365C70.3302 35.3346 70.2419 35.0054 70.2205 34.6685L70.2376 34.7371ZM95.0925 72.7259C95.3102 73.282 95.3966 73.8813 95.3448 74.4767C95.293 75.0721 95.1045 75.6472 94.7941 76.1568C93.6771 78.1125 90.3006 80.6256 80.5803 81.4662C68.6431 82.4869 65.3775 79.502 64.4822 77.6235C64.1821 77.0383 64.0429 76.3831 64.0788 75.7257C64.1148 75.0682 64.3247 74.4324 64.6868 73.8839C65.1878 73.3108 65.6016 72.6662 65.9146 71.9711C66.7673 70.2557 67.6626 68.4887 73.4265 66.6789C73.3157 67.1164 73.1963 67.5367 73.0769 67.9998C72.9362 68.5157 72.9484 69.0616 73.112 69.5706C73.2756 70.0795 73.5835 70.5293 73.9978 70.8646C74.8501 71.5482 75.828 72.056 76.8755 72.3592C77.9231 72.6624 79.0197 72.7549 80.1028 72.6316C80.7651 72.5748 81.418 72.4366 82.0469 72.2199C83.0128 71.9141 83.8707 71.3349 84.5179 70.5515C85.1651 69.7681 85.5742 68.8137 85.6962 67.8026V67.7425C85.6962 67.5624 85.6195 66.6703 85.4831 65.2894C87.5613 65.6284 89.5242 66.4783 91.1975 67.7636C92.8709 69.0489 94.2029 70.7298 95.0755 72.6573L95.0925 72.7259ZM80.7167 33.0988C80.7448 33.4277 80.7082 33.759 80.6089 34.0737C80.5097 34.3884 80.3498 34.6803 80.1384 34.9328C79.927 35.1853 79.6682 35.3934 79.3768 35.5453C79.0854 35.6971 78.7671 35.7898 78.4401 35.8178C78.1541 35.8457 77.8655 35.8224 77.5875 35.7492C77.6387 35.7063 77.6728 35.6549 77.7239 35.6034L77.7921 35.5262C77.8689 35.4319 77.9456 35.3289 78.0138 35.226C78.0735 35.1317 78.1247 35.0287 78.1758 34.9344L78.227 34.8229C78.227 34.7457 78.2867 34.6685 78.3123 34.5827C78.3378 34.4969 78.3122 34.4969 78.3549 34.4541C78.3798 34.3753 78.3997 34.2951 78.4146 34.2139V34.0852V33.8279C78.4185 33.788 78.4185 33.7478 78.4146 33.7078C78.4231 33.5793 78.4231 33.4504 78.4146 33.3218C78.4146 33.1932 78.4146 33.0731 78.3549 32.9444C78.2952 32.8158 78.3549 32.8673 78.3549 32.8244C78.3549 32.7815 78.3122 32.6614 78.2866 32.5842L78.2355 32.447C78.2078 32.374 78.1765 32.3024 78.1417 32.2325C78.1223 32.1879 78.0995 32.1449 78.0735 32.1039C78.0735 32.0352 77.9968 31.9666 77.9541 31.898L77.8774 31.7865C77.8251 31.7065 77.7651 31.6318 77.6983 31.5635L77.6472 31.4949C77.5661 31.4077 77.4808 31.3246 77.3914 31.2461L77.2891 31.1689L77.1441 31.0489C77.3984 30.937 77.6691 30.8674 77.9456 30.843C78.5983 30.7703 79.2532 30.959 79.7686 31.3684C80.284 31.7777 80.6185 32.3747 80.6997 33.0302L80.7167 33.0988ZM96.525 22.8061C96.4748 22.8107 96.4265 22.8281 96.3847 22.8566C96.343 22.8851 96.3091 22.9238 96.2863 22.9691C96.2616 23.0137 96.2487 23.0639 96.2487 23.1149C96.2487 23.1659 96.2616 23.2161 96.2863 23.2607C97.1392 24.691 97.6255 26.312 97.7017 27.9782C96.5335 26.6916 93.7539 23.9469 91.4176 24.1527C91.3681 24.1563 91.3205 24.1733 91.28 24.202C91.2394 24.2308 91.2074 24.27 91.1874 24.3157C91.1627 24.3603 91.1498 24.4105 91.1498 24.4615C91.1498 24.5125 91.1627 24.5627 91.1874 24.6073C92.0244 25.9629 92.3285 27.584 92.04 29.1533C91.1874 27.9868 88.8681 25.2163 86.9667 25.3879C86.9113 25.3903 86.858 25.4097 86.8138 25.4434C86.7696 25.4771 86.7367 25.5236 86.7194 25.5766C86.6984 25.6275 86.6937 25.6838 86.7059 25.7376C86.7182 25.7914 86.7467 25.84 86.7876 25.8768C87.2501 26.3525 87.5885 26.9357 87.773 27.5746C87.9574 28.2135 87.9822 28.8884 87.845 29.5393C87.3154 28.7257 86.5876 28.0621 85.7309 27.6117C84.8741 27.1612 83.917 26.939 82.9507 26.9661C82.8968 26.9695 82.8448 26.9872 82.7999 27.0173C82.755 27.0474 82.7188 27.0889 82.6949 27.1376C82.674 27.1868 82.6668 27.2408 82.6744 27.2937C82.6819 27.3467 82.7037 27.3965 82.7375 27.4378C83.3216 28.2285 83.6758 29.1669 83.7607 30.1482C82.173 29.7501 80.5302 29.6225 78.9006 29.7708C78.1109 29.8441 77.3274 29.9731 76.5558 30.1568C79.9664 27.0261 92.6284 16.0643 99.9953 20.4988C100.038 20.4988 104.037 23.3379 104.83 27.4207C103.346 25.9625 99.2791 22.523 96.525 22.7632V22.8061Z" fill="#999999"/>
</svg>
