<svg width="19" height="20" viewBox="0 0 19 20" fill="none" xmlns="http://www.w3.org/2000/svg">
<path d="M1.64111 5.61085C1.79426 5.41411 1.99595 5.1478 2.15747 4.95746C2.6412 4.43282 2.70397 4.36404 3.14417 3.97616C3.27473 3.87379 3.42956 3.75063 3.58103 3.63467C2.46378 4.53839 2.32151 5.53888 3.3467 6.15708C3.34503 6.15708 3.34503 6.15708 3.34503 6.15868C4.77863 6.98403 7.92034 6.80568 10.3992 5.74841C12.8003 4.72473 13.6865 3.26038 12.5015 2.39025C11.4612 2.20391 10.221 2.18232 8.90871 2.35027L8.7723 2.13513L8.88528 1.77844C9.6569 1.71206 10.39 1.72806 11.0227 1.83123C11.1759 1.85602 11.3776 1.89841 11.5282 1.9288C11.8194 1.99678 11.9776 2.03756 12.1676 2.09595C12.3617 2.15113 12.5274 2.20631 12.8162 2.30868C13.099 2.41505 13.2212 2.46303 13.448 2.571C13.702 2.68173 13.9488 2.80699 14.187 2.94608C16.0751 4.08093 14.9009 6.15149 11.5692 7.57025C8.24673 8.98421 4.01287 9.20654 2.11563 8.08529C2.11479 8.08369 2.11228 8.08209 2.10726 8.08049H2.11061C1.07453 7.45348 0.965735 6.54336 1.64111 5.61085ZM10.2854 13.5444L10.2586 12.2696L9.31042 11.2619C6.17792 11.9401 3.09898 11.7945 1.38669 10.8308C1.38084 10.8244 1.36661 10.818 1.36075 10.8116C0.391624 10.2414 0.152272 9.50564 0.225082 8.70589C-0.00171646 9.87593 -0.0201282 10.2982 0.0125108 11.2995C0.0526817 11.9265 0.431795 12.5047 1.19421 12.9606L1.20007 12.967C3.02533 14.0514 6.82819 14.2866 10.2854 13.5444ZM14.2397 15.0039C9.81842 16.6986 4.28486 16.7986 1.8813 15.2303C2.14087 15.8365 2.49406 16.402 2.92909 16.9081C5.13515 18.3477 10.2143 18.2557 14.2707 16.7002C16.645 15.7909 18.143 14.5809 18.5364 13.4468L18.6468 13.1053C18.9088 12.24 18.9582 11.5194 19 10.878C18.9523 12.2704 17.2358 13.8539 14.2397 15.0039ZM4.47986 18.2677C4.61878 18.3941 5.05564 18.9067 7.26923 19.473C7.86761 19.5993 9.37403 20.0048 12.1567 19.4154L12.1734 19.173L11.9533 18.8435C9.37151 19.4274 6.50347 19.2322 4.47986 18.2677ZM10.8687 8.18366L13.2196 9.88633C13.2196 9.88633 13.7225 10.2326 13.248 10.4757C12.7752 10.7165 11.5608 11.3059 11.5608 11.3059L10.3616 10.878L9.75983 11.1339L10.821 12.0145L10.8294 13.3844L11.4529 13.1197L11.8663 11.9625C11.8663 11.9625 13.1359 11.4954 13.6397 11.3195C14.146 11.1475 14.0782 11.7362 14.0782 11.7362L13.8288 14.5441L14.6573 14.1922L16.0215 10.4038C16.0215 10.4038 16.7446 10.0679 17.2534 9.77276C17.7614 9.47765 17.9355 8.98821 17.9355 8.98821C17.9355 8.98821 17.44 8.78427 16.8693 8.94822C16.2985 9.11057 15.5545 9.40008 15.5545 9.40008L11.6947 7.83336L10.8687 8.18366ZM5.89505 2.79653L7.49101 4.01135L7.92703 3.94897L7.05833 2.85891C7.05833 2.85891 6.8692 2.63338 7.12361 2.57979C7.3797 2.52541 8.02746 2.39905 8.02746 2.39905L8.51453 2.77094L8.8426 2.72455L8.47101 2.15992L8.66685 1.53372L8.34966 1.57771L7.9739 2.05436C7.9739 2.05436 7.31442 2.11354 7.05499 2.13433C6.79388 2.15353 6.90602 1.88561 6.90602 1.88561L7.40648 0.599609L6.96795 0.66119L5.81303 2.26789C5.81303 2.26789 5.42806 2.33507 5.14938 2.41105C4.86985 2.48622 4.72256 2.69256 4.72256 2.69256C4.72256 2.69256 4.9276 2.85091 5.21633 2.84531C5.50757 2.83971 5.89505 2.79653 5.89505 2.79653ZM13.7828 18.4061L12.7501 17.8902L12.5124 17.9694L13.1242 18.4925C13.1242 18.4925 13.2547 18.5988 13.1175 18.6556C12.9802 18.7116 12.6304 18.8491 12.6304 18.8491L12.3417 18.726L12.1701 18.7852L12.4103 19.0299L12.3868 19.3874L12.5659 19.3282L12.6998 19.0379C12.6998 19.0379 13.0631 18.9347 13.2078 18.8979C13.3518 18.8603 13.3192 19.0219 13.3192 19.0219L13.1827 19.7937L13.4213 19.7145L13.8891 18.694C13.8891 18.694 14.0958 18.6164 14.2439 18.5452C14.3921 18.4741 14.4506 18.3429 14.4506 18.3429C14.4506 18.3429 14.3192 18.2741 14.1569 18.3085C13.9937 18.3413 13.7828 18.4061 13.7828 18.4061Z" fill="#666666"/>
</svg>
