<svg width="180" height="133" viewBox="0 0 180 133" fill="none" xmlns="http://www.w3.org/2000/svg">
<path d="M67.2399 56.1718C67.2836 56.1368 67.3189 56.0922 67.3431 56.0415C67.3673 55.9908 67.3799 55.9352 67.3799 55.8788L66.9899 48.8073L70.3599 46.7263C70.6129 46.5719 70.8331 46.3684 71.0079 46.1276C71.1827 45.8868 71.3085 45.6134 71.3783 45.3233C71.448 45.0331 71.4601 44.7319 71.4141 44.4369C71.368 44.142 71.2646 43.8591 71.1099 43.6047L69.8399 41.4934C69.5274 40.9786 69.0258 40.6099 68.4448 40.4679C67.8638 40.3259 67.2508 40.4222 66.7399 40.7357L66.5599 40.8469L65.7699 26.32L81.7699 17.9857C82.6074 17.4706 83.3356 16.793 83.9123 15.9919C84.489 15.1908 84.9029 14.2822 85.1299 13.3186L85.1899 13.0458L87.3499 9.58078C87.7078 8.99844 87.8975 8.32662 87.8975 7.64116C87.8975 6.95571 87.7078 6.28388 87.3499 5.70154C86.996 5.11342 86.4863 4.63711 85.8784 4.32646C85.2704 4.01582 84.5886 3.88325 83.9099 3.94378L79.9099 4.29736C78.9187 4.01179 77.8795 3.93797 76.8585 4.0806C75.8375 4.22322 74.8572 4.57917 73.9799 5.12574L59.2399 15.6421L46.8199 8.28768L46.9999 8.17657C47.5095 7.86088 47.8745 7.35411 48.015 6.76718C48.1556 6.18026 48.0603 5.56099 47.7499 5.04491L46.4799 2.93356C46.1656 2.42087 45.664 2.05388 45.0838 1.91207C44.5036 1.77026 43.8914 1.86505 43.3799 2.1759L40.0099 4.25694L34.0099 0.680809C33.9591 0.653395 33.9025 0.639066 33.8449 0.639066C33.7873 0.639066 33.7307 0.653395 33.6799 0.680809L27.9599 3.66092C27.9056 3.69129 27.8598 3.73497 27.8266 3.78793C27.7934 3.84089 27.7739 3.90141 27.7699 3.96397C27.7551 4.02366 27.7551 4.08614 27.7699 4.14583C27.8029 4.19626 27.8475 4.23786 27.8999 4.26705L30.8399 5.92379L32.9499 8.60087L31.4299 9.54036C31.3917 9.56412 31.3585 9.59528 31.3322 9.63205C31.306 9.66882 31.2872 9.71049 31.277 9.75463C31.2668 9.79876 31.2653 9.84451 31.2727 9.88923C31.28 9.93394 31.2961 9.97674 31.3199 10.0152L31.4899 10.298L30.1699 11.1163C29.9479 11.2562 29.789 11.4783 29.7274 11.7352C29.6657 11.992 29.7061 12.2631 29.8399 12.4902L31.7299 15.6218C31.8684 15.8461 32.0883 16.0066 32.3426 16.0689C32.5968 16.1312 32.8651 16.0904 33.0899 15.9552L34.4099 15.137L34.5799 15.4198C34.6276 15.4974 34.7031 15.5534 34.7907 15.576C34.8784 15.5986 34.9712 15.5861 35.0499 15.541L37.2999 14.1469L45.9699 25.1684L33.0699 34.4421L24.6199 30.8862L20.9999 32.7651L26.6699 39.1396L24.3499 41.8571L26.7199 45.7868L30.1099 44.8473L33.1099 52.8381L36.4199 50.454L37.1599 41.2307L51.5099 33.7349L56.9599 46.7162L54.6999 48.1103C54.6237 48.1565 54.5686 48.2311 54.5461 48.3179C54.5237 48.4048 54.5358 48.497 54.5799 48.575L54.7599 48.8679L53.4299 49.6862C53.2123 49.8276 53.0574 50.0486 52.9977 50.3029C52.938 50.5572 52.9782 50.825 53.1099 51.05L54.9999 54.1817C55.1382 54.4032 55.3564 54.5618 55.6082 54.624C55.8601 54.6862 56.126 54.6471 56.3499 54.515L57.6799 53.7069L57.8499 53.9897C57.8734 54.0283 57.9043 54.0618 57.9407 54.0884C57.9771 54.1149 58.0183 54.1338 58.062 54.1442C58.1057 54.1545 58.151 54.156 58.1952 54.1486C58.2395 54.1411 58.2819 54.1249 58.3199 54.1008L59.8399 53.1715L61.2299 56.2829L61.3399 59.6873C61.3459 59.7472 61.3628 59.8054 61.3899 59.8591C61.4265 59.9127 61.4743 59.9575 61.5299 59.9904C61.5834 60.0205 61.6436 60.0362 61.7049 60.0362C61.7661 60.0362 61.8264 60.0205 61.8799 59.9904L67.2399 56.1718ZM40.7499 4.65094L43.7499 2.77193C44.1068 2.55147 44.5356 2.48296 44.9424 2.58143C45.3492 2.67991 45.7007 2.93735 45.9199 3.29726L47.1999 5.4086C47.4146 5.771 47.4794 6.20423 47.3802 6.61451C47.281 7.0248 47.0258 7.37912 46.6699 7.60074L46.1799 7.90382L43.4399 6.27737L40.7499 4.65094ZM32.8199 15.3693C32.7506 15.4109 32.668 15.4236 32.5896 15.4048C32.5112 15.3859 32.4432 15.3369 32.3999 15.2683L30.5099 12.1265C30.4882 12.0922 30.4735 12.0539 30.4668 12.0137C30.46 11.9736 30.4614 11.9325 30.4707 11.8929C30.48 11.8533 30.4972 11.816 30.5211 11.7833C30.545 11.7505 30.5752 11.7229 30.6099 11.7022L31.9299 10.8839L34.1499 14.551L32.8199 15.3693ZM35.0799 14.7733L32.1599 9.94444L33.4599 9.14637L36.9699 13.6115L35.0799 14.7733ZM37.7399 13.4903L33.8099 8.43924L31.4299 5.4086C31.4015 5.37318 31.3677 5.3425 31.3299 5.31768L28.8799 3.94378L33.8799 1.33741L42.8799 6.65114L46.0899 8.56046L58.7299 16.0461L46.5899 24.6936L37.7399 13.4903ZM67.0899 41.3418C67.4468 41.1214 67.8756 41.0529 68.2824 41.1514C68.6892 41.2499 69.0407 41.5073 69.2599 41.8672L70.5299 43.9785C70.7481 44.339 70.816 44.7722 70.7185 45.1832C70.621 45.5941 70.3662 45.9492 70.0099 46.1707L66.9499 48.0497L66.7799 44.8473L66.5999 41.6348L67.0899 41.3418ZM83.9799 4.63072C84.5334 4.57562 85.0909 4.68137 85.587 4.93549C86.083 5.18962 86.4969 5.58157 86.7799 6.06523C87.0758 6.53837 87.2329 7.08656 87.2329 7.64622C87.2329 8.20587 87.0758 8.75407 86.7799 9.2272L85.3499 11.5305L85.3499 11.4295C85.3498 11.1656 85.3297 10.9022 85.2899 10.6415C85.2996 10.5644 85.2996 10.4863 85.2899 10.4091C85.2501 10.1123 85.19 9.81864 85.1099 9.53025L85.1099 9.44945C85.0299 9.18215 84.9365 8.91915 84.8299 8.66149L84.7299 8.44932C84.6099 8.16653 84.4696 7.89303 84.3099 7.63105C84.1499 7.36839 83.9699 7.11584 83.7899 6.87339L83.6399 6.69156C83.4603 6.47653 83.2701 6.27087 83.0699 6.07534L83.0199 6.02481C82.798 5.82224 82.5642 5.63333 82.3199 5.4591L82.1399 5.32777C81.9214 5.17648 81.6943 5.03818 81.4599 4.91357C81.4356 4.89317 81.4087 4.87619 81.3799 4.86308L83.9799 4.63072ZM79.7599 4.97418C81.3901 5.45452 82.7822 6.53624 83.6599 8.00482C84.5426 9.47204 84.8494 11.22 84.5199 12.9044L84.4599 13.1872C84.0396 14.9538 82.9427 16.4797 81.4099 17.4301L65.2699 25.8553L51.6399 32.9268L30.5299 43.9583L29.6099 42.4329C32.1099 40.8839 34.6099 39.3416 37.1099 37.8061C37.3276 37.6663 37.4833 37.447 37.5447 37.1939C37.6061 36.9408 37.5683 36.6736 37.4392 36.448C37.3101 36.2224 37.0998 36.056 36.852 35.9834C36.6043 35.9108 36.3384 35.9377 36.1099 36.0585L28.5999 40.6751L27.7099 39.2002L59.4699 16.3795L59.5799 16.3088L74.2399 5.69146C75.0531 5.18739 75.9622 4.86209 76.9082 4.73677C77.8541 4.61144 78.8156 4.68891 79.7299 4.9641L79.7599 4.97418ZM22.1799 32.9672L24.7399 31.6337L32.3999 34.8563L27.2999 38.6446L27.2999 38.5638L27.2499 38.6244L22.1799 32.9672ZM27.1199 44.9887L25.2699 41.9581L27.1599 39.7457L27.9699 41.0994C27.7405 41.2414 27.5763 41.4696 27.5135 41.7339C27.4507 41.9982 27.4943 42.2769 27.6349 42.5086C27.7754 42.7404 28.0014 42.9063 28.263 42.9697C28.5246 43.0332 28.8005 42.9891 29.0299 42.8471L29.8799 44.2513L27.1199 44.9887ZM35.8799 50.0398L33.5399 51.7268L30.8499 44.6553L30.9299 44.6553L30.9299 44.5846L36.5899 41.7358L35.8799 50.0398ZM56.1099 53.8988C56.0394 53.9395 55.956 53.9507 55.8774 53.9299C55.7989 53.9091 55.7316 53.8581 55.6899 53.7877L53.7899 50.656C53.7684 50.6203 53.7541 50.5807 53.748 50.5393C53.7419 50.498 53.744 50.4559 53.7543 50.4154C53.7645 50.3749 53.7827 50.3369 53.8077 50.3036C53.8327 50.2703 53.8641 50.2425 53.8999 50.2216L55.2199 49.4135L57.4399 53.0805L56.1099 53.8988ZM58.3599 53.3028L55.4499 48.474L57.3399 47.3021L57.5599 47.787L59.6699 52.5047L58.3599 53.3028ZM62.0199 56.1516L62.0199 56.0303L60.4499 52.4946L57.8399 46.6758L52.2399 33.4319L63.7599 27.3706L65.1199 26.6534L65.9299 41.4429L66.1399 45.1403L66.7099 55.7071L62.1299 59.0004L62.0199 56.1516Z" fill="#999999"/>
<path d="M159.24 97.5905C159.284 97.5555 159.319 97.5109 159.343 97.4602C159.367 97.4095 159.38 97.3539 159.38 97.2975L158.99 90.226L162.36 88.145C162.613 87.9906 162.833 87.7871 163.008 87.5463C163.183 87.3055 163.309 87.0321 163.378 86.742C163.448 86.4518 163.46 86.1506 163.414 85.8556C163.368 85.5607 163.265 85.2778 163.11 85.0234L161.84 82.9121C161.527 82.3973 161.026 82.0286 160.445 81.8866C159.864 81.7446 159.251 81.8409 158.74 82.1544L158.56 82.2656L157.77 67.7387L173.77 59.4044C174.607 58.8893 175.336 58.2117 175.912 57.4106C176.489 56.6095 176.903 55.7009 177.13 54.7373L177.19 54.4645L179.35 50.9995C179.708 50.4171 179.897 49.7453 179.897 49.0599C179.897 48.3744 179.708 47.7026 179.35 47.1202C178.996 46.5321 178.486 46.0558 177.878 45.7452C177.27 45.4345 176.589 45.302 175.91 45.3625L171.91 45.7161C170.919 45.4305 169.88 45.3567 168.859 45.4993C167.838 45.6419 166.857 45.9979 165.98 46.5444L151.24 57.0608L138.82 49.7064L139 49.5953C139.509 49.2796 139.874 48.7728 140.015 48.1859C140.156 47.599 140.06 46.9797 139.75 46.4636L138.48 44.3523C138.166 43.8396 137.664 43.4726 137.084 43.3308C136.504 43.189 135.891 43.2838 135.38 43.5946L132.01 45.6756L126.01 42.0995C125.959 42.0721 125.902 42.0578 125.845 42.0578C125.787 42.0578 125.731 42.0721 125.68 42.0995L119.96 45.0796C119.906 45.11 119.86 45.1537 119.827 45.2066C119.793 45.2596 119.774 45.3201 119.77 45.3827C119.755 45.4424 119.755 45.5048 119.77 45.5645C119.803 45.615 119.848 45.6566 119.9 45.6858L122.84 47.3425L124.95 50.0196L123.43 50.9591C123.392 50.9828 123.358 51.014 123.332 51.0508C123.306 51.0875 123.287 51.1292 123.277 51.1733C123.267 51.2175 123.265 51.2632 123.273 51.3079C123.28 51.3526 123.296 51.3954 123.32 51.4339L123.49 51.7167L122.17 52.535C121.948 52.6749 121.789 52.8971 121.727 53.1539C121.666 53.4107 121.706 53.6818 121.84 53.9089L123.73 57.0405C123.868 57.2648 124.088 57.4253 124.343 57.4876C124.597 57.5499 124.865 57.5091 125.09 57.3739L126.41 56.5557L126.58 56.8385C126.628 56.9161 126.703 56.9721 126.791 56.9947C126.878 57.0173 126.971 57.0048 127.05 56.9597L129.3 55.5656L137.97 66.5871L125.07 75.8608L116.62 72.3049L113 74.1838L118.67 80.5583L116.35 83.2758L118.72 87.2055L122.11 86.266L125.11 94.2568L128.42 91.8727L129.16 82.6494L143.51 75.1536L148.96 88.1349L146.7 89.529C146.624 89.5752 146.569 89.6498 146.546 89.7366C146.524 89.8235 146.536 89.9157 146.58 89.9937L146.76 90.2866L145.43 91.1049C145.212 91.2463 145.057 91.4673 144.998 91.7216C144.938 91.9759 144.978 92.2437 145.11 92.4687L147 95.6004C147.138 95.8219 147.356 95.9805 147.608 96.0427C147.86 96.1049 148.126 96.0658 148.35 95.9337L149.68 95.1256L149.85 95.4084C149.873 95.447 149.904 95.4805 149.941 95.5071C149.977 95.5336 150.018 95.5525 150.062 95.5629C150.106 95.5732 150.151 95.5747 150.195 95.5673C150.239 95.5598 150.282 95.5436 150.32 95.5195L151.84 94.5902L153.23 97.7016L153.34 101.106C153.346 101.166 153.363 101.224 153.39 101.278C153.426 101.331 153.474 101.376 153.53 101.409C153.583 101.439 153.644 101.455 153.705 101.455C153.766 101.455 153.826 101.439 153.88 101.409L159.24 97.5905ZM132.75 46.0696L135.75 44.1906C136.107 43.9702 136.536 43.9017 136.942 44.0001C137.349 44.0986 137.701 44.356 137.92 44.716L139.2 46.8273C139.415 47.1897 139.479 47.6229 139.38 48.0332C139.281 48.4435 139.026 48.7978 138.67 49.0194L138.18 49.3225L135.44 47.6961L132.75 46.0696ZM124.82 56.788C124.751 56.8296 124.668 56.8423 124.59 56.8235C124.511 56.8046 124.443 56.7556 124.4 56.687L122.51 53.5452C122.488 53.5109 122.473 53.4726 122.467 53.4324C122.46 53.3923 122.461 53.3512 122.471 53.3116C122.48 53.272 122.497 53.2347 122.521 53.202C122.545 53.1692 122.575 53.1416 122.61 53.1209L123.93 52.3026L126.15 55.9697L124.82 56.788ZM127.08 56.192L124.16 51.3631L125.46 50.5651L128.97 55.0302L127.08 56.192ZM129.74 54.909L125.81 49.8579L123.43 46.8273C123.401 46.7919 123.368 46.7612 123.33 46.7364L120.88 45.3625L125.88 42.7561L134.88 48.0698L138.09 49.9792L150.73 57.4648L138.59 66.1123L129.74 54.909ZM159.09 82.7605C159.447 82.5401 159.876 82.4716 160.282 82.5701C160.689 82.6686 161.041 82.926 161.26 83.2859L162.53 85.3972C162.748 85.7577 162.816 86.1909 162.718 86.6019C162.621 87.0128 162.366 87.3679 162.01 87.5894L158.95 89.4684L158.78 86.266L158.6 83.0535L159.09 82.7605ZM175.98 46.0494C176.533 45.9943 177.091 46.1001 177.587 46.3542C178.083 46.6083 178.497 47.0003 178.78 47.4839C179.076 47.9571 179.233 48.5053 179.233 49.0649C179.233 49.6246 179.076 50.1728 178.78 50.6459L177.35 52.9492L177.35 52.8482C177.35 52.5843 177.33 52.3209 177.29 52.0602C177.3 51.9831 177.3 51.905 177.29 51.8278C177.25 51.531 177.19 51.2373 177.11 50.949L177.11 50.8682C177.03 50.6008 176.936 50.3379 176.83 50.0802L176.73 49.868C176.61 49.5852 176.47 49.3117 176.31 49.0498C176.15 48.7871 175.97 48.5345 175.79 48.2921L175.64 48.1103C175.46 47.8952 175.27 47.6896 175.07 47.494L175.02 47.4435C174.798 47.2409 174.564 47.052 174.32 46.8778L174.14 46.7465C173.921 46.5952 173.694 46.4569 173.46 46.3323C173.436 46.3119 173.409 46.2949 173.38 46.2818L175.98 46.0494ZM171.76 46.3929C173.39 46.8732 174.782 47.9549 175.66 49.4235C176.543 50.8907 176.849 52.6387 176.52 54.3231L176.46 54.6059C176.04 56.3725 174.943 57.8984 173.41 58.8488L157.27 67.274L143.64 74.3455L122.53 85.377L121.61 83.8516C124.11 82.3026 126.61 80.7603 129.11 79.2248C129.328 79.085 129.483 78.8657 129.545 78.6126C129.606 78.3595 129.568 78.0923 129.439 77.8667C129.31 77.6411 129.1 77.4747 128.852 77.4021C128.604 77.3295 128.338 77.3564 128.11 77.4772L120.6 82.0938L119.71 80.6189L151.47 57.7982L151.58 57.7275L166.24 47.1102C167.053 46.6061 167.962 46.2808 168.908 46.1555C169.854 46.0301 170.816 46.1076 171.73 46.3828L171.76 46.3929ZM114.18 74.3859L116.74 73.0524L124.4 76.275L119.3 80.0633L119.3 79.9825L119.25 80.0431L114.18 74.3859ZM119.12 86.4074L117.27 83.3768L119.16 81.1644L119.97 82.5181C119.74 82.6601 119.576 82.8883 119.513 83.1526C119.451 83.4169 119.494 83.6956 119.635 83.9273C119.775 84.1591 120.001 84.325 120.263 84.3884C120.525 84.4519 120.8 84.4078 121.03 84.2658L121.88 85.67L119.12 86.4074ZM127.88 91.4585L125.54 93.1455L122.85 86.074L122.93 86.074L122.93 86.0034L128.59 83.1545L127.88 91.4585ZM148.11 95.3175C148.039 95.3582 147.956 95.3694 147.877 95.3486C147.799 95.3278 147.732 95.2768 147.69 95.2064L145.79 92.0747C145.768 92.039 145.754 91.9994 145.748 91.958C145.742 91.9167 145.744 91.8746 145.754 91.8341C145.765 91.7936 145.783 91.7556 145.808 91.7223C145.833 91.6891 145.864 91.6612 145.9 91.6403L147.22 90.8322L149.44 94.4992L148.11 95.3175ZM150.36 94.7215L147.45 89.8927L149.34 88.7208L149.56 89.2057L151.67 93.9234L150.36 94.7215ZM154.02 97.5703L154.02 97.449L152.45 93.9133L149.84 88.0945L144.24 74.8506L155.76 68.7893L157.12 68.0721L157.93 82.8616L158.14 86.559L158.71 97.1258L154.13 100.419L154.02 97.5703Z" fill="#999999"/>
<path d="M10.0145 92.8617L9.81 92.0908C9.79888 92.049 9.79619 92.0053 9.8021 91.9624C9.80802 91.9195 9.82241 91.8782 9.84441 91.8411C9.86643 91.8039 9.89561 91.7716 9.93022 91.746C9.96484 91.7204 10.0042 91.7022 10.0459 91.6923C10.0873 91.681 10.1306 91.6784 10.173 91.6843C10.2155 91.6903 10.2563 91.7048 10.2931 91.7271C10.3299 91.7493 10.3619 91.7788 10.3872 91.8137C10.4126 91.8487 10.4306 91.8885 10.4404 91.9306C10.6087 92.5649 10.7743 93.1894 10.9374 93.8041C10.9623 93.8872 10.9541 93.9768 10.9146 94.0539C10.8751 94.131 10.8074 94.1895 10.7259 94.217C10.6421 94.2398 10.5528 94.2294 10.4764 94.1879C10.3999 94.1463 10.3421 94.0769 10.3147 93.9936L10.0145 92.8617ZM9.41742 90.2204C9.24918 89.5862 9.18721 88.9231 9.09625 88.268C9.0901 88.2255 9.09237 88.1823 9.10293 88.1408C9.11349 88.0992 9.13211 88.0602 9.15774 88.0261C9.18335 87.9919 9.21544 87.9632 9.25215 87.9416C9.28885 87.9201 9.32943 87.9062 9.37151 87.9006C9.41352 87.8944 9.45631 87.8967 9.49742 87.9074C9.53853 87.918 9.57713 87.9369 9.61097 87.9627C9.64481 87.9886 9.67322 88.021 9.69454 88.0581C9.71586 88.0952 9.72966 88.1362 9.73515 88.1787C9.82352 88.8241 9.93121 89.4643 10.0556 90.0895C10.0704 90.1752 10.0515 90.2634 10.0028 90.3352C9.95418 90.407 9.87966 90.4567 9.7952 90.4738C9.75392 90.4823 9.71138 90.4825 9.67003 90.4743C9.62868 90.4662 9.58933 90.4499 9.55423 90.4264C9.51913 90.4028 9.48898 90.3725 9.4655 90.3372C9.44203 90.3018 9.42567 90.2621 9.41742 90.2204ZM10.9212 95.8898C10.8996 95.8109 10.9076 95.7267 10.9435 95.6534C10.9794 95.58 11.0407 95.5225 11.1159 95.4919C11.1975 95.464 11.2866 95.4695 11.3643 95.5071C11.442 95.5447 11.502 95.6115 11.5316 95.6932C11.7119 96.1778 11.8967 96.6402 12.1085 97.1267L12.2552 97.4844C12.2729 97.5236 12.2827 97.566 12.284 97.6091C12.2853 97.6522 12.2781 97.6951 12.2627 97.7354C12.2473 97.7756 12.2241 97.8123 12.1945 97.8433C12.1648 97.8744 12.1294 97.8991 12.0901 97.9161C12.0125 97.949 11.9251 97.9498 11.8469 97.9181C11.7687 97.8864 11.706 97.8248 11.6725 97.7467L11.5162 97.3916C11.3069 96.9149 11.1222 96.4524 10.9289 95.9191L10.9212 95.8898ZM8.82666 86.3538L8.81371 86.305C8.7569 85.6615 8.7046 84.9959 8.67418 84.3348C8.67137 84.2493 8.70118 84.166 8.75746 84.1021C8.81372 84.0382 8.89215 83.9986 8.97652 83.9915C9.01972 83.9884 9.06311 83.9942 9.10402 84.0086C9.14493 84.0229 9.18253 84.0455 9.21455 84.075C9.24657 84.1045 9.27233 84.1402 9.29027 84.18C9.30822 84.2198 9.31796 84.2629 9.31894 84.3067C9.35643 84.9554 9.39391 85.6041 9.46037 86.245C9.46784 86.3304 9.4415 86.4152 9.3871 86.4809C9.33271 86.5466 9.25472 86.5878 9.17027 86.5955C9.10021 86.5916 9.03335 86.5646 8.97999 86.5185C8.92662 86.4725 8.88973 86.4101 8.87495 86.3408L8.82666 86.3538ZM12.4798 99.463C12.4616 99.3908 12.4687 99.3145 12.4999 99.247C12.531 99.1795 12.5843 99.125 12.6507 99.0925C12.6881 99.0717 12.7293 99.0589 12.7719 99.055C12.8144 99.051 12.8573 99.056 12.8978 99.0696C12.9383 99.0832 12.9757 99.1051 13.0074 99.1339C13.0392 99.1627 13.0647 99.1979 13.0824 99.2371C13.3659 99.7984 13.6738 100.374 14.0011 100.944C14.0218 100.981 14.0351 101.022 14.0402 101.064C14.0453 101.106 14.0421 101.149 14.0309 101.19C14.0196 101.231 14.0005 101.269 13.9746 101.303C13.9486 101.336 13.9165 101.364 13.8798 101.385C13.8048 101.428 13.7161 101.439 13.6327 101.417C13.5494 101.394 13.478 101.34 13.4339 101.265C13.1067 100.695 12.7962 100.109 12.5075 99.5287L12.4798 99.463ZM8.62814 82.4438L8.60744 82.3657C8.61118 81.7163 8.61232 81.0571 8.64245 80.3901C8.64599 80.3046 8.68293 80.224 8.74516 80.166C8.80739 80.108 8.88984 80.0773 8.97445 80.0805C9.01678 80.0809 9.05859 80.0901 9.09728 80.1074C9.13598 80.1248 9.17074 80.1499 9.19944 80.1813C9.22815 80.2128 9.25018 80.2498 9.26418 80.2901C9.27818 80.3305 9.28385 80.3733 9.28084 80.416C9.26744 81.068 9.25403 81.7201 9.25736 82.3571C9.25917 82.4 9.25225 82.4427 9.23703 82.4828C9.22181 82.5228 9.19861 82.5592 9.16888 82.5898C9.13914 82.6204 9.1035 82.6446 9.06416 82.6607C9.02482 82.6768 8.98262 82.6846 8.94018 82.6835C8.87547 82.6748 8.81513 82.6457 8.76777 82.6003C8.72041 82.5549 8.68843 82.4956 8.67642 82.4307L8.62814 82.4438ZM14.4014 102.844C14.3844 102.776 14.3889 102.704 14.4144 102.639C14.4399 102.574 14.485 102.519 14.5433 102.481C14.615 102.436 14.7016 102.421 14.7842 102.439C14.8668 102.458 14.9387 102.509 14.9841 102.582C15.3255 103.127 15.6862 103.667 16.0637 104.193C16.1106 104.265 16.129 104.352 16.1151 104.437C16.1012 104.522 16.0562 104.599 15.9888 104.652C15.9169 104.702 15.8284 104.721 15.7427 104.705C15.657 104.689 15.581 104.639 15.5314 104.567C15.1539 104.042 14.788 103.482 14.4466 102.936L14.4014 102.844ZM8.76649 78.5158L8.73802 78.4085C8.79265 77.7557 8.85692 77.1003 8.93344 76.4521C8.93807 76.4094 8.95109 76.368 8.97174 76.3304C8.99238 76.2928 9.02023 76.2598 9.05367 76.2332C9.08711 76.2066 9.12545 76.187 9.16647 76.1756C9.20749 76.1642 9.25036 76.1611 9.29256 76.1667C9.33486 76.1713 9.3758 76.1845 9.413 76.2053C9.45021 76.2262 9.48292 76.2543 9.50923 76.2881C9.53554 76.3219 9.55492 76.3606 9.56624 76.402C9.57754 76.4435 9.58057 76.4868 9.57512 76.5294C9.496 77.1679 9.42913 77.8135 9.38417 78.4636C9.37646 78.5488 9.33562 78.6275 9.2706 78.6823C9.20558 78.7372 9.12169 78.7638 9.03731 78.7562C8.98356 78.7406 8.93498 78.7107 8.89671 78.6695C8.85844 78.6283 8.83192 78.5774 8.81995 78.5222L8.76649 78.5158ZM16.6449 106.033C16.6296 105.972 16.6314 105.907 16.6501 105.847C16.6688 105.786 16.7036 105.732 16.7508 105.691C16.7858 105.649 16.8304 105.617 16.8808 105.596C16.9311 105.576 16.9855 105.569 17.0393 105.575C17.0931 105.581 17.1446 105.6 17.1892 105.631C17.2338 105.662 17.2702 105.704 17.2952 105.752C17.6868 106.253 18.0906 106.761 18.5112 107.254C18.5391 107.286 18.5603 107.323 18.5737 107.364C18.5871 107.404 18.5924 107.447 18.5893 107.49C18.5862 107.533 18.5747 107.574 18.5555 107.612C18.5364 107.651 18.5099 107.685 18.4776 107.712C18.4121 107.767 18.3284 107.794 18.2438 107.787C18.1592 107.781 18.0803 107.742 18.0234 107.678C17.6003 107.176 17.1842 106.661 16.7803 106.153L16.6449 106.033ZM9.23533 74.6238C9.21507 74.5845 9.20358 74.5412 9.20168 74.497C9.30978 73.8506 9.42754 73.2017 9.55754 72.56C9.56519 72.5179 9.58104 72.4777 9.60417 72.4418C9.62729 72.406 9.65724 72.3751 9.69227 72.3511C9.72729 72.327 9.76671 72.3102 9.80821 72.3016C9.84972 72.2931 9.8925 72.2929 9.93406 72.3011C10.0194 72.3185 10.0945 72.3693 10.143 72.4424C10.1915 72.5154 10.2094 72.6049 10.1928 72.6913C10.0602 73.3233 9.93989 73.9625 9.83887 74.5964C9.83308 74.6385 9.81914 74.6791 9.79782 74.7157C9.77651 74.7524 9.74824 74.7845 9.71465 74.8101C9.68105 74.8357 9.64277 74.8543 9.60203 74.865C9.56128 74.8756 9.51886 74.8781 9.47718 74.8721C9.42886 74.8501 9.38651 74.8166 9.35372 74.7745C9.32092 74.7324 9.29866 74.6829 9.2888 74.6303L9.23533 74.6238ZM19.1806 108.997C19.1655 108.942 19.1651 108.883 19.1795 108.828C19.1939 108.773 19.2226 108.722 19.2627 108.682C19.2933 108.651 19.3296 108.628 19.3694 108.612C19.4092 108.596 19.4517 108.589 19.4945 108.59C19.5373 108.591 19.5794 108.601 19.6183 108.618C19.6573 108.636 19.6923 108.662 19.7213 108.693C20.1657 109.159 20.6198 109.622 21.1169 110.052C21.1768 110.114 21.2112 110.197 21.2131 110.284C21.215 110.37 21.1843 110.455 21.1271 110.52C21.0979 110.55 21.063 110.575 21.0243 110.592C20.9857 110.609 20.9441 110.618 20.902 110.619C20.8598 110.619 20.818 110.612 20.7788 110.596C20.7396 110.58 20.7039 110.557 20.6736 110.527C20.2029 110.08 19.7463 109.607 19.2677 109.13C19.2367 109.096 19.2122 109.057 19.1954 109.014L19.1806 108.997ZM10.0109 70.7953C9.98284 70.7482 9.96849 70.6941 9.96945 70.6391C10.131 69.9993 10.2952 69.3691 10.498 68.7286C10.525 68.6462 10.5819 68.5771 10.6573 68.5354C10.7326 68.4936 10.8208 68.4823 10.9042 68.5036C10.9858 68.5309 11.0541 68.5884 11.0954 68.6645C11.1367 68.7407 11.148 68.8298 11.1269 68.9139C10.9408 69.5395 10.7741 70.1599 10.5906 70.7952C10.5812 70.8373 10.5635 70.8771 10.5385 70.9123C10.5136 70.9474 10.482 70.9771 10.4455 70.9996C10.409 71.0222 10.3684 71.0371 10.3261 71.0436C10.2838 71.05 10.2407 71.0478 10.1992 71.0371C10.1655 71.0065 10.1387 70.9689 10.1204 70.927C10.1021 70.885 10.0929 70.8397 10.0933 70.7938L10.0109 70.7953ZM21.9692 111.704C21.9563 111.651 21.9564 111.596 21.9694 111.543C21.9825 111.49 22.0082 111.441 22.0442 111.401C22.103 111.339 22.1827 111.302 22.2674 111.296C22.3522 111.291 22.4359 111.317 22.5021 111.371C22.9774 111.797 23.4816 112.215 23.9806 112.613C24.0454 112.668 24.0866 112.747 24.0957 112.832C24.1048 112.917 24.0811 113.002 24.0295 113.07C24.0039 113.104 23.9719 113.133 23.9353 113.154C23.8988 113.175 23.8584 113.189 23.8166 113.194C23.7747 113.2 23.7322 113.197 23.6915 113.186C23.6508 113.175 23.6126 113.155 23.5793 113.129C23.068 112.724 22.5612 112.296 22.0737 111.864C22.03 111.826 21.9987 111.776 21.984 111.721L21.9692 111.704ZM11.1511 67.0144C11.1356 66.9509 11.1396 66.8842 11.1624 66.8231C11.3704 66.202 11.6003 65.5855 11.8327 64.9787C11.8474 64.9373 11.8703 64.8993 11.9001 64.8672C11.9298 64.835 11.9657 64.8093 12.0056 64.7916C12.0455 64.774 12.0886 64.7648 12.1321 64.7645C12.1757 64.7642 12.2188 64.773 12.2589 64.7901C12.298 64.8063 12.3335 64.83 12.3634 64.8601C12.3934 64.8901 12.4171 64.9259 12.4334 64.9652C12.4496 65.0046 12.4579 65.0468 12.4579 65.0894C12.4579 65.132 12.4496 65.1742 12.4334 65.2136C12.2009 65.8203 11.9677 66.3855 11.7798 67.0429C11.7491 67.1232 11.6889 67.1884 11.6118 67.2249C11.5346 67.2614 11.4465 67.2663 11.3658 67.2387C11.3184 67.2229 11.2755 67.1958 11.2407 67.1597C11.2059 67.1236 11.1802 67.0796 11.1659 67.0313L11.1511 67.0144ZM25.0633 114.119C25.0516 114.072 25.0501 114.023 25.0589 113.975C25.0678 113.928 25.0867 113.883 25.1145 113.843C25.1394 113.809 25.1708 113.78 25.2067 113.758C25.2427 113.736 25.2826 113.722 25.3242 113.715C25.3658 113.709 25.4082 113.711 25.449 113.721C25.4899 113.731 25.5283 113.749 25.5621 113.774C26.0727 114.138 26.6227 114.533 27.1545 114.86C27.2283 114.904 27.282 114.976 27.3042 115.06C27.3264 115.144 27.3154 115.233 27.2736 115.309C27.2527 115.347 27.2245 115.38 27.1907 115.407C27.1569 115.433 27.1181 115.453 27.0766 115.464C27.0352 115.475 26.9919 115.478 26.9494 115.472C26.9069 115.466 26.866 115.451 26.8292 115.429C26.28 115.076 25.73 114.681 25.2124 114.329C25.1734 114.305 25.1397 114.273 25.1136 114.235C25.0875 114.197 25.0695 114.154 25.0607 114.109L25.0633 114.119ZM12.5748 63.366C12.5551 63.2951 12.5607 63.2196 12.5907 63.1525C12.8547 62.5476 13.1432 61.9571 13.4221 61.3691C13.4429 61.3312 13.4711 61.298 13.505 61.2713C13.5388 61.2446 13.5776 61.2251 13.619 61.2138C13.6605 61.2026 13.7038 61.1999 13.7463 61.206C13.7888 61.212 13.8296 61.2266 13.8664 61.2489C13.9391 61.2918 13.9922 61.362 14.014 61.4442C14.0358 61.5264 14.0246 61.614 13.9829 61.688C13.7014 62.2662 13.4303 62.8834 13.1585 63.4589C13.116 63.5324 13.0465 63.586 12.9651 63.608C12.8838 63.63 12.7971 63.6187 12.7239 63.5766C12.6883 63.5563 12.6571 63.5289 12.6324 63.496C12.6077 63.4632 12.5898 63.4255 12.58 63.3855L12.5748 63.366ZM28.3614 116.248C28.3445 116.163 28.3576 116.074 28.3984 115.998C28.4441 115.925 28.5151 115.873 28.5974 115.85C28.6797 115.828 28.7672 115.838 28.8428 115.878C29.3939 116.199 29.9643 116.515 30.5296 116.812C30.6023 116.855 30.6554 116.925 30.6772 117.007C30.699 117.09 30.6878 117.177 30.6461 117.251C30.6018 117.323 30.5324 117.375 30.4517 117.396C30.371 117.418 30.2852 117.408 30.2114 117.369C29.6242 117.067 29.0151 116.762 28.4904 116.423C28.4298 116.38 28.3845 116.319 28.3614 116.248ZM14.3505 59.8733C14.3295 59.79 14.3392 59.7019 14.3779 59.6253C14.7006 59.0464 15.0355 58.4746 15.3756 57.9224C15.4196 57.8479 15.4906 57.7936 15.5736 57.7712C15.6566 57.7487 15.7449 57.7598 15.8199 57.8021C15.8927 57.8451 15.9457 57.9153 15.9675 57.9975C15.9893 58.0797 15.9781 58.1673 15.9364 58.2413C15.606 58.7909 15.2781 59.3503 14.9625 59.9168C14.9185 59.9913 14.8475 60.0456 14.7645 60.068C14.6815 60.0905 14.5932 60.0794 14.5182 60.0371C14.4747 60.0285 14.4337 60.0103 14.398 59.9838C14.3623 59.9572 14.3329 59.9231 14.3118 59.8837L14.3505 59.8733ZM31.8451 118.025C31.824 117.951 31.8287 117.872 31.8584 117.801C31.9024 117.727 31.9734 117.673 32.0564 117.65C32.1394 117.628 32.2277 117.639 32.3027 117.681C32.8796 117.943 33.4757 118.2 34.0738 118.425C34.1521 118.458 34.2149 118.52 34.2492 118.599C34.2834 118.677 34.2865 118.766 34.2578 118.846C34.244 118.887 34.2219 118.925 34.193 118.956C34.1641 118.988 34.129 119.014 34.0898 119.031C34.0507 119.049 34.0084 119.058 33.9656 119.058C33.9229 119.058 33.8805 119.049 33.8413 119.032C33.231 118.8 32.6735 118.533 32.0361 118.276C31.9758 118.265 31.9197 118.238 31.874 118.197C31.8284 118.155 31.795 118.102 31.7775 118.043L31.8451 118.025ZM16.4368 56.537C16.4219 56.4915 16.4179 56.443 16.4251 56.3956C16.4323 56.3482 16.4506 56.3032 16.4784 56.2643C16.8526 55.7238 17.2295 55.1929 17.6282 54.6667C17.6539 54.6328 17.6859 54.6044 17.7224 54.5831C17.759 54.5618 17.7993 54.548 17.8412 54.5425C17.883 54.537 17.9255 54.5399 17.9662 54.5511C18.0069 54.5623 18.0451 54.5814 18.0784 54.6075C18.1471 54.6613 18.192 54.7402 18.2034 54.8272C18.2149 54.9141 18.1919 55.0021 18.1395 55.0721C17.7549 55.5737 17.3781 56.1044 17.0109 56.6326C16.9669 56.7072 16.8958 56.7614 16.8129 56.7839C16.7299 56.8063 16.6416 56.7952 16.5666 56.7529C16.5221 56.7353 16.4816 56.7087 16.4476 56.6748C16.4137 56.6408 16.387 56.6001 16.3692 56.5553L16.4368 56.537ZM35.4586 119.431C35.4392 119.373 35.4408 119.309 35.4629 119.252C35.4897 119.169 35.5475 119.101 35.6239 119.06C35.7003 119.02 35.7892 119.012 35.8717 119.037C36.4742 119.24 37.0935 119.428 37.705 119.586C37.7461 119.597 37.7847 119.616 37.8186 119.642C37.8525 119.667 37.8809 119.7 37.9023 119.737C37.9237 119.774 37.9376 119.815 37.9432 119.857C37.9487 119.9 37.9459 119.943 37.9347 119.984C37.9113 120.067 37.8572 120.137 37.7839 120.18C37.7105 120.224 37.6234 120.237 37.5408 120.217C36.9145 120.041 36.2855 119.856 35.6689 119.677C35.6096 119.666 35.5547 119.638 35.5107 119.596C35.4666 119.554 35.4352 119.501 35.42 119.442L35.4586 119.431ZM18.7914 53.4315C18.7768 53.3799 18.7751 53.3255 18.7865 53.2731C18.798 53.2207 18.8221 53.172 18.8568 53.1314C19.2729 52.6318 19.711 52.1367 20.1543 51.6611C20.2119 51.5986 20.2917 51.5617 20.3762 51.5584C20.4606 51.5552 20.543 51.5858 20.6052 51.6437C20.6679 51.7032 20.7051 51.7853 20.7089 51.8722C20.7126 51.9591 20.6825 52.0441 20.6251 52.1089C20.1889 52.5721 19.7604 53.0646 19.3417 53.5544C19.3146 53.5876 19.2812 53.615 19.2435 53.635C19.2059 53.655 19.1646 53.6672 19.1222 53.6709C19.0798 53.6746 19.0371 53.6697 18.9966 53.6565C18.9561 53.6433 18.9186 53.6221 18.8863 53.594C18.8203 53.5615 18.7642 53.5117 18.7238 53.4498L18.7914 53.4315ZM39.1966 120.448C39.1707 120.404 39.1572 120.353 39.1577 120.302C39.1754 120.218 39.2252 120.145 39.2963 120.098C39.3674 120.051 39.4539 120.035 39.5368 120.053C40.1721 120.184 40.8048 120.306 41.4298 120.398C41.4714 120.404 41.5115 120.418 41.5476 120.44C41.5837 120.461 41.615 120.49 41.6396 120.525C41.6642 120.559 41.6817 120.598 41.6908 120.64C41.7 120.681 41.7008 120.724 41.693 120.766C41.6873 120.808 41.6733 120.849 41.652 120.885C41.6307 120.922 41.6024 120.954 41.5688 120.98C41.5352 121.005 41.497 121.024 41.4562 121.035C41.4155 121.045 41.373 121.048 41.3314 121.042C40.6942 120.942 40.0518 120.823 39.4068 120.695C39.3437 120.688 39.2839 120.662 39.2346 120.622C39.1853 120.581 39.1486 120.527 39.1289 120.466L39.1966 120.448ZM21.4387 50.5709C21.4246 50.5157 21.4247 50.4577 21.4391 50.4025C21.4534 50.3474 21.4816 50.2969 21.5208 50.2559C21.9952 49.8067 22.4778 49.3623 22.9686 48.9227C23.0005 48.8945 23.0376 48.873 23.0778 48.8595C23.118 48.8459 23.1604 48.8406 23.2027 48.8438C23.2449 48.847 23.2861 48.8585 23.3239 48.8779C23.3617 48.8973 23.3953 48.9241 23.4228 48.9566C23.4506 48.9889 23.4719 49.0263 23.4853 49.0669C23.4987 49.1075 23.504 49.1504 23.5009 49.1931C23.4977 49.2358 23.4863 49.2774 23.4671 49.3156C23.4479 49.3537 23.4214 49.3877 23.3892 49.4154C22.9111 49.8377 22.4284 50.282 21.9774 50.7283C21.9468 50.7585 21.9106 50.7823 21.8707 50.7981C21.8309 50.8139 21.7884 50.8214 21.7456 50.8203C21.7029 50.8192 21.6608 50.8095 21.6218 50.7917C21.5828 50.7738 21.5478 50.7483 21.5188 50.7165C21.4565 50.6925 21.4044 50.6475 21.3711 50.5892L21.4387 50.5709ZM43.0371 121.072L43.0086 120.964C43.0182 120.878 43.0608 120.798 43.1274 120.743C43.194 120.688 43.2794 120.661 43.3652 120.669C43.8438 120.717 44.3296 120.753 44.8101 120.769L45.281 120.788C45.3656 120.792 45.4454 120.829 45.5028 120.892C45.5602 120.955 45.5906 121.038 45.5874 121.124C45.5869 121.167 45.5779 121.209 45.561 121.248C45.5441 121.288 45.5196 121.323 45.4889 121.353C45.4583 121.383 45.4221 121.406 45.3824 121.422C45.3427 121.437 45.3004 121.444 45.258 121.443L44.787 121.424C44.2846 121.403 43.7989 121.367 43.3009 121.324C43.2194 121.327 43.1398 121.299 43.0766 121.247C43.0134 121.195 42.9708 121.122 42.9566 121.041L43.0371 121.072ZM46.9132 121.204L46.8924 121.126C46.8916 121.04 46.924 120.957 46.9826 120.894C47.0413 120.831 47.1217 120.794 47.207 120.79C47.8351 120.777 48.4799 120.749 49.1291 120.698C49.1706 120.695 49.2125 120.699 49.2521 120.712C49.2918 120.725 49.3285 120.746 49.36 120.774C49.3914 120.801 49.4171 120.835 49.4354 120.873C49.4537 120.911 49.4642 120.952 49.4663 120.994C49.4738 121.079 49.4475 121.164 49.3931 121.23C49.3387 121.296 49.2607 121.337 49.1763 121.345C48.5173 121.397 47.8629 121.428 47.2252 121.444C47.1818 121.453 47.137 121.453 47.0935 121.444C47.05 121.436 47.0087 121.418 46.9721 121.393C46.9354 121.368 46.9042 121.335 46.8802 121.298C46.8563 121.26 46.8401 121.218 46.8326 121.174L46.9132 121.204ZM50.7797 120.911L50.7667 120.862C50.7571 120.777 50.7809 120.692 50.8329 120.625C50.885 120.558 50.961 120.515 51.0446 120.504C51.711 120.414 52.3499 120.325 52.9613 120.236C53.0026 120.229 53.0449 120.23 53.0856 120.24C53.1264 120.25 53.1648 120.267 53.1986 120.293C53.2323 120.318 53.2607 120.349 53.282 120.386C53.3032 120.422 53.317 120.463 53.3223 120.505C53.3296 120.547 53.3285 120.59 53.3192 120.631C53.3099 120.673 53.2925 120.712 53.2681 120.747C53.2436 120.782 53.2126 120.812 53.1768 120.834C53.1409 120.857 53.101 120.872 53.0593 120.879C52.4134 120.981 51.7745 121.07 51.1233 121.152C51.0777 121.171 51.0285 121.178 50.9797 121.173C50.9308 121.168 50.8838 121.152 50.8424 121.126C50.801 121.099 50.7664 121.063 50.7415 121.02C50.7166 120.978 50.7021 120.929 50.6991 120.88L50.7797 120.911ZM54.6046 120.304C54.5974 120.262 54.5984 120.219 54.6077 120.177C54.617 120.136 54.6344 120.096 54.6589 120.061C54.6833 120.027 54.7144 119.997 54.7502 119.974C54.786 119.952 54.8259 119.936 54.8676 119.929C55.4858 119.762 56.1247 119.673 56.7507 119.535C56.7925 119.525 56.8358 119.523 56.8781 119.531C56.9204 119.538 56.9609 119.554 56.997 119.577C57.0332 119.601 57.0643 119.631 57.0885 119.667C57.1128 119.703 57.1296 119.743 57.1381 119.786C57.148 119.828 57.1494 119.872 57.1422 119.914C57.135 119.957 57.1193 119.998 57.0962 120.034C57.073 120.071 57.0428 120.102 57.0074 120.127C56.972 120.151 56.932 120.168 56.8899 120.177C56.2621 120.347 55.6161 120.449 54.985 120.567C54.9359 120.591 54.8816 120.603 54.827 120.6C54.7725 120.597 54.7196 120.58 54.6734 120.55C54.6272 120.521 54.5892 120.48 54.5631 120.432C54.5369 120.383 54.5235 120.329 54.5241 120.273L54.6046 120.304ZM58.3919 119.478C58.3809 119.436 58.3783 119.393 58.3845 119.35C58.3906 119.308 58.4053 119.267 58.4277 119.231C58.4501 119.194 58.4796 119.163 58.5145 119.139C58.5494 119.114 58.5888 119.097 58.6304 119.089C59.2583 118.919 59.8765 118.751 60.4947 118.584C60.5767 118.562 60.664 118.574 60.7375 118.616C60.811 118.659 60.8646 118.73 60.8866 118.813C60.8962 118.854 60.8977 118.897 60.8909 118.939C60.8841 118.981 60.8692 119.021 60.8471 119.057C60.8249 119.093 60.796 119.124 60.7618 119.149C60.7277 119.174 60.689 119.192 60.6481 119.201C60.0299 119.369 59.402 119.539 58.7742 119.709C58.7274 119.732 58.6756 119.744 58.6232 119.743C58.5709 119.742 58.5196 119.728 58.474 119.702C58.4283 119.676 58.3896 119.639 58.3612 119.595C58.3329 119.551 58.3157 119.5 58.3114 119.447L58.3919 119.478ZM62.1552 118.522C62.1333 118.44 62.1433 118.352 62.183 118.277C62.2228 118.202 62.2894 118.145 62.3693 118.119C62.9585 117.959 63.5767 117.792 64.198 117.519C64.2796 117.491 64.3687 117.496 64.4464 117.534C64.524 117.572 64.5841 117.638 64.6137 117.72C64.6388 117.803 64.6322 117.892 64.5953 117.969C64.5584 118.047 64.4938 118.108 64.4145 118.14C63.7732 118.376 63.1435 118.578 62.5085 118.761C62.4266 118.783 62.3392 118.771 62.2657 118.728C62.1922 118.685 62.1386 118.615 62.1166 118.532L62.1552 118.522ZM65.8009 117.2C65.78 117.124 65.7876 117.042 65.8222 116.971C65.8568 116.9 65.916 116.845 65.9885 116.815C66.5641 116.565 67.1468 116.302 67.7436 116.015C67.8216 115.979 67.9107 115.975 67.9918 116.003C68.0729 116.032 68.1397 116.092 68.1779 116.17C68.2141 116.249 68.2183 116.338 68.1898 116.42C68.1612 116.502 68.1022 116.57 68.0251 116.608C67.4187 116.898 66.8263 117.163 66.2411 117.416C66.1609 117.449 66.0708 117.45 65.9903 117.417C65.9098 117.384 65.8455 117.32 65.8113 117.239L65.8009 117.2ZM69.3122 115.528C69.292 115.456 69.2982 115.379 69.3295 115.311C69.3609 115.243 69.4154 115.188 69.4831 115.158C70.036 114.861 70.6057 114.55 71.1729 114.229C71.2494 114.187 71.3396 114.176 71.4237 114.201C71.5078 114.225 71.5789 114.282 71.6214 114.359C71.6606 114.436 71.6688 114.525 71.6444 114.607C71.62 114.69 71.5648 114.76 71.4905 114.802C70.9137 115.126 70.344 115.437 69.7717 115.738C69.6951 115.775 69.6076 115.78 69.5272 115.753C69.4468 115.726 69.3798 115.669 69.3399 115.594L69.3122 115.528ZM72.6982 113.618C72.6814 113.549 72.6872 113.476 72.7144 113.41C72.7417 113.344 72.7891 113.289 72.8497 113.253C73.395 112.927 73.9447 112.58 74.4944 112.232C74.5294 112.208 74.569 112.192 74.6105 112.184C74.6521 112.176 74.6949 112.177 74.7362 112.186C74.7775 112.196 74.8164 112.213 74.8506 112.239C74.8848 112.264 74.9136 112.296 74.9351 112.333C74.9588 112.368 74.9751 112.408 74.9829 112.45C74.9908 112.492 74.99 112.535 74.9807 112.577C74.9714 112.619 74.9537 112.658 74.9288 112.693C74.9039 112.727 74.8722 112.756 74.8358 112.778C74.2886 113.135 73.739 113.483 73.1841 113.811C73.1479 113.833 73.1077 113.848 73.0657 113.855C73.0237 113.862 72.9808 113.86 72.9396 113.849C72.8983 113.839 72.8595 113.821 72.8253 113.795C72.7912 113.77 72.7625 113.737 72.7408 113.701L72.6982 113.618ZM75.9693 111.509C75.9503 111.442 75.9529 111.372 75.9767 111.307C76.0006 111.242 76.0443 111.187 76.1015 111.149C76.6364 110.784 77.159 110.413 77.679 110.032C77.7129 110.005 77.7515 109.986 77.7927 109.976C77.8338 109.965 77.8767 109.962 77.9189 109.969C77.961 109.975 78.0015 109.989 78.0379 110.011C78.0744 110.033 78.1061 110.063 78.1313 110.097C78.1807 110.169 78.2005 110.257 78.1865 110.343C78.1725 110.428 78.1259 110.505 78.0565 110.557C77.5365 110.938 77.0068 111.322 76.4623 111.689C76.3929 111.738 76.3071 111.758 76.2236 111.743C76.1402 111.728 76.0659 111.681 76.017 111.611L75.9693 111.509ZM79.1036 109.196C79.0876 109.134 79.0901 109.068 79.1106 109.006C79.1311 108.945 79.1688 108.891 79.2191 108.851C79.734 108.45 80.2366 108.042 80.7173 107.63C80.7492 107.601 80.7869 107.578 80.8278 107.564C80.8688 107.551 80.9122 107.546 80.9552 107.55C80.9982 107.554 81.0399 107.567 81.0776 107.588C81.1153 107.61 81.1481 107.639 81.174 107.674C81.2015 107.705 81.2224 107.742 81.2355 107.782C81.2486 107.822 81.2536 107.864 81.2503 107.906C81.2469 107.948 81.2352 107.989 81.2159 108.026C81.1966 108.063 81.17 108.096 81.1378 108.123C80.6404 108.55 80.1378 108.958 79.6159 109.371C79.5827 109.397 79.5448 109.417 79.5042 109.428C79.4637 109.44 79.4213 109.443 79.3795 109.438C79.3378 109.432 79.2974 109.419 79.2608 109.398C79.2242 109.377 79.1921 109.349 79.1662 109.315L79.1036 109.196ZM79.3343 100.035C79.166 99.4006 79.0822 98.7331 78.9938 98.0877C78.9862 98.045 78.9874 98.0013 78.9973 97.9592C79.0073 97.9171 79.0258 97.8775 79.0517 97.843C79.0775 97.8085 79.1102 97.7797 79.1476 97.7586C79.185 97.7375 79.2264 97.7244 79.269 97.7203C79.311 97.7141 79.3538 97.7164 79.3949 97.727C79.4361 97.7377 79.4746 97.7565 79.5085 97.7824C79.5423 97.8083 79.5707 97.8407 79.5921 97.8778C79.6134 97.9148 79.6272 97.9558 79.6327 97.9984C79.7159 98.6243 79.8358 99.2716 79.9699 99.8942C79.9798 99.9364 79.9812 99.9802 79.974 100.023C79.9668 100.066 79.9511 100.107 79.928 100.143C79.9048 100.18 79.8746 100.211 79.8392 100.236C79.8037 100.26 79.7638 100.277 79.7217 100.286C79.673 100.308 79.6196 100.319 79.5661 100.316C79.5125 100.313 79.4604 100.297 79.4143 100.27C79.3683 100.242 79.3295 100.203 79.3015 100.157C79.2736 100.111 79.2572 100.058 79.2537 100.004L79.3343 100.035ZM79.8364 101.928C79.8122 101.847 79.82 101.761 79.8581 101.686C79.8963 101.611 79.9618 101.554 80.0408 101.527C80.123 101.502 80.2117 101.511 80.288 101.55C80.3643 101.59 80.4222 101.659 80.4494 101.741C80.6176 102.375 80.8702 102.976 81.115 103.548C81.1458 103.629 81.1448 103.719 81.1124 103.8C81.08 103.881 81.0185 103.946 80.9403 103.982C80.9011 103.999 80.8591 104.007 80.8167 104.007C80.7742 104.007 80.7322 103.998 80.6931 103.982C80.654 103.965 80.6186 103.941 80.5889 103.91C80.5592 103.879 80.5358 103.843 80.5201 103.803C80.2701 103.212 80.0414 102.584 79.8286 101.899L79.8364 101.928ZM78.8137 96.1597L78.7956 96.0914C78.7626 95.4274 78.7694 94.762 78.8158 94.0988C78.8212 94.0121 78.86 93.9309 78.9238 93.8726C78.9876 93.8143 79.0715 93.7835 79.1575 93.7867C79.1998 93.7894 79.2413 93.8005 79.2793 93.8195C79.3174 93.8385 79.3514 93.8649 79.3792 93.8973C79.4071 93.9296 79.4283 93.9673 79.4416 94.008C79.4549 94.0488 79.4601 94.0918 79.4568 94.1345C79.413 94.7765 79.4075 95.4206 79.4404 96.0633C79.4421 96.1064 79.4352 96.1494 79.4203 96.1897C79.4053 96.2301 79.3825 96.267 79.3532 96.2983C79.3238 96.3297 79.2886 96.3547 79.2496 96.3721C79.2105 96.3895 79.1684 96.3988 79.1258 96.3995C79.0827 96.4086 79.0383 96.4087 78.9952 96.3997C78.9522 96.3907 78.9114 96.3729 78.8755 96.3473C78.8395 96.3217 78.8092 96.2889 78.7864 96.2509C78.7636 96.213 78.7487 96.1707 78.7428 96.1266L78.8137 96.1597ZM81.366 105.509C81.3476 105.44 81.3525 105.366 81.3799 105.3C81.4074 105.234 81.4558 105.179 81.5176 105.144C81.592 105.104 81.6787 105.095 81.7598 105.118C81.8409 105.14 81.9103 105.193 81.9538 105.266C82.1113 105.548 82.2881 105.824 82.4598 106.081C82.8323 105.729 83.2023 105.368 83.553 105.011C83.6147 104.949 83.6984 104.914 83.7857 104.914C83.873 104.914 83.9568 104.948 84.0187 105.011C84.0749 105.074 84.1059 105.156 84.1055 105.241C84.1051 105.326 84.0734 105.408 84.0167 105.471C83.6396 105.845 83.2459 106.234 82.8302 106.619L83.0134 106.841C83.0665 106.91 83.0907 106.997 83.0808 107.084C83.0709 107.171 83.0277 107.25 82.9605 107.305C82.9273 107.331 82.8894 107.351 82.8488 107.362C82.8083 107.373 82.7659 107.377 82.7241 107.371C82.6823 107.366 82.642 107.353 82.6054 107.332C82.5688 107.311 82.5366 107.283 82.5108 107.249L82.216 106.879L82.147 106.814C82.119 106.763 82.1039 106.706 82.103 106.648C81.8694 106.314 81.6499 105.955 81.4376 105.584L81.366 105.509ZM79.1054 92.2634C79.0827 92.2178 79.0695 92.168 79.0666 92.1171C79.2075 91.449 79.4366 90.803 79.7478 90.1966C79.7918 90.122 79.8628 90.0678 79.9458 90.0453C80.0287 90.0229 80.1171 90.034 80.1921 90.0763C80.2296 90.0973 80.2625 90.1258 80.289 90.16C80.3154 90.1941 80.3347 90.2333 80.3458 90.2752C80.3569 90.3171 80.3596 90.3608 80.3536 90.4037C80.3477 90.4467 80.3332 90.488 80.3111 90.5251C80.033 91.0829 79.8245 91.6733 79.6903 92.2829C79.6818 92.3244 79.6649 92.3638 79.6409 92.3986C79.6168 92.4334 79.586 92.4628 79.5503 92.4852C79.5146 92.5076 79.4747 92.5224 79.4332 92.5288C79.3917 92.5351 79.3493 92.5329 79.3086 92.5222C79.237 92.512 79.1709 92.4776 79.1212 92.4246C79.0714 92.3716 79.0408 92.3031 79.0345 92.2303L79.1054 92.2634ZM83.8103 108.518C83.7968 108.469 83.7951 108.417 83.8052 108.367C83.8153 108.317 83.837 108.271 83.8685 108.231C83.9233 108.165 84.0008 108.124 84.0852 108.114C84.1695 108.105 84.254 108.129 84.3213 108.181C84.6766 108.471 85.0651 108.717 85.4785 108.914C85.6203 108.98 85.7646 109.056 85.9161 109.12C85.9869 109.164 86.0383 109.235 86.0599 109.316C86.0815 109.398 86.0717 109.484 86.0325 109.559C86.0117 109.597 85.9835 109.63 85.9497 109.657C85.9159 109.683 85.8771 109.703 85.8356 109.714C85.7942 109.725 85.7509 109.728 85.7084 109.722C85.6659 109.716 85.625 109.701 85.5882 109.679C85.4368 109.615 85.2924 109.539 85.1383 109.466C84.6938 109.236 84.2738 108.961 83.8851 108.644C83.8216 108.608 83.7708 108.552 83.7394 108.485L83.8103 108.518ZM84.8129 103.907C84.7983 103.855 84.7966 103.801 84.808 103.748C84.8194 103.696 84.8436 103.647 84.8783 103.607C85.3234 103.099 85.7396 102.599 86.1075 102.113C86.1636 102.047 86.2426 102.004 86.3285 101.995C86.4144 101.985 86.5007 102.009 86.5699 102.061C86.6031 102.088 86.6307 102.121 86.6511 102.158C86.6715 102.196 86.6844 102.237 86.689 102.279C86.6935 102.322 86.6896 102.365 86.6776 102.406C86.6655 102.447 86.6455 102.485 86.6188 102.518C86.2438 103.017 85.8495 103.521 85.3658 104.039C85.3068 104.103 85.2256 104.14 85.1395 104.144C85.0535 104.148 84.9694 104.117 84.9052 104.059C84.8649 104.044 84.8289 104.02 84.8005 103.987C84.772 103.955 84.7519 103.916 84.742 103.874L84.8129 103.907ZM81.045 88.9983C81.0266 88.9291 81.0315 88.8556 81.0589 88.7895C81.0863 88.7233 81.1348 88.6683 81.1965 88.6331C81.405 88.5138 81.6276 88.4219 81.8591 88.3596C82.3263 88.2399 82.8139 88.2258 83.2871 88.3182C83.3288 88.3259 83.3685 88.3419 83.404 88.3653C83.4395 88.3886 83.4701 88.4189 83.4939 88.4543C83.5177 88.4896 83.5344 88.5295 83.5428 88.5714C83.5513 88.6133 83.5515 88.6565 83.5433 88.6985C83.5365 88.74 83.5216 88.7797 83.4993 88.8152C83.477 88.8507 83.4479 88.8814 83.4137 88.9053C83.3794 88.9292 83.3408 88.9459 83.3 88.9544C83.2593 88.9629 83.2172 88.963 83.1764 88.9547C82.7949 88.8861 82.4034 88.8995 82.0273 88.9939C81.8473 89.0401 81.6746 89.1115 81.5142 89.2059C81.4775 89.2269 81.4372 89.2403 81.3955 89.2455C81.3538 89.2506 81.3114 89.2474 81.2709 89.2361C81.2304 89.2247 81.1925 89.2054 81.1594 89.1792C81.1263 89.153 81.0986 89.1205 81.0779 89.0835L81.045 88.9983ZM87.2573 110.273C87.2396 110.207 87.2427 110.137 87.2661 110.072C87.2802 110.031 87.3021 109.994 87.3307 109.962C87.3592 109.93 87.3938 109.905 87.4324 109.886C87.4709 109.868 87.5127 109.858 87.5552 109.856C87.5977 109.854 87.6402 109.861 87.68 109.876C88.2781 110.101 88.8903 110.302 89.494 110.431C89.5345 110.443 89.5724 110.462 89.6054 110.489C89.6385 110.515 89.666 110.548 89.6864 110.585C89.7069 110.622 89.7199 110.663 89.7246 110.706C89.7294 110.748 89.7258 110.791 89.7141 110.832C89.7026 110.873 89.6832 110.911 89.6571 110.944C89.6309 110.978 89.5984 111.005 89.5616 111.026C89.5247 111.047 89.4842 111.06 89.4424 111.065C89.4005 111.069 89.3581 111.066 89.3176 111.054C88.6939 110.888 88.0694 110.681 87.4495 110.451C87.3902 110.445 87.3338 110.422 87.2871 110.385C87.2405 110.347 87.2055 110.297 87.1864 110.24L87.2573 110.273ZM87.1797 100.808C87.1681 100.764 87.1661 100.717 87.1737 100.672C87.1813 100.627 87.1984 100.583 87.2239 100.545C87.5657 100.008 87.874 99.4494 88.1469 98.8731C88.1909 98.7986 88.2619 98.7443 88.3449 98.7219C88.4279 98.6994 88.5162 98.7105 88.5912 98.7528C88.6639 98.7958 88.717 98.866 88.7388 98.9482C88.7606 99.0304 88.7494 99.118 88.7077 99.1919C88.4206 99.793 88.0982 100.376 87.7422 100.938C87.7214 100.976 87.6932 101.01 87.6594 101.036C87.6256 101.063 87.5868 101.082 87.5453 101.094C87.5039 101.105 87.4606 101.108 87.4181 101.102C87.3756 101.096 87.3347 101.081 87.2979 101.059C87.2433 101.034 87.1967 100.994 87.1632 100.944C87.1298 100.894 87.111 100.836 87.1088 100.775L87.1797 100.808ZM84.7268 89.4135C84.7066 89.335 84.7138 89.2518 84.7471 89.178C84.7928 89.1053 84.8638 89.0527 84.9461 89.0304C85.0284 89.0081 85.1159 89.0179 85.1915 89.0577C85.7871 89.3585 86.3576 89.7077 86.8971 90.102C86.931 90.1272 86.9597 90.1588 86.9814 90.1952C87.0032 90.2315 87.0177 90.2718 87.024 90.3138C87.0303 90.3558 87.0284 90.3987 87.0183 90.4399C87.0083 90.4812 86.9903 90.52 86.9653 90.5542C86.9136 90.6243 86.8367 90.6711 86.7512 90.6845C86.6656 90.6978 86.5783 90.6767 86.508 90.6257C86.0019 90.2538 85.4648 89.9268 84.9029 89.6483C84.8415 89.6306 84.786 89.5964 84.7425 89.5492C84.6989 89.502 84.669 89.4436 84.6559 89.3805L84.7268 89.4135ZM90.9882 111.303C90.9671 111.26 90.9548 111.214 90.9519 111.166C90.9596 111.124 90.9755 111.084 90.9986 111.048C91.0217 111.012 91.0516 110.981 91.0867 110.957C91.1217 110.933 91.1611 110.916 91.2026 110.908C91.2441 110.899 91.2869 110.899 91.3285 110.907C91.9586 111.019 92.5906 111.099 93.2271 111.157C93.3115 111.165 93.3893 111.206 93.4436 111.271C93.4979 111.337 93.5242 111.422 93.5167 111.507C93.5141 111.55 93.5031 111.592 93.4843 111.63C93.4655 111.669 93.4393 111.703 93.4073 111.731C93.3753 111.759 93.338 111.781 93.2977 111.794C93.2574 111.808 93.2148 111.813 93.1725 111.809C92.5141 111.747 91.8602 111.663 91.2178 111.544C91.1435 111.542 91.0722 111.513 91.0171 111.463C90.9619 111.413 90.9265 111.344 90.9173 111.269L90.9882 111.303ZM88.8039 97.2519C88.7918 97.1959 88.7942 97.1376 88.8108 97.0827C88.9764 96.4844 89.0631 95.8666 89.0689 95.2454C89.0685 95.2029 89.0764 95.1608 89.0921 95.1214C89.1078 95.082 89.1311 95.0461 89.1605 95.0158C89.19 94.9855 89.2251 94.9613 89.2638 94.9447C89.3025 94.9281 89.344 94.9194 89.3861 94.919C89.4285 94.9172 89.4708 94.9242 89.5104 94.9396C89.5501 94.9549 89.5861 94.9784 89.6164 95.0084C89.6467 95.0384 89.6706 95.0744 89.6865 95.1142C89.7025 95.1539 89.7102 95.1966 89.7092 95.2394C89.7057 95.9215 89.6143 96.6002 89.4372 97.2583C89.4123 97.3422 89.3557 97.4128 89.2797 97.4549C89.2037 97.497 89.1144 97.5072 89.031 97.4833C88.9631 97.478 88.8986 97.4516 88.8462 97.4077C88.7938 97.3638 88.7561 97.3047 88.7382 97.2384L88.8039 97.2519ZM87.7951 91.731C87.7798 91.6696 87.7816 91.6052 87.8003 91.5448C87.819 91.4843 87.8538 91.4303 87.901 91.3886C87.9666 91.3354 88.0503 91.3104 88.1339 91.3191C88.2176 91.3278 88.2945 91.3694 88.3481 91.4349C88.7926 91.9745 89.141 92.5879 89.3777 93.2479C89.3925 93.2879 89.3994 93.3304 89.3979 93.3731C89.3964 93.4157 89.3866 93.4577 89.369 93.4965C89.3514 93.5353 89.3263 93.5702 89.2953 93.5992C89.2642 93.6281 89.2278 93.6506 89.1881 93.6653C89.1487 93.6818 89.1063 93.6899 89.0637 93.6891C89.021 93.6883 88.979 93.6786 88.9402 93.6606C88.9014 93.6426 88.8667 93.6167 88.8383 93.5846C88.8099 93.5525 88.7883 93.5148 88.775 93.4738C88.5587 92.8963 88.2516 92.3579 87.8655 91.8793C87.8028 91.843 87.7547 91.7858 87.7294 91.7174L87.7951 91.731ZM94.838 111.61L94.8173 111.532C94.8184 111.444 94.8533 111.361 94.9144 111.3C94.9754 111.238 95.0579 111.203 95.1442 111.203C95.7748 111.199 96.417 111.161 97.0417 111.097C97.0841 111.092 97.1271 111.095 97.1681 111.107C97.2091 111.119 97.2474 111.139 97.2806 111.166C97.3138 111.193 97.3413 111.227 97.3616 111.265C97.3818 111.303 97.3943 111.344 97.3983 111.387C97.4058 111.473 97.3801 111.559 97.3265 111.626C97.2729 111.693 97.1955 111.737 97.1108 111.747C96.4667 111.817 95.8026 111.851 95.1527 111.859C95.0678 111.874 94.9806 111.855 94.9095 111.806C94.8384 111.757 94.7892 111.681 94.7723 111.596L94.838 111.61ZM98.6954 111.203C98.6855 111.161 98.6841 111.117 98.6913 111.075C98.6985 111.032 98.7142 110.991 98.7373 110.955C98.7605 110.918 98.7907 110.887 98.8261 110.862C98.8616 110.838 98.9015 110.821 98.9436 110.812C99.3396 110.705 99.726 110.6 100.122 110.493C100.344 110.433 100.566 110.373 100.789 110.313C100.829 110.3 100.871 110.296 100.913 110.3C100.955 110.305 100.995 110.317 101.032 110.337C101.069 110.357 101.102 110.385 101.129 110.417C101.155 110.45 101.175 110.488 101.187 110.529C101.201 110.57 101.207 110.613 101.203 110.657C101.2 110.7 101.188 110.742 101.168 110.781C101.149 110.819 101.122 110.853 101.088 110.881C101.055 110.909 101.017 110.929 100.976 110.942C100.744 111.004 100.522 111.065 100.29 111.127C99.8846 111.237 99.4789 111.347 99.0732 111.457C99.0269 111.477 98.9766 111.485 98.9265 111.482C98.8763 111.478 98.8277 111.463 98.7845 111.437C98.7413 111.411 98.7048 111.375 98.6779 111.332C98.651 111.289 98.6345 111.24 98.6297 111.19L98.6954 111.203ZM102.4 110.065C102.379 109.988 102.387 109.907 102.421 109.836C102.456 109.765 102.515 109.709 102.588 109.679C103.166 109.439 103.746 109.167 104.318 108.866C104.356 108.846 104.397 108.835 104.439 108.832C104.481 108.828 104.524 108.834 104.564 108.847C104.604 108.86 104.641 108.882 104.673 108.91C104.705 108.938 104.731 108.972 104.75 109.01C104.788 109.086 104.796 109.174 104.771 109.255C104.746 109.336 104.691 109.404 104.616 109.444C104.025 109.75 103.428 110.037 102.83 110.283C102.791 110.299 102.749 110.308 102.707 110.308C102.664 110.308 102.622 110.299 102.583 110.282C102.544 110.266 102.509 110.241 102.479 110.211C102.449 110.18 102.426 110.144 102.41 110.104L102.4 110.065ZM105.836 108.267C105.808 108.212 105.796 108.151 105.802 108.09C105.808 108.029 105.831 107.971 105.869 107.923C106.4 107.581 106.932 107.206 107.44 106.818C107.473 106.792 107.511 106.772 107.551 106.761C107.592 106.75 107.634 106.747 107.676 106.752C107.718 106.757 107.758 106.77 107.795 106.791C107.831 106.812 107.864 106.841 107.889 106.874C107.94 106.945 107.961 107.033 107.95 107.12C107.938 107.207 107.894 107.286 107.827 107.341C107.312 107.742 106.76 108.121 106.223 108.476C106.149 108.522 106.059 108.536 105.975 108.516C105.89 108.496 105.816 108.443 105.77 108.368L105.836 108.267ZM108.911 105.886C108.896 105.83 108.896 105.77 108.912 105.714C108.928 105.658 108.96 105.608 109.003 105.569C109.478 105.137 109.927 104.681 110.361 104.208C110.421 104.145 110.503 104.108 110.59 104.107C110.677 104.105 110.761 104.137 110.824 104.197C110.855 104.226 110.881 104.261 110.898 104.3C110.916 104.339 110.925 104.382 110.926 104.425C110.927 104.468 110.919 104.51 110.902 104.55C110.886 104.59 110.862 104.626 110.831 104.655C110.391 105.141 109.923 105.602 109.448 106.076C109.384 106.134 109.299 106.164 109.213 106.16C109.127 106.156 109.046 106.118 108.987 106.054L108.911 105.886ZM111.549 103.028C111.538 102.98 111.538 102.931 111.548 102.882C111.559 102.834 111.58 102.789 111.61 102.75C112.004 102.246 112.371 101.718 112.726 101.183C112.77 101.108 112.841 101.054 112.924 101.032C113.007 101.009 113.095 101.02 113.17 101.062C113.208 101.084 113.241 101.112 113.267 101.146C113.294 101.18 113.313 101.22 113.324 101.261C113.335 101.303 113.338 101.347 113.332 101.39C113.326 101.433 113.312 101.474 113.29 101.511C112.928 102.059 112.541 102.592 112.14 103.109C112.086 103.178 112.008 103.224 111.922 103.235C111.836 103.247 111.749 103.224 111.68 103.171C111.598 103.144 111.528 103.089 111.483 103.015L111.549 103.028ZM113.688 99.7721C113.677 99.7324 113.674 99.6908 113.679 99.65C113.684 99.6091 113.697 99.5697 113.718 99.5339C114.023 98.97 114.315 98.3892 114.574 97.8064C114.591 97.7675 114.615 97.7324 114.646 97.7029C114.676 97.6735 114.712 97.6504 114.751 97.6349C114.79 97.6195 114.832 97.612 114.874 97.6128C114.916 97.6137 114.957 97.6229 114.996 97.64C115.034 97.657 115.069 97.6816 115.098 97.7122C115.127 97.7428 115.15 97.7789 115.166 97.8185C115.181 97.8581 115.188 97.9003 115.187 97.9428C115.187 97.9852 115.177 98.0271 115.161 98.066C114.897 98.6709 114.598 99.2641 114.288 99.8501C114.244 99.9246 114.173 99.9789 114.09 100.001C114.007 100.024 113.919 100.013 113.844 99.9704C113.794 99.953 113.748 99.9252 113.71 99.8886C113.672 99.8521 113.642 99.8077 113.622 99.7585L113.688 99.7721ZM115.268 96.2068C115.254 96.1446 115.255 96.08 115.27 96.018C115.48 95.4067 115.669 94.7909 115.816 94.1758C115.826 94.1336 115.843 94.0938 115.868 94.0587C115.893 94.0236 115.925 93.9939 115.961 93.9713C115.998 93.9488 116.038 93.9339 116.081 93.9274C116.123 93.921 116.166 93.9232 116.208 93.9339C116.29 93.9555 116.362 94.0089 116.406 94.0827C116.451 94.1564 116.466 94.2448 116.447 94.3292C116.286 94.9691 116.102 95.6045 115.913 96.2203C115.9 96.2614 115.879 96.2995 115.851 96.3322C115.823 96.3649 115.789 96.3917 115.751 96.4108C115.712 96.43 115.671 96.4412 115.628 96.4437C115.585 96.4463 115.542 96.4402 115.502 96.4258C115.43 96.4288 115.359 96.407 115.3 96.3639C115.242 96.3209 115.199 96.2591 115.18 96.1886L115.268 96.2068ZM116.197 92.4099L116.166 92.2928C116.265 91.6553 116.329 91.0129 116.359 90.3683C116.367 90.2828 116.407 90.2037 116.471 90.1474C116.536 90.091 116.619 90.0619 116.704 90.066C116.789 90.0715 116.87 90.1106 116.927 90.1751C116.985 90.2396 117.016 90.3243 117.013 90.4112C116.968 91.0613 116.906 91.7264 116.81 92.3799C116.797 92.4662 116.75 92.5437 116.681 92.5957C116.611 92.6478 116.524 92.6702 116.439 92.6582C116.364 92.6568 116.291 92.6289 116.235 92.5792C116.178 92.5296 116.14 92.4614 116.128 92.3865L116.197 92.4099Z" fill="#999999"/>
</svg>
