<svg width="169" height="191" viewBox="0 0 169 191" fill="none" xmlns="http://www.w3.org/2000/svg">
<path d="M58.4545 106.13L55.6346 107.363L44.3646 99.4226L41.3646 101.1C38.9546 102.554 36.6146 102.655 35.4946 102.009L35.2645 102.12C33.5245 102.888 32.4945 102.201 32.1445 101.372C31.7945 100.544 31.9946 99.3519 33.7346 98.564L33.9645 98.4629C34.1745 97.4527 35.0846 95.7556 38.6346 94.7555L41.9045 93.6947L43.9045 79.9659L46.7245 78.7234L48.9146 91.442L56.9745 88.6538L58.1946 85.3908L60.4346 84.5523L60.5945 87.5829L61.3945 87.5122L62.1246 89.1993L61.5245 89.7953L63.6445 92.0178L61.5046 93.0987L58.3246 91.7652L50.7946 95.8061L58.4545 106.13ZM58.2446 91.0278L61.4446 92.3713L62.4446 91.846L60.5046 89.8256L61.2346 89.0781L60.8945 88.28L59.8945 88.3709L59.7446 85.5423L58.6545 85.9464L57.4346 89.2195L48.3146 92.3613L46.1445 79.7235L44.4545 80.461L42.5046 94.2402L38.8146 95.4323C35.3746 96.392 34.6945 97.9477 34.5945 98.7862V98.9983L34.3945 99.0691C34.2675 99.1056 34.1437 99.1529 34.0245 99.2105C32.9545 99.6752 32.4745 100.413 32.7845 101.12C33.0945 101.827 33.9445 101.989 35.0145 101.514C35.1349 101.465 35.2519 101.407 35.3646 101.342L35.5546 101.231L35.7346 101.362C36.4646 101.908 38.5946 102.009 41.0546 100.534L44.4146 98.6347L55.7145 106.605L57.4045 105.868L49.7446 95.6242L58.2446 91.0278Z" fill="#999999"/>
<path d="M155.234 190.917C155.288 190.917 155.342 190.904 155.389 190.877C155.437 190.851 155.476 190.812 155.504 190.765C155.864 190.213 156.198 189.657 156.504 189.098C156.55 189.024 156.565 188.935 156.546 188.85C156.527 188.765 156.476 188.691 156.404 188.644C156.33 188.599 156.241 188.585 156.157 188.606C156.073 188.627 156 188.68 155.954 188.755C155.614 189.31 155.274 189.856 154.954 190.411C154.93 190.447 154.913 190.487 154.905 190.53C154.896 190.572 154.896 190.616 154.904 190.658C154.913 190.7 154.929 190.741 154.953 190.776C154.977 190.812 155.008 190.843 155.044 190.866C155.103 190.898 155.168 190.915 155.234 190.917ZM157.234 187.563C157.291 187.562 157.346 187.547 157.395 187.519C157.444 187.49 157.485 187.45 157.514 187.401C157.834 186.825 158.154 186.249 158.514 185.674C158.555 185.598 158.565 185.51 158.543 185.427C158.52 185.344 158.467 185.273 158.394 185.229C158.318 185.189 158.23 185.18 158.148 185.205C158.066 185.229 157.996 185.285 157.954 185.36C157.644 185.936 157.324 186.502 157.004 187.068C156.96 187.143 156.946 187.233 156.967 187.318C156.988 187.403 157.041 187.476 157.114 187.522C157.166 187.551 157.225 187.565 157.284 187.563H157.234ZM159.094 184.108C159.154 184.107 159.213 184.09 159.264 184.058C159.315 184.026 159.357 183.98 159.384 183.926C159.684 183.34 159.974 182.744 160.254 182.158C160.273 182.12 160.284 182.078 160.286 182.035C160.289 181.992 160.283 181.95 160.269 181.909C160.255 181.869 160.233 181.831 160.205 181.8C160.177 181.768 160.143 181.742 160.104 181.724C160.066 181.705 160.025 181.694 159.983 181.691C159.94 181.689 159.898 181.694 159.858 181.709C159.818 181.723 159.781 181.745 159.75 181.773C159.718 181.802 159.692 181.836 159.674 181.875C159.394 182.461 159.104 183.047 158.804 183.633C158.786 183.671 158.775 183.713 158.772 183.756C158.77 183.799 158.775 183.841 158.789 183.882C158.803 183.922 158.825 183.959 158.853 183.991C158.882 184.023 158.916 184.049 158.954 184.067C158.981 184.088 159.012 184.102 159.045 184.109C159.078 184.116 159.112 184.115 159.144 184.108H159.094ZM160.784 180.552C160.847 180.551 160.908 180.532 160.961 180.498C161.014 180.465 161.057 180.417 161.084 180.36L161.864 178.552C161.897 178.47 161.897 178.378 161.863 178.297C161.829 178.215 161.765 178.151 161.684 178.117C161.605 178.087 161.516 178.089 161.438 178.123C161.36 178.157 161.298 178.22 161.264 178.299C161.014 178.895 160.754 179.491 160.494 180.097C160.476 180.135 160.466 180.177 160.464 180.219C160.462 180.262 160.469 180.304 160.484 180.344C160.499 180.384 160.522 180.42 160.551 180.45C160.58 180.481 160.615 180.505 160.654 180.521C160.71 180.55 160.773 180.56 160.834 180.552H160.784ZM162.294 176.925C162.358 176.924 162.421 176.905 162.474 176.869C162.527 176.833 162.569 176.782 162.594 176.723C162.834 176.097 163.064 175.48 163.294 174.864C163.308 174.824 163.314 174.781 163.312 174.738C163.31 174.695 163.299 174.653 163.28 174.615C163.262 174.576 163.236 174.542 163.204 174.514C163.172 174.485 163.135 174.464 163.094 174.45C163.015 174.423 162.928 174.428 162.852 174.464C162.775 174.5 162.716 174.563 162.684 174.642C162.464 175.258 162.234 175.864 161.994 176.481C161.964 176.561 161.966 176.65 162 176.729C162.033 176.808 162.096 176.871 162.174 176.905L162.294 176.925ZM163.634 173.228C163.701 173.227 163.766 173.205 163.82 173.165C163.873 173.125 163.913 173.069 163.934 173.005C164.154 172.379 164.354 171.753 164.544 171.126C164.57 171.043 164.562 170.954 164.523 170.876C164.483 170.799 164.416 170.74 164.334 170.712C164.252 170.687 164.163 170.694 164.087 170.734C164.01 170.774 163.952 170.842 163.924 170.924C163.734 171.551 163.534 172.167 163.324 172.793C163.299 172.876 163.307 172.966 163.346 173.044C163.385 173.121 163.453 173.18 163.534 173.207L163.634 173.228ZM164.794 169.47C164.865 169.468 164.933 169.444 164.989 169.4C165.045 169.356 165.085 169.296 165.104 169.227C165.284 168.591 165.464 167.954 165.624 167.328C165.646 167.244 165.634 167.154 165.591 167.079C165.548 167.003 165.477 166.948 165.394 166.924C165.354 166.913 165.311 166.911 165.27 166.917C165.228 166.923 165.188 166.937 165.152 166.958C165.115 166.98 165.084 167.009 165.058 167.043C165.033 167.077 165.015 167.115 165.004 167.156C164.834 167.783 164.664 168.419 164.484 169.045C164.472 169.087 164.468 169.13 164.473 169.172C164.477 169.215 164.49 169.256 164.51 169.294C164.531 169.332 164.559 169.365 164.592 169.391C164.625 169.418 164.663 169.438 164.704 169.449L164.794 169.47ZM165.794 165.661C165.866 165.659 165.935 165.633 165.991 165.587C166.047 165.542 166.087 165.479 166.104 165.409C166.254 164.762 166.404 164.116 166.534 163.479C166.545 163.438 166.546 163.395 166.54 163.353C166.533 163.311 166.518 163.271 166.496 163.235C166.473 163.199 166.444 163.168 166.409 163.144C166.375 163.12 166.336 163.104 166.294 163.095C166.253 163.085 166.21 163.083 166.168 163.089C166.126 163.096 166.085 163.111 166.049 163.133C166.012 163.156 165.981 163.186 165.956 163.221C165.931 163.256 165.914 163.296 165.904 163.338C165.774 163.974 165.624 164.611 165.474 165.257C165.456 165.341 165.471 165.43 165.516 165.503C165.56 165.576 165.632 165.63 165.714 165.651L165.794 165.661ZM166.614 161.802C166.69 161.804 166.763 161.778 166.822 161.73C166.88 161.682 166.92 161.614 166.934 161.54C167.054 160.893 167.174 160.246 167.284 159.6C167.299 159.516 167.28 159.429 167.231 159.359C167.182 159.289 167.108 159.241 167.024 159.226C166.982 159.217 166.939 159.217 166.897 159.226C166.855 159.234 166.815 159.251 166.779 159.276C166.744 159.3 166.713 159.332 166.69 159.369C166.667 159.405 166.651 159.446 166.644 159.489C166.534 160.125 166.424 160.772 166.294 161.418C166.286 161.461 166.285 161.505 166.294 161.547C166.302 161.59 166.319 161.63 166.344 161.666C166.368 161.702 166.399 161.732 166.435 161.756C166.471 161.779 166.512 161.795 166.554 161.802H166.614ZM167.274 157.923C167.352 157.926 167.427 157.9 167.487 157.849C167.546 157.799 167.584 157.728 167.594 157.65C167.694 156.994 167.784 156.337 167.864 155.69C167.87 155.648 167.867 155.605 167.856 155.563C167.845 155.522 167.826 155.483 167.8 155.449C167.774 155.415 167.741 155.387 167.704 155.366C167.667 155.345 167.626 155.332 167.584 155.327C167.542 155.32 167.499 155.321 167.457 155.332C167.416 155.343 167.377 155.362 167.343 155.388C167.309 155.415 167.281 155.448 167.261 155.486C167.24 155.524 167.228 155.566 167.224 155.61C167.144 156.243 167.054 156.889 166.954 157.549C166.943 157.635 166.964 157.721 167.015 157.791C167.065 157.861 167.14 157.908 167.224 157.923H167.274ZM167.764 154.013C167.845 154.016 167.923 153.987 167.983 153.933C168.043 153.878 168.079 153.802 168.084 153.72C168.154 153.064 168.224 152.407 168.274 151.761C168.28 151.674 168.252 151.588 168.196 151.522C168.139 151.456 168.06 151.415 167.974 151.407C167.932 151.401 167.89 151.405 167.85 151.417C167.809 151.429 167.772 151.449 167.74 151.477C167.707 151.504 167.681 151.539 167.663 151.577C167.645 151.616 167.635 151.657 167.634 151.7C167.574 152.347 167.514 153.003 167.444 153.66C167.44 153.702 167.444 153.745 167.457 153.786C167.469 153.827 167.489 153.865 167.516 153.898C167.543 153.931 167.576 153.958 167.614 153.978C167.651 153.997 167.692 154.01 167.734 154.013H167.764ZM168.094 150.094C168.176 150.094 168.254 150.063 168.314 150.006C168.373 149.95 168.409 149.873 168.414 149.791C168.414 149.114 168.494 148.457 168.514 147.77C168.517 147.727 168.511 147.684 168.497 147.643C168.483 147.602 168.46 147.564 168.431 147.532C168.402 147.5 168.367 147.474 168.328 147.456C168.289 147.438 168.247 147.428 168.204 147.427C168.12 147.431 168.04 147.464 167.978 147.521C167.916 147.579 167.876 147.656 167.864 147.74C167.864 148.387 167.864 149.043 167.774 149.7C167.769 149.787 167.797 149.872 167.853 149.938C167.909 150.004 167.989 150.046 168.074 150.053L168.094 150.094ZM168.244 146.154C168.329 146.154 168.411 146.12 168.471 146.059C168.531 145.999 168.564 145.916 168.564 145.831C168.564 145.366 168.564 144.911 168.564 144.457V143.861C168.564 143.775 168.531 143.693 168.471 143.632C168.411 143.572 168.329 143.538 168.244 143.538C168.159 143.538 168.078 143.572 168.018 143.632C167.958 143.693 167.924 143.775 167.924 143.861V144.457C167.924 144.911 167.924 145.366 167.924 145.821C167.923 145.864 167.93 145.907 167.946 145.947C167.961 145.988 167.985 146.025 168.014 146.056C168.044 146.087 168.08 146.112 168.119 146.128C168.159 146.145 168.201 146.154 168.244 146.154ZM168.244 142.214C168.287 142.214 168.33 142.205 168.369 142.189C168.409 142.172 168.444 142.147 168.474 142.116C168.504 142.085 168.527 142.048 168.543 142.008C168.558 141.967 168.566 141.924 168.564 141.881C168.564 141.204 168.504 140.547 168.474 139.86C168.467 139.774 168.426 139.693 168.36 139.637C168.295 139.58 168.21 139.552 168.124 139.557C168.082 139.56 168.041 139.571 168.003 139.589C167.965 139.608 167.932 139.634 167.904 139.666C167.876 139.698 167.854 139.735 167.841 139.775C167.827 139.816 167.822 139.858 167.824 139.901C167.824 140.537 167.894 141.194 167.914 141.861C167.91 141.908 167.915 141.956 167.931 142.001C167.947 142.046 167.973 142.087 168.006 142.121C168.04 142.155 168.08 142.181 168.125 142.197C168.17 142.213 168.217 142.219 168.264 142.214H168.244ZM168.014 138.284C168.056 138.281 168.097 138.268 168.135 138.249C168.172 138.229 168.205 138.202 168.232 138.169C168.259 138.136 168.279 138.098 168.292 138.057C168.304 138.016 168.308 137.973 168.304 137.931C168.244 137.257 168.174 136.584 168.094 135.91C168.091 135.867 168.078 135.825 168.058 135.787C168.038 135.749 168.01 135.716 167.976 135.689C167.942 135.663 167.903 135.643 167.861 135.633C167.82 135.622 167.777 135.62 167.734 135.628C167.65 135.64 167.574 135.685 167.522 135.753C167.47 135.82 167.446 135.906 167.454 135.991C167.534 136.607 167.604 137.264 167.664 137.941C167.66 137.991 167.668 138.041 167.686 138.087C167.704 138.133 167.733 138.175 167.77 138.208C167.807 138.241 167.851 138.265 167.898 138.279C167.946 138.292 167.996 138.294 168.044 138.284H168.014ZM167.534 134.375C167.618 134.36 167.692 134.312 167.741 134.242C167.79 134.172 167.809 134.086 167.794 134.001L167.734 133.607C167.644 133.092 167.544 132.597 167.444 132.051C167.436 132.01 167.419 131.97 167.396 131.934C167.372 131.899 167.342 131.869 167.306 131.845C167.271 131.822 167.231 131.805 167.19 131.797C167.148 131.79 167.106 131.79 167.064 131.799C167.022 131.806 166.982 131.822 166.946 131.845C166.91 131.869 166.88 131.9 166.856 131.936C166.833 131.972 166.817 132.012 166.81 132.055C166.802 132.097 166.804 132.141 166.814 132.183C166.914 132.698 167.004 133.193 167.094 133.718L167.164 134.102C167.169 134.148 167.183 134.192 167.205 134.231C167.228 134.27 167.259 134.304 167.296 134.33C167.334 134.356 167.376 134.374 167.42 134.381C167.465 134.389 167.511 134.387 167.554 134.375H167.534ZM166.764 130.516H166.834C166.875 130.508 166.915 130.491 166.949 130.467C166.984 130.443 167.013 130.412 167.036 130.376C167.058 130.34 167.073 130.3 167.08 130.258C167.086 130.216 167.085 130.173 167.074 130.132C166.924 129.485 166.774 128.849 166.604 128.203C166.593 128.161 166.573 128.123 166.547 128.089C166.52 128.055 166.488 128.027 166.45 128.007C166.413 127.986 166.372 127.973 166.33 127.968C166.288 127.964 166.245 127.968 166.204 127.98C166.164 127.991 166.125 128.009 166.092 128.035C166.058 128.061 166.03 128.093 166.008 128.129C165.987 128.166 165.973 128.206 165.967 128.248C165.961 128.29 165.964 128.333 165.974 128.374C166.144 129.011 166.304 129.637 166.444 130.273C166.465 130.347 166.51 130.411 166.572 130.456C166.634 130.5 166.709 130.521 166.784 130.516H166.764ZM165.764 126.717H165.854C165.895 126.706 165.933 126.686 165.967 126.659C166 126.633 166.028 126.6 166.048 126.562C166.069 126.524 166.081 126.483 166.086 126.44C166.09 126.398 166.087 126.355 166.074 126.313C165.884 125.677 165.684 125.051 165.474 124.424C165.461 124.384 165.439 124.346 165.411 124.314C165.383 124.282 165.349 124.255 165.311 124.237C165.273 124.218 165.232 124.207 165.189 124.204C165.147 124.202 165.104 124.208 165.064 124.222C165.024 124.236 164.987 124.257 164.955 124.286C164.923 124.314 164.897 124.348 164.878 124.387C164.86 124.426 164.849 124.467 164.847 124.51C164.844 124.553 164.85 124.596 164.864 124.636C165.074 125.253 165.264 125.879 165.454 126.505C165.478 126.571 165.522 126.627 165.579 126.665C165.637 126.703 165.705 126.722 165.774 126.717H165.764ZM164.514 122.98C164.55 122.989 164.588 122.989 164.624 122.98C164.704 122.95 164.768 122.89 164.804 122.812C164.84 122.735 164.843 122.646 164.814 122.566C164.584 121.949 164.344 121.333 164.084 120.727C164.069 120.687 164.046 120.65 164.016 120.619C163.987 120.589 163.951 120.564 163.912 120.547C163.873 120.53 163.831 120.521 163.788 120.521C163.746 120.52 163.704 120.529 163.664 120.545C163.625 120.562 163.59 120.586 163.561 120.616C163.531 120.646 163.508 120.682 163.492 120.722C163.476 120.761 163.468 120.803 163.469 120.846C163.469 120.888 163.478 120.93 163.494 120.969C163.744 121.576 163.984 122.182 164.204 122.798C164.234 122.857 164.28 122.906 164.337 122.938C164.394 122.97 164.459 122.985 164.524 122.98H164.514ZM163.044 119.404C163.09 119.413 163.138 119.413 163.184 119.404C163.262 119.366 163.321 119.3 163.351 119.219C163.381 119.138 163.379 119.048 163.344 118.969C163.064 118.373 162.784 117.777 162.484 117.181C162.444 117.107 162.377 117.051 162.297 117.024C162.217 116.998 162.13 117.003 162.054 117.04C161.976 117.079 161.917 117.147 161.889 117.231C161.861 117.314 161.866 117.405 161.904 117.484C162.204 118.06 162.484 118.646 162.754 119.242C162.783 119.294 162.825 119.337 162.876 119.365C162.927 119.394 162.986 119.407 163.044 119.404ZM161.284 115.888C161.333 115.902 161.385 115.902 161.434 115.888C161.472 115.868 161.506 115.84 161.533 115.807C161.56 115.774 161.58 115.735 161.592 115.694C161.604 115.652 161.608 115.609 161.603 115.566C161.599 115.523 161.585 115.481 161.564 115.444C161.244 114.868 160.914 114.292 160.564 113.736C160.544 113.699 160.516 113.666 160.482 113.64C160.448 113.613 160.409 113.594 160.368 113.584C160.327 113.574 160.284 113.572 160.242 113.579C160.2 113.586 160.16 113.602 160.124 113.625C160.088 113.647 160.057 113.676 160.031 113.71C160.006 113.744 159.988 113.783 159.978 113.824C159.968 113.866 159.966 113.909 159.972 113.951C159.978 113.993 159.992 114.033 160.014 114.07C160.354 114.625 160.674 115.191 161.014 115.767C161.047 115.795 161.086 115.815 161.127 115.828C161.168 115.84 161.212 115.843 161.254 115.838L161.284 115.888ZM159.284 112.524C159.343 112.542 159.406 112.542 159.464 112.524C159.5 112.501 159.531 112.47 159.555 112.434C159.579 112.399 159.596 112.358 159.604 112.316C159.613 112.274 159.613 112.23 159.604 112.188C159.595 112.145 159.579 112.105 159.554 112.069C159.184 111.524 158.814 110.978 158.424 110.443C158.373 110.375 158.297 110.33 158.213 110.317C158.129 110.303 158.044 110.323 157.974 110.372C157.907 110.424 157.862 110.501 157.849 110.585C157.836 110.67 157.856 110.756 157.904 110.827C158.284 111.352 158.654 111.888 159.014 112.433C159.078 112.47 159.152 112.485 159.224 112.473L159.284 112.524ZM115.284 110.291H115.694C115.736 110.289 115.777 110.278 115.815 110.259C115.853 110.241 115.887 110.215 115.915 110.183C115.943 110.151 115.964 110.114 115.978 110.073C115.991 110.033 115.997 109.99 115.994 109.948C115.993 109.905 115.983 109.863 115.965 109.824C115.947 109.785 115.921 109.75 115.889 109.722C115.858 109.693 115.82 109.672 115.78 109.659C115.739 109.645 115.697 109.641 115.654 109.645C115.272 109.68 114.887 109.68 114.504 109.645C114.275 109.616 114.048 109.572 113.824 109.514C113.741 109.492 113.652 109.504 113.577 109.547C113.503 109.591 113.448 109.662 113.424 109.746C113.414 109.788 113.412 109.831 113.418 109.874C113.425 109.916 113.44 109.957 113.462 109.994C113.484 110.031 113.514 110.063 113.549 110.088C113.583 110.113 113.623 110.13 113.664 110.14C113.917 110.211 114.174 110.261 114.434 110.291C114.682 110.287 114.929 110.27 115.174 110.241L115.284 110.291ZM117.584 109.897H117.684C118.334 109.667 118.939 109.325 119.474 108.887C119.534 108.825 119.568 108.742 119.568 108.655C119.568 108.568 119.534 108.485 119.474 108.423C119.444 108.391 119.409 108.367 119.369 108.35C119.33 108.333 119.287 108.324 119.244 108.324C119.201 108.324 119.159 108.333 119.119 108.35C119.08 108.367 119.044 108.391 119.014 108.423C118.536 108.808 117.999 109.112 117.424 109.322C117.384 109.335 117.347 109.357 117.315 109.385C117.283 109.413 117.257 109.448 117.238 109.486C117.22 109.525 117.209 109.567 117.207 109.61C117.204 109.652 117.21 109.695 117.224 109.736C117.256 109.771 117.294 109.8 117.337 109.819C117.38 109.838 117.427 109.848 117.474 109.847L117.584 109.897ZM157.034 109.352C157.107 109.353 157.178 109.328 157.234 109.281C157.294 109.219 157.328 109.136 157.328 109.049C157.328 108.962 157.294 108.879 157.234 108.817C156.824 108.301 156.394 107.806 155.974 107.301C155.913 107.241 155.83 107.207 155.744 107.207C155.658 107.207 155.576 107.241 155.514 107.301C155.454 107.363 155.421 107.447 155.421 107.534C155.421 107.62 155.454 107.704 155.514 107.766C155.934 108.251 156.354 108.776 156.754 109.261C156.807 109.289 156.865 109.303 156.924 109.301L157.034 109.352ZM111.974 109.301C112.027 109.3 112.079 109.286 112.125 109.262C112.172 109.237 112.213 109.203 112.244 109.16C112.29 109.086 112.305 108.997 112.286 108.912C112.267 108.827 112.216 108.753 112.144 108.705C111.628 108.359 111.161 107.945 110.754 107.473C110.694 107.413 110.614 107.38 110.529 107.38C110.445 107.38 110.364 107.413 110.304 107.473C110.244 107.535 110.211 107.619 110.211 107.705C110.211 107.792 110.244 107.875 110.304 107.938C110.748 108.46 111.263 108.916 111.834 109.291C111.844 109.295 111.854 109.299 111.864 109.301H111.974ZM120.504 107.433C120.562 107.431 120.618 107.414 120.667 107.384C120.716 107.354 120.756 107.312 120.784 107.261C121.114 106.632 121.328 105.947 121.414 105.24C121.42 105.198 121.417 105.155 121.406 105.113C121.395 105.072 121.376 105.033 121.35 104.999C121.324 104.965 121.291 104.937 121.254 104.916C121.217 104.895 121.176 104.882 121.134 104.877C121.051 104.865 120.966 104.887 120.899 104.938C120.831 104.989 120.787 105.065 120.774 105.149C120.691 105.763 120.505 106.357 120.224 106.907C120.203 106.945 120.19 106.986 120.185 107.029C120.18 107.072 120.184 107.116 120.196 107.157C120.208 107.199 120.229 107.237 120.256 107.271C120.283 107.304 120.316 107.332 120.354 107.352C120.367 107.363 120.38 107.373 120.394 107.382L120.504 107.433ZM154.454 106.422C154.54 106.423 154.622 106.391 154.684 106.331C154.744 106.269 154.778 106.186 154.778 106.099C154.778 106.012 154.744 105.929 154.684 105.867C154.224 105.392 153.754 104.927 153.284 104.473C153.223 104.412 153.14 104.378 153.054 104.378C152.968 104.378 152.886 104.412 152.824 104.473C152.765 104.533 152.732 104.615 152.732 104.7C152.732 104.785 152.765 104.867 152.824 104.927C153.284 105.372 153.744 105.836 154.194 106.301C154.24 106.328 154.292 106.342 154.344 106.342L154.454 106.422ZM109.454 106.422C109.504 106.432 109.555 106.432 109.604 106.422C109.679 106.38 109.734 106.31 109.76 106.228C109.786 106.145 109.781 106.056 109.744 105.978C109.463 105.416 109.258 104.818 109.134 104.2C109.125 104.158 109.107 104.118 109.082 104.083C109.058 104.048 109.026 104.018 108.99 103.996C108.953 103.973 108.913 103.958 108.871 103.951C108.829 103.945 108.786 103.947 108.744 103.957C108.703 103.966 108.663 103.982 108.628 104.006C108.593 104.03 108.563 104.061 108.54 104.097C108.517 104.132 108.501 104.172 108.493 104.214C108.485 104.256 108.486 104.299 108.494 104.341C108.639 105.01 108.864 105.657 109.164 106.271C109.212 106.301 109.268 106.319 109.324 106.321L109.454 106.422ZM151.644 103.745C151.69 103.745 151.735 103.735 151.776 103.716C151.818 103.697 151.854 103.669 151.884 103.634C151.944 103.572 151.978 103.489 151.978 103.402C151.978 103.315 151.944 103.232 151.884 103.169L151.284 102.664L150.354 101.927C150.285 101.874 150.198 101.85 150.112 101.862C150.026 101.873 149.948 101.918 149.894 101.987C149.845 102.057 149.823 102.142 149.835 102.227C149.846 102.311 149.889 102.388 149.954 102.442L150.874 103.169L151.464 103.675C151.482 103.666 151.499 103.656 151.514 103.644L151.644 103.745ZM121.124 103.654C121.21 103.644 121.289 103.6 121.343 103.532C121.397 103.464 121.423 103.378 121.414 103.291C121.338 102.605 121.197 101.929 120.994 101.27C120.983 101.229 120.963 101.19 120.937 101.157C120.91 101.123 120.878 101.095 120.84 101.074C120.803 101.054 120.762 101.041 120.72 101.036C120.678 101.032 120.635 101.036 120.594 101.048C120.553 101.059 120.515 101.079 120.483 101.106C120.45 101.133 120.422 101.166 120.403 101.204C120.383 101.242 120.371 101.284 120.368 101.326C120.365 101.369 120.37 101.412 120.384 101.452C120.566 102.063 120.696 102.688 120.774 103.321C120.788 103.376 120.815 103.426 120.854 103.467C120.892 103.508 120.941 103.537 120.994 103.553L121.124 103.654ZM108.674 102.644C108.756 102.644 108.834 102.613 108.894 102.557C108.953 102.5 108.989 102.423 108.994 102.341C109.04 101.72 109.182 101.11 109.414 100.533C109.431 100.494 109.439 100.452 109.44 100.409C109.44 100.367 109.432 100.324 109.416 100.285C109.401 100.246 109.377 100.21 109.348 100.179C109.318 100.149 109.283 100.125 109.244 100.108C109.206 100.092 109.164 100.083 109.122 100.083C109.08 100.082 109.038 100.09 108.999 100.106C108.96 100.122 108.924 100.146 108.894 100.176C108.865 100.206 108.841 100.241 108.824 100.28C108.559 100.923 108.4 101.606 108.354 102.301C108.35 102.344 108.355 102.388 108.368 102.429C108.381 102.47 108.402 102.509 108.43 102.542C108.458 102.575 108.492 102.602 108.531 102.621C108.569 102.64 108.611 102.652 108.654 102.654L108.674 102.644ZM148.414 101.22C148.467 101.221 148.52 101.208 148.567 101.184C148.614 101.159 148.654 101.123 148.684 101.078C148.732 101.007 148.75 100.919 148.735 100.835C148.72 100.75 148.673 100.674 148.604 100.624C148.064 100.25 147.504 99.8862 146.954 99.5428C146.88 99.4979 146.791 99.4844 146.707 99.5052C146.623 99.5259 146.55 99.5794 146.504 99.6539C146.483 99.6904 146.468 99.7308 146.462 99.7729C146.456 99.815 146.458 99.8579 146.468 99.8992C146.478 99.9405 146.496 99.9794 146.521 100.014C146.547 100.048 146.578 100.077 146.614 100.098C147.161 100.442 147.701 100.795 148.234 101.159C148.287 101.197 148.35 101.218 148.414 101.22ZM119.914 99.7549C119.957 99.7652 120.002 99.7652 120.044 99.7549C120.123 99.7194 120.185 99.6541 120.217 99.5728C120.249 99.4916 120.248 99.401 120.214 99.3205C119.964 98.7447 119.674 98.1386 119.344 97.5325C119.324 97.4942 119.297 97.4604 119.264 97.433C119.231 97.4056 119.193 97.3852 119.152 97.3729C119.111 97.3607 119.068 97.3568 119.025 97.3617C118.983 97.3665 118.942 97.38 118.904 97.4011C118.83 97.4437 118.775 97.5139 118.75 97.5968C118.726 97.6798 118.735 97.769 118.774 97.8456C119.094 98.4315 119.384 99.0175 119.624 99.5832C119.648 99.6418 119.688 99.6922 119.739 99.7281C119.791 99.7641 119.852 99.7839 119.914 99.7852V99.7549ZM145.044 99.1993C145.104 99.2007 145.162 99.1853 145.213 99.155C145.265 99.1247 145.306 99.0805 145.334 99.0275C145.374 98.9509 145.382 98.8617 145.358 98.7788C145.334 98.6958 145.279 98.6257 145.204 98.5831C144.634 98.2699 144.044 97.9668 143.454 97.6739C143.416 97.655 143.375 97.644 143.333 97.6414C143.29 97.6388 143.248 97.6448 143.208 97.6589C143.168 97.673 143.131 97.6949 143.1 97.7235C143.068 97.7521 143.042 97.7868 143.024 97.8254C143.006 97.8638 142.995 97.9056 142.992 97.9483C142.99 97.9911 142.995 98.0339 143.009 98.0743C143.023 98.1147 143.045 98.1519 143.073 98.1837C143.102 98.2156 143.136 98.2414 143.174 98.2598C143.754 98.5427 144.334 98.8457 144.894 99.1589C144.939 99.1864 144.992 99.2004 145.044 99.1993ZM109.964 98.9467C110.012 98.9461 110.059 98.9349 110.103 98.9139C110.146 98.893 110.184 98.8628 110.214 98.8255C110.619 98.3477 111.075 97.9173 111.574 97.5425C111.61 97.5184 111.64 97.4872 111.663 97.4507C111.686 97.4143 111.701 97.3734 111.708 97.3307C111.714 97.288 111.712 97.2444 111.701 97.2026C111.69 97.1609 111.671 97.1218 111.644 97.088C111.62 97.0521 111.589 97.0216 111.553 96.9984C111.517 96.9752 111.477 96.9598 111.435 96.9531C111.392 96.9465 111.349 96.9488 111.308 96.9598C111.266 96.9708 111.228 96.9904 111.194 97.0172C110.65 97.4235 110.153 97.8912 109.714 98.4113C109.657 98.473 109.626 98.5543 109.626 98.6386C109.626 98.723 109.657 98.8042 109.714 98.8659C109.758 98.9057 109.812 98.9331 109.87 98.9455C109.928 98.9579 109.988 98.9549 110.044 98.9366L109.964 98.9467ZM141.544 97.4819C141.608 97.4789 141.669 97.4585 141.722 97.4229C141.775 97.3874 141.817 97.3379 141.844 97.2799C141.861 97.2408 141.869 97.1987 141.87 97.1562C141.87 97.1137 141.862 97.0715 141.846 97.0321C141.831 96.9927 141.807 96.9568 141.778 96.9265C141.748 96.8962 141.713 96.8721 141.674 96.8556C141.064 96.5929 140.454 96.3505 139.844 96.1182C139.763 96.0885 139.674 96.0919 139.596 96.1278C139.517 96.1636 139.456 96.2291 139.424 96.3101C139.395 96.3932 139.4 96.4844 139.438 96.5639C139.475 96.6434 139.542 96.7047 139.624 96.7344C140.224 96.9566 140.824 97.1991 141.414 97.4516C141.471 97.4763 141.534 97.4834 141.594 97.4718L141.544 97.4819ZM113.054 96.593C113.1 96.6077 113.149 96.6077 113.194 96.593C113.767 96.314 114.354 96.0678 114.954 95.8555C114.995 95.8419 115.032 95.8203 115.064 95.792C115.096 95.7637 115.122 95.7293 115.14 95.6907C115.159 95.6522 115.17 95.6103 115.172 95.5675C115.174 95.5246 115.168 95.4817 115.154 95.4413C115.141 95.4006 115.119 95.3631 115.091 95.3308C115.063 95.2986 115.029 95.2723 114.991 95.2535C114.953 95.2347 114.912 95.2238 114.869 95.2213C114.827 95.2189 114.784 95.225 114.744 95.2393C114.117 95.4599 113.503 95.7162 112.904 96.007C112.828 96.0479 112.771 96.1173 112.745 96.2004C112.718 96.2835 112.725 96.3737 112.764 96.4515C112.801 96.5057 112.853 96.5473 112.914 96.5708C112.975 96.5942 113.041 96.5985 113.104 96.5829L113.054 96.593ZM118.054 96.3202C118.115 96.324 118.175 96.3061 118.224 96.2697C118.261 96.248 118.292 96.2191 118.317 96.1846C118.342 96.1501 118.36 96.1109 118.369 96.0692C118.379 96.0276 118.379 95.9845 118.372 95.9425C118.364 95.9006 118.348 95.8606 118.324 95.8252C118.164 95.5625 117.994 95.31 117.824 95.0372L118.714 94.8554C118.798 94.8406 118.872 94.7929 118.921 94.7228C118.97 94.6528 118.989 94.566 118.974 94.4816C118.967 94.4388 118.951 94.3979 118.928 94.3613C118.905 94.3248 118.875 94.2933 118.839 94.2688C118.804 94.2443 118.764 94.2272 118.722 94.2187C118.68 94.2101 118.636 94.2102 118.594 94.219C118.204 94.2897 117.814 94.3705 117.434 94.4614L117.234 94.1785C117.21 94.143 117.179 94.1127 117.144 94.0894C117.108 94.0661 117.068 94.0502 117.026 94.0426C116.984 94.0351 116.941 94.0361 116.9 94.0456C116.858 94.055 116.819 94.0728 116.784 94.0977C116.749 94.122 116.719 94.1531 116.696 94.1892C116.673 94.2253 116.657 94.2657 116.65 94.3081C116.642 94.3504 116.643 94.3938 116.653 94.4357C116.662 94.4777 116.68 94.5173 116.704 94.5523L116.754 94.623H116.674C116.591 94.6468 116.519 94.7018 116.475 94.7769C116.43 94.8521 116.416 94.9415 116.434 95.0271C116.46 95.1096 116.515 95.1793 116.589 95.2223C116.663 95.2654 116.751 95.2787 116.834 95.2595L117.144 95.1888C117.374 95.512 117.584 95.8454 117.784 96.199C117.816 96.237 117.856 96.2668 117.901 96.2862C117.946 96.3055 117.995 96.3137 118.044 96.3101L118.054 96.3202ZM137.914 96.1081C137.983 96.111 138.051 96.0908 138.107 96.0506C138.163 96.0103 138.204 95.9524 138.224 95.8858C138.25 95.8027 138.242 95.7129 138.203 95.6356C138.163 95.5582 138.096 95.4994 138.014 95.4716C137.394 95.2797 136.754 95.0877 136.124 94.9261C136.084 94.914 136.041 94.9105 135.999 94.9158C135.957 94.921 135.916 94.935 135.879 94.9568C135.843 94.9786 135.811 95.0077 135.786 95.0424C135.761 95.0771 135.744 95.1166 135.734 95.1584C135.724 95.1996 135.721 95.2424 135.727 95.2844C135.733 95.3265 135.747 95.367 135.768 95.4036C135.79 95.4402 135.818 95.4722 135.852 95.4977C135.885 95.5232 135.924 95.5419 135.964 95.5524C136.584 95.7141 137.204 95.906 137.824 96.0979L137.914 96.1081ZM134.154 95.0978C134.229 95.0988 134.301 95.0729 134.358 95.0247C134.414 94.9764 134.452 94.9092 134.464 94.8352C134.473 94.7934 134.474 94.7502 134.466 94.7083C134.458 94.6663 134.442 94.6262 134.419 94.5905C134.395 94.5548 134.365 94.5242 134.33 94.5003C134.295 94.4764 134.256 94.4597 134.214 94.4513C133.574 94.3099 132.924 94.1886 132.284 94.0876C132.201 94.073 132.115 94.0924 132.045 94.1416C131.976 94.1909 131.929 94.2659 131.914 94.3503C131.906 94.393 131.906 94.437 131.915 94.4795C131.924 94.522 131.942 94.5622 131.968 94.5974C131.993 94.6325 132.025 94.662 132.063 94.6838C132.1 94.7056 132.141 94.7193 132.184 94.7241C132.814 94.8352 133.454 94.9564 134.084 95.0877L134.154 95.0978ZM120.584 94.5422C121.214 94.4513 121.864 94.3806 122.504 94.3301C122.59 94.3223 122.669 94.281 122.725 94.215C122.782 94.1489 122.81 94.0633 122.804 93.9765C122.801 93.934 122.788 93.8926 122.769 93.8548C122.749 93.817 122.722 93.7836 122.69 93.7563C122.657 93.7291 122.62 93.7087 122.579 93.6962C122.539 93.6837 122.496 93.6794 122.454 93.6835C121.804 93.6835 121.144 93.8048 120.454 93.8957C120.412 93.9006 120.372 93.914 120.336 93.9352C120.299 93.9564 120.267 93.9848 120.242 94.0189C120.217 94.0529 120.198 94.0918 120.189 94.1331C120.179 94.1745 120.177 94.2174 120.184 94.2593C120.188 94.3084 120.203 94.356 120.227 94.3984C120.252 94.4409 120.285 94.4771 120.326 94.5044C120.366 94.5317 120.413 94.5493 120.461 94.5558C120.509 94.5624 120.558 94.5577 120.604 94.5422H120.584ZM130.304 94.4614C130.384 94.4618 130.461 94.4319 130.521 94.3777C130.58 94.3235 130.617 94.2488 130.624 94.1684C130.633 94.0842 130.608 94 130.556 93.9339C130.503 93.8677 130.427 93.825 130.344 93.8149C129.694 93.7341 129.034 93.6734 128.344 93.633C128.302 93.6303 128.26 93.636 128.22 93.6497C128.18 93.6635 128.144 93.6851 128.112 93.7132C128.08 93.7414 128.055 93.7756 128.036 93.8138C128.018 93.852 128.007 93.8936 128.004 93.9361C128 93.9789 128.005 94.022 128.018 94.0629C128.031 94.1038 128.052 94.1415 128.08 94.1737C128.108 94.2059 128.143 94.2319 128.181 94.2502C128.22 94.2684 128.262 94.2784 128.304 94.2796C128.944 94.3301 129.594 94.3806 130.224 94.4614H130.304ZM124.464 94.219C125.114 94.219 125.754 94.219 126.404 94.219C126.446 94.2203 126.487 94.2132 126.526 94.1981C126.565 94.183 126.6 94.1601 126.63 94.1309C126.66 94.1017 126.684 94.0667 126.7 94.028C126.716 93.9893 126.724 93.9478 126.724 93.9058C126.726 93.8633 126.719 93.821 126.704 93.7813C126.689 93.7415 126.666 93.7052 126.638 93.6742C126.609 93.6432 126.574 93.6183 126.536 93.6008C126.498 93.5834 126.456 93.5737 126.414 93.5724C125.754 93.5724 125.104 93.5724 124.414 93.5724C124.371 93.5737 124.329 93.5837 124.29 93.6018C124.251 93.6199 124.216 93.6457 124.187 93.6778C124.158 93.7098 124.136 93.7474 124.122 93.7883C124.108 93.8292 124.102 93.8726 124.104 93.9159C124.106 93.9622 124.118 94.0076 124.139 94.0489C124.16 94.0902 124.19 94.1265 124.226 94.1552C124.262 94.184 124.303 94.2045 124.348 94.2155C124.393 94.2265 124.439 94.2277 124.484 94.219H124.464ZM115.814 93.0976C115.887 93.0985 115.958 93.0735 116.014 93.0269C116.073 92.9664 116.107 92.8847 116.107 92.7996C116.107 92.7145 116.073 92.6328 116.014 92.5723C115.614 92.047 115.194 91.5621 114.774 91.0267C114.714 90.9668 114.634 90.9333 114.549 90.9333C114.465 90.9333 114.384 90.9668 114.324 91.0267C114.264 91.0889 114.231 91.1723 114.231 91.259C114.231 91.3458 114.264 91.4291 114.324 91.4914C114.734 91.9763 115.154 92.5016 115.544 92.9966C115.576 93.0439 115.619 93.082 115.67 93.1069C115.721 93.1317 115.778 93.1424 115.834 93.138L115.814 93.0976ZM113.274 90.067C113.315 90.0672 113.356 90.0593 113.393 90.0437C113.431 90.0281 113.465 90.0051 113.494 89.9761C113.525 89.9468 113.549 89.9115 113.566 89.8725C113.582 89.8334 113.591 89.7913 113.591 89.7487C113.591 89.7062 113.582 89.6641 113.566 89.6251C113.549 89.586 113.525 89.5507 113.494 89.5215C113.044 89.0366 112.574 88.5719 112.094 88.1274C112.065 88.0965 112.03 88.0719 111.992 88.0551C111.953 88.0383 111.911 88.0296 111.869 88.0296C111.827 88.0296 111.785 88.0383 111.747 88.0551C111.708 88.0719 111.673 88.0965 111.644 88.1274C111.613 88.1575 111.589 88.1936 111.572 88.2335C111.555 88.2734 111.547 88.3164 111.547 88.3597C111.547 88.4031 111.555 88.446 111.572 88.4859C111.589 88.5258 111.613 88.5619 111.644 88.5921C112.114 89.0265 112.574 89.4912 113.024 89.9559C113.051 90.0043 113.09 90.0441 113.138 90.0709C113.185 90.0978 113.24 90.1104 113.294 90.1074L113.274 90.067ZM110.424 87.3899C110.519 87.3875 110.609 87.3476 110.674 87.2788C110.734 87.2166 110.768 87.1332 110.768 87.0464C110.768 86.9597 110.734 86.8763 110.674 86.8141C110.164 86.3898 109.674 85.9857 109.114 85.6018C109.08 85.5769 109.04 85.5591 108.999 85.5497C108.957 85.5402 108.914 85.5392 108.872 85.5468C108.831 85.5543 108.791 85.5702 108.755 85.5935C108.719 85.6169 108.688 85.6471 108.664 85.6826C108.639 85.717 108.621 85.7561 108.611 85.7977C108.601 85.8393 108.599 85.8824 108.605 85.9247C108.612 85.967 108.626 86.0076 108.649 86.0441C108.671 86.0805 108.7 86.1122 108.734 86.1373C109.254 86.5144 109.764 86.9084 110.264 87.3192C110.31 87.3763 110.373 87.4157 110.444 87.4303L110.424 87.3899ZM107.254 85.1068C107.308 85.1066 107.361 85.0927 107.409 85.0662C107.456 85.0397 107.496 85.0015 107.524 84.9553C107.57 84.8813 107.585 84.7924 107.566 84.7074C107.547 84.6225 107.496 84.5483 107.424 84.5007C106.864 84.1572 106.284 83.8239 105.704 83.4905C105.627 83.4513 105.538 83.4441 105.456 83.4705C105.373 83.497 105.305 83.5549 105.264 83.6319C105.226 83.7083 105.219 83.7969 105.245 83.8784C105.272 83.9598 105.329 84.0274 105.404 84.0663C105.974 84.3694 106.534 84.6926 107.084 85.0765C107.11 85.1005 107.14 85.1192 107.172 85.1313C107.205 85.1435 107.24 85.1489 107.274 85.1472L107.254 85.1068ZM103.794 83.2885C103.857 83.29 103.92 83.2725 103.973 83.2384C104.026 83.2042 104.069 83.1549 104.094 83.0965C104.111 83.0574 104.119 83.0154 104.12 82.9729C104.12 82.9303 104.112 82.8881 104.096 82.8487C104.081 82.8093 104.057 82.7734 104.028 82.7431C103.998 82.7129 103.963 82.6888 103.924 82.6722C103.324 82.4096 102.704 82.1671 102.084 81.9449C102.044 81.9306 102.002 81.9245 101.959 81.9269C101.917 81.9294 101.876 81.9403 101.837 81.9591C101.799 81.9779 101.765 82.0042 101.737 82.0364C101.709 82.0687 101.688 82.1062 101.674 82.1469C101.66 82.1873 101.654 82.2302 101.657 82.2731C101.659 82.3159 101.67 82.3578 101.688 82.3963C101.707 82.4349 101.733 82.4693 101.765 82.4976C101.797 82.5259 101.834 82.5475 101.874 82.5611C102.474 82.7732 103.084 83.0157 103.664 83.2683C103.708 83.3011 103.76 83.322 103.814 83.3289L103.794 83.2885ZM78.8943 82.4803H78.9643L80.8643 82.0762C80.9067 82.0689 80.9471 82.0532 80.9833 82.0298C81.0195 82.0064 81.0507 81.9758 81.0749 81.94C81.0992 81.9042 81.1161 81.8638 81.1245 81.8212C81.133 81.7787 81.133 81.7348 81.1243 81.6923C81.1051 81.609 81.055 81.5364 80.9842 81.4893C80.9135 81.4423 80.8276 81.4246 80.7443 81.4398C80.1043 81.561 79.4643 81.7024 78.8243 81.8439C78.7419 81.8632 78.6699 81.9139 78.6234 81.9853C78.5769 82.0568 78.5593 82.1436 78.5743 82.2277C78.5864 82.3098 78.6275 82.3847 78.69 82.4385C78.7525 82.4924 78.8321 82.5216 78.9143 82.5207L78.8943 82.4803ZM100.114 81.9954C100.187 81.9977 100.258 81.975 100.316 81.9309C100.375 81.8868 100.416 81.8241 100.434 81.7529C100.445 81.7118 100.447 81.669 100.441 81.6269C100.435 81.5848 100.421 81.5444 100.4 81.5078C100.379 81.4712 100.35 81.4392 100.317 81.4137C100.283 81.3881 100.245 81.3695 100.204 81.3589C99.5743 81.1872 98.9343 81.0256 98.2843 80.8943C98.1995 80.8794 98.1124 80.8985 98.0415 80.9476C97.9705 80.9966 97.9212 81.0717 97.9043 81.1569C97.8892 81.2411 97.9068 81.3278 97.9533 81.3993C97.9999 81.4707 98.0718 81.5214 98.1543 81.5408C98.7943 81.662 99.4243 81.8135 100.034 81.9853L100.114 81.9954ZM82.7143 81.7125H82.7743C83.4409 81.598 84.081 81.497 84.6943 81.4095C84.7785 81.3946 84.8535 81.3473 84.9039 81.2776C84.9543 81.2079 84.9759 81.1212 84.9643 81.0357C84.9594 80.9934 84.9462 80.9526 84.9252 80.9157C84.9042 80.8788 84.876 80.8466 84.8423 80.8211C84.8086 80.7956 84.7701 80.7773 84.7292 80.7673C84.6883 80.7573 84.6458 80.7558 84.6043 80.7629C83.9543 80.8538 83.3143 80.9548 82.6643 81.066C82.5808 81.0808 82.5065 81.1285 82.4577 81.1985C82.409 81.2686 82.3897 81.3554 82.4043 81.4398C82.4042 81.4827 82.4128 81.5251 82.4297 81.5644C82.4465 81.6038 82.4711 81.6393 82.502 81.6687C82.533 81.698 82.5696 81.7207 82.6095 81.7351C82.6495 81.7496 82.6919 81.7557 82.7343 81.7529L82.7143 81.7125ZM96.3043 81.2175C96.3821 81.2161 96.4569 81.1868 96.5154 81.1351C96.574 81.0833 96.6125 81.0124 96.6243 80.9347C96.6299 80.8922 96.627 80.8489 96.6159 80.8076C96.6048 80.7662 96.5857 80.7274 96.5597 80.6936C96.5336 80.6597 96.5011 80.6315 96.4641 80.6104C96.4272 80.5894 96.3864 80.576 96.3443 80.571C95.7043 80.4801 95.0443 80.4094 94.3443 80.3588C94.3027 80.3547 94.2609 80.359 94.221 80.3716C94.1812 80.3842 94.1443 80.4049 94.1126 80.4322C94.0808 80.4596 94.0548 80.4931 94.0362 80.5308C94.0176 80.5686 94.0068 80.6097 94.0043 80.6518C94.0002 80.6943 94.0044 80.7372 94.0168 80.778C94.0291 80.8188 94.0494 80.8568 94.0763 80.8896C94.1033 80.9225 94.1365 80.9497 94.1739 80.9695C94.2113 80.9894 94.2522 81.0016 94.2943 81.0054C94.9443 81.0559 95.5943 81.1266 96.2143 81.2175H96.3043ZM86.5743 81.167C87.2143 81.0963 87.8643 81.0458 88.5043 80.9953C88.5464 80.9927 88.5875 80.9818 88.6253 80.9631C88.6632 80.9444 88.697 80.9184 88.7249 80.8865C88.7528 80.8546 88.7741 80.8174 88.7878 80.7771C88.8014 80.7369 88.807 80.6943 88.8043 80.6518C88.8018 80.6084 88.7907 80.5659 88.7716 80.527C88.7525 80.488 88.7258 80.4534 88.6931 80.4251C88.6604 80.3968 88.6224 80.3754 88.5814 80.3623C88.5404 80.3492 88.4971 80.3446 88.4543 80.3487C87.8043 80.3487 87.1543 80.4498 86.4543 80.5205C86.4122 80.5243 86.3712 80.5364 86.3338 80.5563C86.2964 80.5762 86.2633 80.6033 86.2364 80.6362C86.2094 80.6691 86.1892 80.707 86.1768 80.7478C86.1644 80.7887 86.1601 80.8315 86.1643 80.874C86.1592 80.9285 86.1679 80.9834 86.1895 81.0336C86.2112 81.0837 86.2451 81.1275 86.2881 81.1608C86.331 81.1941 86.3817 81.2159 86.4352 81.224C86.4888 81.2322 86.5435 81.2265 86.5943 81.2074L86.5743 81.167ZM92.4143 80.9044C92.4984 80.9045 92.5795 80.8722 92.6408 80.8139C92.7022 80.7557 92.7392 80.676 92.7443 80.5912C92.7456 80.5479 92.7383 80.5048 92.7229 80.4644C92.7074 80.424 92.684 80.3871 92.6541 80.356C92.6243 80.3249 92.5886 80.3002 92.5491 80.2833C92.5096 80.2665 92.4672 80.2578 92.4243 80.2578C91.7743 80.2578 91.1143 80.2578 90.4243 80.2578C90.3814 80.2578 90.339 80.2665 90.2995 80.2833C90.26 80.3002 90.2242 80.3249 90.1944 80.356C90.1645 80.3871 90.1412 80.424 90.1257 80.4644C90.1102 80.5048 90.1029 80.5479 90.1043 80.5912C90.1069 80.6751 90.1417 80.7548 90.2014 80.8133C90.2612 80.8717 90.3411 80.9044 90.4243 80.9044H92.3743H92.4143Z" fill="#999999"/>
<path d="M42.4545 28.3441L39.6346 29.5765L28.3646 21.6363L25.3646 23.3132C22.9546 24.7679 20.6146 24.8689 19.4946 24.2224L19.2645 24.3335C17.5245 25.1013 16.4945 24.4143 16.1445 23.586C15.7945 22.7576 15.9946 21.5655 17.7346 20.7776L17.9645 20.6765C18.1745 19.6663 19.0846 17.9692 22.6346 16.9691L25.9045 15.9083L27.9045 2.17955L30.7245 0.937012L32.9146 13.6556L40.9745 10.8674L42.1946 7.60439L44.4346 6.76593L44.5945 9.79657L45.3945 9.72584L46.1246 11.4129L45.5245 12.0089L47.6445 14.2314L45.5046 15.3123L42.3246 13.9789L34.7946 18.0197L42.4545 28.3441ZM42.2446 13.2414L45.4446 14.585L46.4446 14.0597L44.5046 12.0392L45.2346 11.2917L44.8945 10.4936L43.8945 10.5845L43.7446 7.75595L42.6545 8.16003L41.4346 11.4331L32.3146 14.5749L30.1445 1.93711L28.4545 2.67458L26.5046 16.4539L22.8146 17.6459C19.3746 18.6056 18.6945 20.1613 18.5945 20.9998V21.212L18.3945 21.2827C18.2675 21.3192 18.1437 21.3666 18.0245 21.4241C16.9545 21.8888 16.4745 22.6263 16.7845 23.3334C17.0945 24.0406 17.9445 24.2022 19.0145 23.7274C19.1349 23.6783 19.2519 23.6209 19.3646 23.5557L19.5546 23.4446L19.7346 23.5759C20.4646 24.1214 22.5946 24.2224 25.0546 22.7475L28.4146 20.8483L39.7145 28.8189L41.4045 28.0814L33.7446 17.8379L42.2446 13.2414Z" fill="#999999"/>
<path d="M139.234 113.13C139.288 113.131 139.342 113.117 139.389 113.091C139.437 113.064 139.476 113.025 139.504 112.979C139.864 112.426 140.198 111.871 140.504 111.312C140.55 111.238 140.565 111.149 140.546 111.064C140.527 110.979 140.476 110.905 140.404 110.857C140.33 110.812 140.241 110.799 140.157 110.82C140.073 110.84 140 110.894 139.954 110.968C139.614 111.524 139.274 112.069 138.954 112.625C138.93 112.661 138.913 112.701 138.905 112.743C138.896 112.785 138.896 112.829 138.904 112.872C138.913 112.914 138.929 112.954 138.953 112.99C138.977 113.026 139.008 113.056 139.044 113.08C139.103 113.112 139.168 113.129 139.234 113.13ZM141.234 109.776C141.291 109.776 141.346 109.761 141.395 109.732C141.444 109.704 141.485 109.663 141.514 109.615C141.834 109.039 142.154 108.463 142.514 107.887C142.555 107.812 142.565 107.723 142.543 107.641C142.52 107.558 142.467 107.487 142.394 107.443C142.318 107.403 142.23 107.394 142.148 107.418C142.066 107.443 141.996 107.499 141.954 107.574C141.644 108.15 141.324 108.715 141.004 109.281C140.96 109.356 140.946 109.446 140.967 109.531C140.988 109.616 141.041 109.69 141.114 109.736C141.166 109.764 141.225 109.778 141.284 109.776H141.234ZM143.094 106.321C143.154 106.321 143.213 106.303 143.264 106.271C143.315 106.239 143.357 106.194 143.384 106.139C143.684 105.554 143.974 104.958 144.254 104.372C144.273 104.333 144.284 104.291 144.286 104.249C144.289 104.206 144.283 104.163 144.269 104.123C144.255 104.082 144.233 104.045 144.205 104.013C144.177 103.981 144.143 103.956 144.104 103.937C144.066 103.918 144.025 103.907 143.983 103.905C143.94 103.902 143.898 103.908 143.858 103.922C143.818 103.936 143.781 103.958 143.75 103.987C143.718 104.015 143.692 104.05 143.674 104.089C143.394 104.675 143.104 105.261 142.804 105.846C142.786 105.885 142.775 105.927 142.772 105.969C142.77 106.012 142.775 106.055 142.789 106.095C142.803 106.136 142.825 106.173 142.853 106.205C142.882 106.237 142.916 106.263 142.954 106.281C142.981 106.301 143.012 106.315 143.045 106.322C143.078 106.329 143.112 106.329 143.144 106.321H143.094ZM144.784 102.765C144.847 102.764 144.908 102.746 144.961 102.712C145.014 102.678 145.057 102.63 145.084 102.573L145.864 100.765C145.897 100.683 145.897 100.592 145.863 100.51C145.829 100.429 145.765 100.364 145.684 100.331C145.605 100.3 145.516 100.302 145.438 100.336C145.36 100.37 145.298 100.433 145.264 100.513C145.014 101.109 144.754 101.705 144.494 102.311C144.476 102.349 144.466 102.391 144.464 102.433C144.462 102.476 144.469 102.518 144.484 102.558C144.499 102.597 144.522 102.633 144.551 102.664C144.58 102.694 144.615 102.719 144.654 102.735C144.71 102.763 144.773 102.774 144.834 102.765H144.784ZM146.294 99.1387C146.358 99.138 146.421 99.1186 146.474 99.0827C146.527 99.0468 146.569 98.9961 146.594 98.9366C146.834 98.3103 147.064 97.6941 147.294 97.0778C147.308 97.0374 147.314 96.9945 147.312 96.9517C147.31 96.9089 147.299 96.867 147.28 96.8284C147.262 96.7899 147.236 96.7555 147.204 96.7272C147.172 96.6989 147.135 96.6773 147.094 96.6637C147.015 96.637 146.928 96.642 146.852 96.6776C146.775 96.7133 146.716 96.7769 146.684 96.8556C146.464 97.4718 146.234 98.078 145.994 98.6942C145.964 98.7747 145.966 98.8638 146 98.9429C146.033 99.022 146.096 99.0849 146.174 99.1185L146.294 99.1387ZM147.634 95.4413C147.701 95.4405 147.766 95.4186 147.82 95.3788C147.873 95.3389 147.913 95.2831 147.934 95.2191C148.154 94.5927 148.354 93.9664 148.544 93.3401C148.57 93.257 148.562 93.1672 148.523 93.0898C148.483 93.0125 148.416 92.9536 148.334 92.9259C148.252 92.9002 148.163 92.9081 148.087 92.9477C148.01 92.9874 147.952 93.0556 147.924 93.138C147.734 93.7644 147.534 94.3806 147.324 95.0069C147.299 95.09 147.307 95.1798 147.346 95.2571C147.385 95.3345 147.453 95.3933 147.534 95.4211L147.634 95.4413ZM148.794 91.6833C148.865 91.6817 148.933 91.6573 148.989 91.6136C149.045 91.57 149.085 91.5095 149.104 91.4409C149.284 90.8044 149.464 90.168 149.624 89.5417C149.646 89.4573 149.634 89.3678 149.591 89.2923C149.548 89.2167 149.477 89.1612 149.394 89.1376C149.354 89.1269 149.311 89.1245 149.27 89.1305C149.228 89.1364 149.188 89.1505 149.152 89.1721C149.115 89.1937 149.084 89.2223 149.058 89.2562C149.033 89.2901 149.015 89.3288 149.004 89.3699C148.834 89.9963 148.664 90.6327 148.484 91.259C148.472 91.3001 148.468 91.3433 148.473 91.386C148.477 91.4287 148.49 91.47 148.51 91.5077C148.531 91.5453 148.559 91.5784 148.592 91.6051C148.625 91.6318 148.663 91.6515 148.704 91.6631L148.794 91.6833ZM149.794 87.8748C149.866 87.8726 149.935 87.8467 149.991 87.8011C150.047 87.7555 150.087 87.6927 150.104 87.6223C150.254 86.9757 150.404 86.3292 150.534 85.6928C150.545 85.6516 150.546 85.6087 150.54 85.5668C150.533 85.5248 150.518 85.4847 150.496 85.4488C150.473 85.4129 150.444 85.382 150.409 85.3579C150.375 85.3339 150.336 85.3172 150.294 85.3089C150.253 85.2984 150.21 85.2964 150.168 85.3029C150.126 85.3095 150.085 85.3245 150.049 85.3471C150.012 85.3697 149.981 85.3994 149.956 85.4345C149.931 85.4696 149.914 85.5093 149.904 85.5513C149.774 86.1878 149.624 86.8242 149.474 87.4707C149.456 87.555 149.471 87.6432 149.516 87.7166C149.56 87.7901 149.632 87.8432 149.714 87.8647L149.794 87.8748ZM150.614 84.0158C150.69 84.0172 150.763 83.9915 150.822 83.9435C150.88 83.8954 150.92 83.828 150.934 83.7532C151.054 83.1066 151.174 82.4601 151.284 81.8135C151.299 81.7291 151.28 81.6424 151.231 81.5723C151.182 81.5022 151.108 81.4546 151.024 81.4398C150.982 81.431 150.939 81.4309 150.897 81.4395C150.855 81.448 150.815 81.4651 150.779 81.4896C150.744 81.5141 150.713 81.5456 150.69 81.5822C150.667 81.6187 150.651 81.6596 150.644 81.7024C150.534 82.3388 150.424 82.9854 150.294 83.6319C150.286 83.6744 150.285 83.7183 150.294 83.7608C150.302 83.8034 150.319 83.8438 150.344 83.8796C150.368 83.9154 150.399 83.946 150.435 83.9694C150.471 83.9928 150.512 84.0086 150.554 84.0158H150.614ZM151.274 80.1366C151.352 80.1398 151.427 80.1135 151.487 80.063C151.546 80.0125 151.584 79.9415 151.594 79.8638C151.694 79.2072 151.784 78.5506 151.864 77.904C151.87 77.8615 151.867 77.8183 151.856 77.7769C151.845 77.7355 151.826 77.6968 151.8 77.6629C151.774 77.6291 151.741 77.6008 151.704 77.5798C151.667 77.5587 151.626 77.5453 151.584 77.5403C151.542 77.5332 151.499 77.535 151.457 77.5456C151.416 77.5562 151.377 77.5754 151.343 77.602C151.309 77.6286 151.281 77.662 151.261 77.7001C151.24 77.7381 151.228 77.7801 151.224 77.8232C151.144 78.4563 151.054 79.1028 150.954 79.7628C150.943 79.8483 150.964 79.935 151.015 80.0047C151.065 80.0744 151.14 80.1217 151.224 80.1366H151.274ZM151.764 76.2271C151.845 76.2299 151.923 76.2008 151.983 76.1461C152.043 76.0914 152.079 76.0154 152.084 75.9341C152.154 75.2775 152.224 74.6208 152.274 73.9743C152.28 73.8875 152.252 73.8019 152.196 73.7358C152.139 73.6697 152.06 73.6284 151.974 73.6207C151.932 73.615 151.89 73.6183 151.85 73.6303C151.809 73.6423 151.772 73.6628 151.74 73.6905C151.707 73.7181 151.681 73.7523 151.663 73.7907C151.645 73.8292 151.635 73.8711 151.634 73.9137C151.574 74.5602 151.514 75.2169 151.444 75.8735C151.44 75.916 151.444 75.9589 151.457 75.9997C151.469 76.0405 151.489 76.0785 151.516 76.1113C151.543 76.1442 151.576 76.1714 151.614 76.1912C151.651 76.2111 151.692 76.2233 151.734 76.2271H151.764ZM152.094 72.3074C152.176 72.3076 152.254 72.2763 152.314 72.22C152.373 72.1637 152.409 72.0866 152.414 72.0044C152.414 71.3275 152.494 70.6709 152.514 69.9839C152.517 69.9407 152.511 69.8973 152.497 69.8564C152.483 69.8155 152.46 69.7779 152.431 69.7458C152.402 69.7138 152.367 69.6879 152.328 69.6698C152.289 69.6517 152.247 69.6417 152.204 69.6405C152.12 69.6444 152.04 69.6778 151.978 69.735C151.916 69.7922 151.876 69.8696 151.864 69.9536C151.864 70.6002 151.864 71.2568 151.774 71.9135C151.769 72.0003 151.797 72.0859 151.853 72.1519C151.909 72.218 151.989 72.2593 152.074 72.267L152.094 72.3074ZM152.244 68.3676C152.329 68.3676 152.411 68.3335 152.471 68.2729C152.531 68.2123 152.564 68.1301 152.564 68.0443C152.564 67.5796 152.564 67.125 152.564 66.6705V66.0744C152.564 65.9887 152.531 65.9065 152.471 65.8458C152.411 65.7852 152.329 65.7512 152.244 65.7512C152.159 65.7512 152.078 65.7852 152.018 65.8458C151.958 65.9065 151.924 65.9887 151.924 66.0744V66.6705C151.924 67.125 151.924 67.5796 151.924 68.0342C151.923 68.0775 151.93 68.1207 151.946 68.161C151.961 68.2014 151.985 68.2383 152.014 68.2694C152.044 68.3005 152.08 68.3252 152.119 68.3421C152.159 68.3589 152.201 68.3676 152.244 68.3676ZM152.244 64.4278C152.287 64.4278 152.33 64.4191 152.369 64.4022C152.409 64.3854 152.444 64.3607 152.474 64.3296C152.504 64.2985 152.527 64.2616 152.543 64.2212C152.558 64.1808 152.566 64.1377 152.564 64.0944C152.564 63.4176 152.504 62.7609 152.474 62.074C152.467 61.9873 152.426 61.9071 152.36 61.8505C152.295 61.7939 152.21 61.7653 152.124 61.7709C152.082 61.7735 152.041 61.7844 152.003 61.8031C151.965 61.8218 151.932 61.8478 151.904 61.8797C151.876 61.9116 151.854 61.9488 151.841 61.9891C151.827 62.0293 151.822 62.0719 151.824 62.1144C151.824 62.7508 151.894 63.4075 151.914 64.0742C151.91 64.1218 151.915 64.1699 151.931 64.2149C151.947 64.2599 151.973 64.3009 152.006 64.3347C152.04 64.3685 152.08 64.3944 152.125 64.4105C152.17 64.4266 152.217 64.4325 152.264 64.4278H152.244ZM152.014 60.4981C152.056 60.4943 152.097 60.4821 152.135 60.4622C152.172 60.4423 152.205 60.4152 152.232 60.3823C152.259 60.3494 152.279 60.3115 152.292 60.2707C152.304 60.2299 152.308 60.187 152.304 60.1445C152.244 59.471 152.174 58.7975 152.094 58.124C152.091 58.0809 152.078 58.039 152.058 58.0009C152.038 57.9628 152.01 57.9295 151.976 57.9029C151.942 57.8763 151.903 57.8571 151.861 57.8465C151.82 57.8359 151.777 57.8341 151.734 57.8412C151.65 57.8537 151.574 57.8986 151.522 57.9663C151.47 58.034 151.446 58.1195 151.454 58.2049C151.534 58.8211 151.604 59.4777 151.664 60.1546C151.66 60.2043 151.668 60.2543 151.686 60.3006C151.704 60.347 151.733 60.3884 151.77 60.4216C151.807 60.4549 151.851 60.4791 151.898 60.4924C151.946 60.5056 151.996 60.5076 152.044 60.4981H152.014ZM151.534 56.5885C151.618 56.5737 151.692 56.5261 151.741 56.456C151.79 56.3859 151.809 56.2991 151.794 56.2147L151.734 55.8208C151.644 55.3056 151.544 54.8106 151.444 54.265C151.436 54.2231 151.419 54.1833 151.396 54.1479C151.372 54.1125 151.342 54.0822 151.306 54.0587C151.271 54.0352 151.231 54.019 151.19 54.0111C151.148 54.0032 151.106 54.0036 151.064 54.0125C151.022 54.0196 150.982 54.0354 150.946 54.0589C150.91 54.0825 150.88 54.1132 150.856 54.1493C150.833 54.1853 150.817 54.2259 150.81 54.2684C150.802 54.3109 150.804 54.3545 150.814 54.3964C150.914 54.9116 151.004 55.4066 151.094 55.9319L151.164 56.3158C151.169 56.3612 151.183 56.4052 151.205 56.4446C151.228 56.484 151.259 56.5178 151.296 56.5438C151.334 56.5698 151.376 56.5873 151.42 56.595C151.465 56.6027 151.511 56.6005 151.554 56.5885H151.534ZM150.764 52.7295H150.834C150.875 52.7212 150.915 52.7045 150.949 52.6805C150.984 52.6564 151.013 52.6255 151.036 52.5896C151.058 52.5537 151.073 52.5136 151.08 52.4716C151.086 52.4297 151.085 52.3868 151.074 52.3456C150.924 51.6991 150.774 51.0627 150.604 50.4161C150.593 50.3748 150.573 50.3362 150.547 50.3026C150.52 50.2689 150.488 50.241 150.45 50.2203C150.413 50.1996 150.372 50.1866 150.33 50.1821C150.288 50.1775 150.245 50.1816 150.204 50.1939C150.164 50.2045 150.125 50.2231 150.092 50.2486C150.058 50.2741 150.03 50.3061 150.008 50.3427C149.987 50.3793 149.973 50.4198 149.967 50.4619C149.961 50.5039 149.964 50.5467 149.974 50.5879C150.144 51.2243 150.304 51.8506 150.444 52.4871C150.465 52.5608 150.51 52.6251 150.572 52.6693C150.634 52.7134 150.709 52.7347 150.784 52.7295H150.764ZM149.764 48.9311H149.854C149.895 48.9195 149.933 48.8998 149.967 48.8731C150 48.8464 150.028 48.8133 150.048 48.7757C150.069 48.7381 150.081 48.6967 150.086 48.654C150.09 48.6113 150.087 48.5681 150.074 48.527C149.884 47.8906 149.684 47.2643 149.474 46.6379C149.461 46.5973 149.439 46.5597 149.411 46.5275C149.383 46.4953 149.349 46.469 149.311 46.4502C149.273 46.4314 149.232 46.4204 149.189 46.418C149.147 46.4155 149.104 46.4216 149.064 46.4359C149.024 46.4495 148.987 46.4711 148.955 46.4994C148.923 46.5277 148.897 46.5621 148.878 46.6007C148.86 46.6392 148.849 46.6811 148.847 46.7239C148.844 46.7668 148.85 46.8096 148.864 46.8501C149.074 47.4663 149.264 48.0926 149.454 48.719C149.478 48.7844 149.522 48.8405 149.579 48.8787C149.637 48.9169 149.705 48.9353 149.774 48.9311H149.764ZM148.514 45.1933C148.55 45.2027 148.588 45.2027 148.624 45.1933C148.704 45.1637 148.768 45.1035 148.804 45.0259C148.84 44.9483 148.843 44.8595 148.814 44.7791C148.584 44.1629 148.344 43.5467 148.084 42.9406C148.069 42.9005 148.046 42.8639 148.016 42.833C147.987 42.8021 147.951 42.7775 147.912 42.7605C147.873 42.7436 147.831 42.7347 147.788 42.7344C147.746 42.7341 147.704 42.7424 147.664 42.7587C147.625 42.7753 147.59 42.7994 147.561 42.8297C147.531 42.8599 147.508 42.8958 147.492 42.9352C147.476 42.9746 147.468 43.0168 147.469 43.0593C147.469 43.1019 147.478 43.1439 147.494 43.183C147.744 43.7891 147.984 44.3953 148.204 45.0115C148.234 45.0704 148.28 45.1191 148.337 45.1515C148.394 45.1839 148.459 45.1984 148.524 45.1933H148.514ZM147.044 41.6172C147.09 41.6267 147.138 41.6267 147.184 41.6172C147.262 41.5799 147.321 41.5137 147.351 41.4327C147.381 41.3516 147.379 41.262 147.344 41.1828C147.064 40.5868 146.784 39.9907 146.484 39.3947C146.444 39.3203 146.377 39.2642 146.297 39.2379C146.217 39.2116 146.13 39.2171 146.054 39.2533C145.976 39.2924 145.917 39.3611 145.889 39.4443C145.861 39.5276 145.866 39.6187 145.904 39.6978C146.204 40.2736 146.484 40.8595 146.754 41.4555C146.783 41.5074 146.825 41.5502 146.876 41.5788C146.927 41.6074 146.986 41.6207 147.044 41.6172ZM145.284 38.1016C145.333 38.1154 145.385 38.1154 145.434 38.1016C145.472 38.0815 145.506 38.054 145.533 38.0205C145.56 37.9871 145.58 37.9486 145.592 37.9071C145.604 37.8657 145.608 37.8222 145.603 37.7793C145.599 37.7363 145.585 37.6948 145.564 37.6571C145.244 37.0813 144.914 36.5055 144.564 35.9499C144.544 35.9123 144.516 35.8793 144.482 35.8532C144.448 35.827 144.409 35.8081 144.368 35.7976C144.327 35.7872 144.284 35.7855 144.242 35.7926C144.2 35.7996 144.16 35.8154 144.124 35.8388C144.088 35.8606 144.057 35.8894 144.031 35.9236C144.006 35.9578 143.988 35.9966 143.978 36.0379C143.968 36.0792 143.966 36.1222 143.972 36.1643C143.978 36.2064 143.992 36.2468 144.014 36.2833C144.354 36.8389 144.674 37.4046 145.014 37.9804C145.047 38.0084 145.086 38.0291 145.127 38.0413C145.168 38.0535 145.212 38.0568 145.254 38.0511L145.284 38.1016ZM143.284 34.7376C143.343 34.7556 143.406 34.7556 143.464 34.7376C143.5 34.7142 143.531 34.6837 143.555 34.6479C143.579 34.6122 143.596 34.5719 143.604 34.5295C143.613 34.4871 143.613 34.4435 143.604 34.4012C143.595 34.3588 143.579 34.3187 143.554 34.283C143.184 33.7375 142.814 33.192 142.424 32.6566C142.373 32.5887 142.297 32.5434 142.213 32.5302C142.129 32.5171 142.044 32.537 141.974 32.5859C141.907 32.6381 141.862 32.7144 141.849 32.799C141.836 32.8837 141.856 32.9701 141.904 33.0405C142.284 33.5658 142.654 34.1012 143.014 34.6467C143.078 34.6841 143.152 34.6984 143.224 34.6871L143.284 34.7376ZM99.2843 32.5051H99.6943C99.7364 32.5025 99.7775 32.4916 99.8153 32.4729C99.8532 32.4542 99.887 32.4282 99.9149 32.3963C99.9428 32.3643 99.9641 32.3272 99.9777 32.2869C99.9914 32.2466 99.997 32.2041 99.9943 32.1616C99.9931 32.1186 99.9832 32.0764 99.9652 32.0375C99.9472 31.9986 99.9214 31.9638 99.8895 31.9354C99.8576 31.9069 99.8203 31.8855 99.7798 31.8722C99.7393 31.859 99.6966 31.8543 99.6543 31.8585C99.2717 31.894 98.8868 31.894 98.5043 31.8585C98.2751 31.8294 98.048 31.7855 97.8243 31.7272C97.7408 31.7055 97.6522 31.7176 97.5774 31.761C97.5027 31.8044 97.4477 31.8757 97.4243 31.9595C97.4139 32.0014 97.4119 32.0448 97.4184 32.0874C97.4249 32.13 97.4398 32.1709 97.4621 32.2076C97.4845 32.2443 97.5139 32.2761 97.5486 32.3012C97.5833 32.3263 97.6227 32.344 97.6643 32.3535C97.9166 32.4243 98.1741 32.475 98.4343 32.5051C98.6816 32.5001 98.9286 32.4833 99.1743 32.4545L99.2843 32.5051ZM101.584 32.1111H101.684C102.334 31.8806 102.939 31.5389 103.474 31.1009C103.534 31.0386 103.568 30.9553 103.568 30.8685C103.568 30.7817 103.534 30.6984 103.474 30.6362C103.444 30.605 103.409 30.5802 103.369 30.5633C103.33 30.5464 103.287 30.5377 103.244 30.5377C103.201 30.5377 103.159 30.5464 103.119 30.5633C103.08 30.5802 103.044 30.605 103.014 30.6362C102.536 31.0217 101.999 31.3254 101.424 31.5353C101.384 31.5489 101.347 31.5705 101.315 31.5988C101.283 31.6271 101.257 31.6615 101.238 31.7C101.22 31.7386 101.209 31.7805 101.207 31.8233C101.204 31.8661 101.21 31.909 101.224 31.9494C101.256 31.9849 101.294 32.0132 101.337 32.0324C101.38 32.0515 101.427 32.0611 101.474 32.0606L101.584 32.1111ZM141.034 31.5656C141.107 31.5665 141.178 31.5414 141.234 31.4948C141.294 31.4326 141.328 31.3493 141.328 31.2625C141.328 31.1757 141.294 31.0924 141.234 31.0302C140.824 30.5149 140.394 30.0199 139.974 29.5148C139.913 29.4544 139.83 29.4205 139.744 29.4205C139.658 29.4205 139.576 29.4544 139.514 29.5148C139.454 29.5771 139.421 29.6604 139.421 29.7472C139.421 29.834 139.454 29.9173 139.514 29.9795C139.934 30.4644 140.354 30.9897 140.754 31.4746C140.807 31.5028 140.865 31.5168 140.924 31.515L141.034 31.5656ZM95.9743 31.515C96.0269 31.5135 96.0785 31.5 96.1253 31.4755C96.172 31.451 96.2127 31.4162 96.2443 31.3736C96.2896 31.2997 96.3045 31.2107 96.2859 31.1258C96.2672 31.0408 96.2164 30.9666 96.1443 30.919C95.6284 30.5729 95.161 30.1584 94.7543 29.6866C94.6944 29.6267 94.6135 29.5932 94.5293 29.5932C94.445 29.5932 94.3642 29.6267 94.3043 29.6866C94.2444 29.7488 94.2109 29.8321 94.2109 29.9189C94.2109 30.0057 94.2444 30.089 94.3043 30.1513C94.7478 30.6738 95.263 31.1297 95.8343 31.505C95.8441 31.5089 95.8541 31.5123 95.8643 31.515H95.9743ZM104.504 29.6462C104.562 29.6446 104.618 29.628 104.667 29.5979C104.716 29.5677 104.756 29.5252 104.784 29.4744C105.114 28.8454 105.328 28.1607 105.414 27.454C105.42 27.4115 105.417 27.3683 105.406 27.3269C105.395 27.2855 105.376 27.2468 105.35 27.2129C105.324 27.1791 105.291 27.1508 105.254 27.1298C105.217 27.1087 105.176 27.0953 105.134 27.0903C105.051 27.0788 104.966 27.1009 104.899 27.152C104.831 27.203 104.787 27.2789 104.774 27.3631C104.691 27.9764 104.505 28.5708 104.224 29.1208C104.203 29.1585 104.19 29.2 104.185 29.243C104.18 29.2859 104.184 29.3294 104.196 29.3708C104.208 29.4123 104.229 29.4508 104.256 29.4842C104.283 29.5176 104.316 29.5452 104.354 29.5653C104.367 29.5762 104.38 29.5864 104.394 29.5957L104.504 29.6462ZM138.454 28.6359C138.54 28.6368 138.622 28.6043 138.684 28.545C138.744 28.4828 138.778 28.3994 138.778 28.3127C138.778 28.2259 138.744 28.1426 138.684 28.0803C138.224 27.6055 137.754 27.1408 137.284 26.6862C137.223 26.6258 137.14 26.5919 137.054 26.5919C136.968 26.5919 136.886 26.6258 136.824 26.6862C136.765 26.7468 136.732 26.8284 136.732 26.9135C136.732 26.9986 136.765 27.0803 136.824 27.1408C137.284 27.5853 137.744 28.05 138.194 28.5147C138.24 28.5412 138.292 28.5552 138.344 28.5551L138.454 28.6359ZM93.4543 28.6359C93.5038 28.6455 93.5547 28.6455 93.6043 28.6359C93.6787 28.5933 93.7345 28.5238 93.7604 28.4414C93.7864 28.359 93.7806 28.2697 93.7443 28.1915C93.4627 27.6292 93.2575 27.0312 93.1343 26.4135C93.1249 26.3714 93.1073 26.3317 93.0825 26.2966C93.0577 26.2616 93.0262 26.2319 92.9898 26.2093C92.9535 26.1867 92.913 26.1717 92.8709 26.1651C92.8287 26.1585 92.7857 26.1605 92.7443 26.171C92.7028 26.1794 92.6634 26.1961 92.6283 26.22C92.5933 26.2439 92.5633 26.2746 92.54 26.3103C92.5168 26.346 92.5007 26.386 92.4929 26.428C92.485 26.47 92.4855 26.5131 92.4943 26.5549C92.6393 27.2231 92.8643 27.8711 93.1643 28.4844C93.2124 28.5149 93.2676 28.5323 93.3243 28.5349L93.4543 28.6359ZM135.644 25.9589C135.69 25.9587 135.735 25.9487 135.776 25.9295C135.818 25.9103 135.854 25.8825 135.884 25.8478C135.944 25.7855 135.978 25.7022 135.978 25.6154C135.978 25.5286 135.944 25.4453 135.884 25.3831L135.284 24.8779L134.354 24.1405C134.285 24.0874 134.198 24.064 134.112 24.0754C134.026 24.0867 133.948 24.1319 133.894 24.2011C133.845 24.2703 133.823 24.3559 133.835 24.4405C133.846 24.525 133.889 24.6021 133.954 24.6557L134.874 25.3831L135.464 25.8882C135.482 25.8797 135.499 25.8695 135.514 25.8579L135.644 25.9589ZM105.124 25.868C105.21 25.8578 105.289 25.814 105.343 25.746C105.397 25.678 105.423 25.5912 105.414 25.5043C105.338 24.8189 105.197 24.1424 104.994 23.4838C104.983 23.4425 104.963 23.4039 104.937 23.3703C104.91 23.3367 104.878 23.3087 104.84 23.288C104.803 23.2673 104.762 23.2543 104.72 23.2498C104.678 23.2453 104.635 23.2493 104.594 23.2616C104.553 23.273 104.515 23.2928 104.483 23.3197C104.45 23.3465 104.422 23.3799 104.403 23.4178C104.383 23.4556 104.371 23.4972 104.368 23.5398C104.365 23.5824 104.37 23.6253 104.384 23.6657C104.566 24.2766 104.696 24.9017 104.774 25.5346C104.788 25.5893 104.815 25.6396 104.854 25.6804C104.892 25.7211 104.941 25.751 104.994 25.7669L105.124 25.868ZM92.6743 24.8578C92.7558 24.8579 92.8343 24.8266 92.8938 24.7703C92.9532 24.714 92.9892 24.6369 92.9943 24.5547C93.0404 23.9335 93.1821 23.3234 93.4143 22.7464C93.4307 22.7073 93.4394 22.6652 93.4398 22.6227C93.4402 22.5802 93.4322 22.538 93.4164 22.4986C93.4006 22.4592 93.3773 22.4233 93.3477 22.393C93.3182 22.3628 93.2831 22.3386 93.2443 22.3221C93.2056 22.3055 93.1639 22.2967 93.1219 22.2964C93.0798 22.296 93.038 22.304 92.999 22.32C92.96 22.3359 92.9245 22.3595 92.8945 22.3893C92.8645 22.4192 92.8407 22.4547 92.8243 22.4939C92.5593 23.1368 92.4005 23.8194 92.3543 24.5143C92.3502 24.5576 92.3547 24.6012 92.3677 24.6427C92.3807 24.6841 92.4018 24.7225 92.4298 24.7555C92.4578 24.7885 92.4922 24.8155 92.5307 24.8348C92.5693 24.8541 92.6113 24.8653 92.6543 24.8679L92.6743 24.8578ZM132.414 23.4333C132.467 23.4343 132.52 23.4218 132.567 23.3971C132.614 23.3724 132.654 23.3363 132.684 23.2919C132.732 23.2203 132.75 23.1331 132.735 23.0484C132.72 22.9636 132.673 22.888 132.604 22.8373C132.064 22.4635 131.504 22.0999 130.954 21.7564C130.88 21.7115 130.791 21.698 130.707 21.7188C130.623 21.7396 130.55 21.793 130.504 21.8675C130.483 21.904 130.468 21.9444 130.462 21.9865C130.456 22.0286 130.458 22.0715 130.468 22.1128C130.478 22.1541 130.496 22.193 130.521 22.2272C130.547 22.2614 130.578 22.2902 130.614 22.312C131.161 22.6555 131.701 23.0091 132.234 23.3727C132.287 23.4109 132.35 23.432 132.414 23.4333ZM103.914 21.9685C103.957 21.9788 104.002 21.9788 104.044 21.9685C104.123 21.9331 104.185 21.8677 104.217 21.7864C104.249 21.7052 104.248 21.6146 104.214 21.5341C103.964 20.9583 103.674 20.3522 103.344 19.7461C103.324 19.7078 103.297 19.674 103.264 19.6466C103.231 19.6192 103.193 19.5988 103.152 19.5865C103.111 19.5743 103.068 19.5705 103.025 19.5753C102.983 19.5802 102.942 19.5936 102.904 19.6147C102.83 19.6573 102.775 19.7275 102.75 19.8104C102.726 19.8934 102.735 19.9826 102.774 20.0592C103.094 20.6452 103.384 21.2311 103.624 21.7968C103.648 21.8555 103.688 21.9059 103.739 21.9418C103.791 21.9777 103.852 21.9975 103.914 21.9988V21.9685ZM129.044 21.4129C129.104 21.4143 129.162 21.399 129.213 21.3686C129.265 21.3383 129.306 21.2942 129.334 21.2412C129.374 21.1645 129.382 21.0753 129.358 20.9924C129.334 20.9094 129.279 20.8393 129.204 20.7967C128.634 20.4835 128.044 20.1805 127.454 19.8875C127.416 19.8686 127.375 19.8576 127.333 19.855C127.29 19.8525 127.248 19.8584 127.208 19.8725C127.168 19.8866 127.131 19.9086 127.1 19.9372C127.068 19.9657 127.042 20.0004 127.024 20.039C127.006 20.0775 126.995 20.1192 126.992 20.162C126.99 20.2047 126.995 20.2475 127.009 20.2879C127.023 20.3283 127.045 20.3655 127.073 20.3973C127.102 20.4292 127.136 20.4551 127.174 20.4734C127.754 20.7563 128.334 21.0593 128.894 21.3725C128.939 21.4 128.992 21.414 129.044 21.4129ZM93.9643 21.1604C94.0121 21.1597 94.0593 21.1485 94.1025 21.1276C94.1457 21.1066 94.1838 21.0765 94.2143 21.0391C94.6186 20.5613 95.0748 20.131 95.5743 19.7562C95.6098 19.7321 95.64 19.7008 95.6629 19.6644C95.6859 19.6279 95.7012 19.5871 95.7077 19.5444C95.7143 19.5017 95.7121 19.458 95.7011 19.4163C95.6902 19.3745 95.6708 19.3354 95.6443 19.3016C95.6204 19.2657 95.5895 19.2352 95.5534 19.212C95.5173 19.1888 95.4769 19.1734 95.4346 19.1668C95.3923 19.1601 95.3492 19.1624 95.3078 19.1734C95.2665 19.1845 95.2278 19.204 95.1943 19.2309C94.6501 19.6371 94.1535 20.1049 93.7143 20.625C93.6573 20.6867 93.6257 20.7679 93.6257 20.8523C93.6257 20.9366 93.6573 21.0179 93.7143 21.0796C93.7584 21.1193 93.8121 21.1468 93.87 21.1592C93.9278 21.1716 93.9879 21.1685 94.0443 21.1503L93.9643 21.1604ZM125.544 19.6955C125.608 19.6925 125.669 19.6722 125.722 19.6366C125.775 19.601 125.817 19.5515 125.844 19.4935C125.861 19.4544 125.869 19.4124 125.87 19.3698C125.87 19.3273 125.862 19.2852 125.846 19.2458C125.831 19.2063 125.807 19.1705 125.778 19.1402C125.748 19.1099 125.713 19.0858 125.674 19.0692C125.064 18.8066 124.454 18.5641 123.844 18.3318C123.763 18.3021 123.674 18.3055 123.596 18.3414C123.517 18.3772 123.456 18.4427 123.424 18.5237C123.395 18.6068 123.4 18.698 123.438 18.7775C123.475 18.857 123.542 18.9183 123.624 18.948C124.224 19.1702 124.824 19.4127 125.414 19.6652C125.471 19.6899 125.534 19.697 125.594 19.6855L125.544 19.6955ZM97.0543 18.8066C97.0998 18.8213 97.1488 18.8213 97.1943 18.8066C97.7668 18.5276 98.3544 18.2814 98.9543 18.0691C98.9945 18.0555 99.0317 18.0339 99.0636 18.0056C99.0955 17.9773 99.1215 17.9429 99.1402 17.9043C99.1588 17.8658 99.1696 17.8239 99.172 17.7811C99.1744 17.7383 99.1684 17.6954 99.1543 17.6549C99.1408 17.6143 99.1194 17.5767 99.0914 17.5445C99.0634 17.5122 99.0293 17.486 98.9912 17.4671C98.953 17.4483 98.9116 17.4374 98.8692 17.435C98.8268 17.4325 98.7843 17.4386 98.7443 17.4529C98.1171 17.6735 97.5027 17.9298 96.9043 18.2206C96.828 18.2615 96.7707 18.3309 96.7445 18.414C96.7184 18.4971 96.7254 18.5873 96.7642 18.6651C96.801 18.7193 96.8532 18.7609 96.914 18.7844C96.9747 18.8079 97.0411 18.8121 97.1043 18.7965L97.0543 18.8066ZM102.054 18.5338C102.115 18.5376 102.175 18.5197 102.224 18.4833C102.261 18.4616 102.292 18.4327 102.317 18.3982C102.342 18.3638 102.36 18.3245 102.369 18.2829C102.379 18.2412 102.379 18.1981 102.372 18.1562C102.364 18.1142 102.348 18.0743 102.324 18.0388C102.164 17.7762 101.994 17.5236 101.824 17.2509L102.714 17.069C102.798 17.0542 102.872 17.0065 102.921 16.9365C102.97 16.8664 102.989 16.7796 102.974 16.6952C102.967 16.6524 102.951 16.6115 102.928 16.575C102.905 16.5384 102.875 16.5069 102.839 16.4824C102.804 16.4579 102.764 16.4409 102.722 16.4323C102.68 16.4237 102.636 16.4238 102.594 16.4326C102.204 16.5033 101.814 16.5841 101.434 16.675L101.234 16.3922C101.21 16.3567 101.179 16.3264 101.144 16.303C101.108 16.2797 101.068 16.2638 101.026 16.2563C100.984 16.2487 100.941 16.2497 100.9 16.2592C100.858 16.2687 100.819 16.2864 100.784 16.3114C100.749 16.3356 100.719 16.3667 100.696 16.4028C100.673 16.4389 100.657 16.4793 100.65 16.5217C100.642 16.564 100.643 16.6074 100.653 16.6493C100.662 16.6913 100.68 16.7309 100.704 16.7659L100.754 16.8367H100.674C100.591 16.8604 100.519 16.9154 100.475 16.9906C100.43 17.0657 100.416 17.1552 100.434 17.2407C100.46 17.3232 100.515 17.3929 100.589 17.436C100.663 17.479 100.751 17.4923 100.834 17.4731L101.144 17.4024C101.374 17.7256 101.584 18.059 101.784 18.4126C101.816 18.4506 101.856 18.4805 101.901 18.4998C101.946 18.5191 101.995 18.5273 102.044 18.5237L102.054 18.5338ZM121.914 18.3217C121.983 18.3246 122.051 18.3044 122.107 18.2642C122.163 18.2239 122.204 18.166 122.224 18.0994C122.25 18.0164 122.242 17.9266 122.203 17.8492C122.163 17.7718 122.096 17.713 122.014 17.6852C121.394 17.4933 120.754 17.3013 120.124 17.1397C120.084 17.1276 120.041 17.1241 119.999 17.1294C119.957 17.1347 119.916 17.1486 119.879 17.1704C119.843 17.1922 119.811 17.2213 119.786 17.256C119.761 17.2907 119.744 17.3302 119.734 17.3721C119.724 17.4132 119.721 17.456 119.727 17.4981C119.733 17.5401 119.747 17.5806 119.768 17.6172C119.79 17.6538 119.818 17.6858 119.852 17.7113C119.885 17.7369 119.924 17.7555 119.964 17.7661C120.584 17.9277 121.204 18.1196 121.824 18.3116L121.914 18.3217ZM118.154 17.3115C118.229 17.3124 118.301 17.2865 118.358 17.2383C118.414 17.1901 118.452 17.1228 118.464 17.0488C118.473 17.007 118.474 16.9639 118.466 16.9219C118.458 16.8799 118.442 16.8399 118.419 16.8042C118.395 16.7685 118.365 16.7378 118.33 16.7139C118.295 16.69 118.256 16.6733 118.214 16.6649C117.574 16.5235 116.924 16.4023 116.284 16.3012C116.201 16.2866 116.115 16.306 116.045 16.3552C115.976 16.4045 115.929 16.4795 115.914 16.5639C115.906 16.6066 115.906 16.6506 115.915 16.6931C115.924 16.7357 115.942 16.7758 115.968 16.811C115.993 16.8462 116.025 16.8756 116.063 16.8974C116.1 16.9192 116.141 16.9329 116.184 16.9377C116.814 17.0488 117.454 17.17 118.084 17.3013L118.154 17.3115ZM104.584 16.7559C105.214 16.6649 105.864 16.5942 106.504 16.5437C106.59 16.536 106.669 16.4947 106.725 16.4286C106.782 16.3625 106.81 16.2769 106.804 16.1901C106.801 16.1476 106.788 16.1062 106.769 16.0685C106.749 16.0307 106.722 15.9972 106.69 15.97C106.657 15.9427 106.62 15.9223 106.579 15.9098C106.539 15.8973 106.496 15.893 106.454 15.8972C105.804 15.8972 105.144 16.0184 104.454 16.1093C104.412 16.1142 104.372 16.1276 104.336 16.1488C104.299 16.17 104.267 16.1985 104.242 16.2325C104.217 16.2665 104.198 16.3054 104.189 16.3468C104.179 16.3881 104.177 16.431 104.184 16.473C104.188 16.522 104.203 16.5696 104.227 16.612C104.252 16.6545 104.285 16.6908 104.326 16.718C104.366 16.7453 104.413 16.7629 104.461 16.7695C104.509 16.776 104.558 16.7714 104.604 16.7559H104.584ZM114.304 16.675C114.384 16.6754 114.461 16.6455 114.521 16.5913C114.58 16.5371 114.617 16.4624 114.624 16.3821C114.633 16.2978 114.608 16.2136 114.556 16.1475C114.503 16.0814 114.427 16.0387 114.344 16.0285C113.694 15.9477 113.034 15.887 112.344 15.8466C112.302 15.8439 112.26 15.8496 112.22 15.8634C112.18 15.8771 112.144 15.8987 112.112 15.9269C112.08 15.955 112.055 15.9892 112.036 16.0274C112.018 16.0657 112.007 16.1072 112.004 16.1497C112 16.1925 112.005 16.2356 112.018 16.2765C112.031 16.3174 112.052 16.3551 112.08 16.3873C112.108 16.4195 112.143 16.4456 112.181 16.4638C112.22 16.482 112.262 16.492 112.304 16.4932C112.944 16.5437 113.594 16.5942 114.224 16.675H114.304ZM108.464 16.4326C109.114 16.4326 109.754 16.4326 110.404 16.4326C110.446 16.4339 110.487 16.4268 110.526 16.4117C110.565 16.3966 110.6 16.3737 110.63 16.3445C110.66 16.3153 110.684 16.2803 110.7 16.2416C110.716 16.203 110.724 16.1614 110.724 16.1194C110.726 16.077 110.719 16.0346 110.704 15.9949C110.689 15.9552 110.666 15.9188 110.638 15.8878C110.609 15.8569 110.574 15.8319 110.536 15.8145C110.498 15.797 110.456 15.7873 110.414 15.786C109.754 15.786 109.104 15.786 108.414 15.786C108.371 15.7873 108.329 15.7973 108.29 15.8154C108.251 15.8335 108.216 15.8593 108.187 15.8914C108.158 15.9234 108.136 15.961 108.122 16.0019C108.108 16.0428 108.102 16.0862 108.104 16.1295C108.106 16.1759 108.118 16.2212 108.139 16.2625C108.16 16.3038 108.19 16.3401 108.226 16.3688C108.262 16.3976 108.303 16.4182 108.348 16.4292C108.393 16.4402 108.439 16.4413 108.484 16.4326H108.464ZM99.8143 15.3112C99.8871 15.3121 99.9579 15.2871 100.014 15.2405C100.073 15.18 100.107 15.0983 100.107 15.0132C100.107 14.9281 100.073 14.8464 100.014 14.7859C99.6142 14.2606 99.1943 13.7757 98.7743 13.2403C98.7144 13.1805 98.6335 13.1469 98.5493 13.1469C98.465 13.1469 98.3842 13.1805 98.3243 13.2403C98.2644 13.3025 98.2309 13.3859 98.2309 13.4727C98.2309 13.5594 98.2644 13.6428 98.3243 13.705C98.7343 14.1899 99.1543 14.7152 99.5443 15.2102C99.5759 15.2576 99.6194 15.2956 99.6704 15.3205C99.7213 15.3453 99.7779 15.3561 99.8343 15.3516L99.8143 15.3112ZM97.2743 12.2806C97.315 12.2808 97.3555 12.2729 97.3933 12.2573C97.431 12.2417 97.4653 12.2187 97.4943 12.1897C97.5249 12.1604 97.5492 12.1252 97.5658 12.0861C97.5825 12.047 97.591 12.0049 97.591 11.9624C97.591 11.9198 97.5825 11.8778 97.5658 11.8387C97.5492 11.7996 97.5249 11.7644 97.4943 11.7351C97.0443 11.2502 96.5743 10.7855 96.0943 10.341C96.0653 10.3101 96.0304 10.2855 95.9917 10.2687C95.953 10.2519 95.9114 10.2432 95.8693 10.2432C95.8272 10.2432 95.7855 10.2519 95.7468 10.2687C95.7081 10.2855 95.6732 10.3101 95.6443 10.341C95.6134 10.3711 95.5889 10.4072 95.5722 10.4471C95.5554 10.4871 95.5468 10.53 95.5468 10.5733C95.5468 10.6167 95.5554 10.6596 95.5722 10.6995C95.5889 10.7394 95.6134 10.7755 95.6443 10.8057C96.1143 11.2401 96.5743 11.7048 97.0243 12.1695C97.0506 12.2179 97.0899 12.2578 97.1377 12.2846C97.1854 12.3114 97.2397 12.324 97.2943 12.321L97.2743 12.2806ZM94.4243 9.60353C94.5188 9.60111 94.6086 9.5612 94.6743 9.49243C94.7341 9.4302 94.7676 9.34684 94.7676 9.26007C94.7676 9.17329 94.7341 9.08993 94.6743 9.02771C94.1643 8.60342 93.6743 8.19935 93.1143 7.81547C93.0796 7.7905 93.0404 7.77276 92.9989 7.76331C92.9573 7.75385 92.9144 7.75285 92.8725 7.76038C92.8306 7.7679 92.7906 7.78381 92.7548 7.80715C92.7191 7.83048 92.6883 7.86077 92.6643 7.89627C92.6391 7.93067 92.6209 7.96977 92.6107 8.01133C92.6006 8.05288 92.5987 8.09606 92.6053 8.13834C92.6118 8.18063 92.6265 8.2212 92.6486 8.25768C92.6708 8.29417 92.6999 8.32585 92.7343 8.35088C93.2543 8.72803 93.7642 9.12199 94.2642 9.53281C94.3095 9.58997 94.3733 9.62931 94.4443 9.64395L94.4243 9.60353ZM91.2543 7.32044C91.3083 7.32025 91.3614 7.30628 91.4086 7.27978C91.4558 7.25328 91.4956 7.21514 91.5243 7.16892C91.5696 7.09495 91.5846 7.00599 91.5659 6.92105C91.5472 6.83611 91.4964 6.76194 91.4243 6.71434C90.8643 6.37087 90.2843 6.0375 89.7043 5.70413C89.6272 5.66489 89.538 5.65771 89.4557 5.68415C89.3735 5.71059 89.3047 5.76852 89.2642 5.84554C89.2259 5.92191 89.2191 6.01055 89.2453 6.09199C89.2716 6.17344 89.3287 6.24103 89.4043 6.27993C89.9743 6.58299 90.5343 6.90626 91.0843 7.29014C91.1096 7.31416 91.1396 7.33281 91.1722 7.34495C91.2048 7.3571 91.2395 7.36251 91.2743 7.36086L91.2543 7.32044ZM87.7943 5.50207C87.8575 5.50358 87.9197 5.48617 87.9731 5.45201C88.0264 5.41785 88.0686 5.36847 88.0943 5.31013C88.1107 5.271 88.1194 5.22899 88.1198 5.18647C88.1201 5.14396 88.1122 5.10177 88.0964 5.06236C88.0806 5.02294 88.0573 4.98706 88.0277 4.95677C87.9982 4.92648 87.9631 4.9024 87.9243 4.88586C87.3243 4.6232 86.7043 4.38075 86.0843 4.1585C86.0442 4.14422 86.0018 4.13811 85.9594 4.14056C85.9171 4.14301 85.8755 4.15394 85.8374 4.17275C85.7992 4.19155 85.7652 4.21783 85.7372 4.25007C85.7092 4.28231 85.6878 4.31986 85.6743 4.36053C85.6601 4.40097 85.6541 4.44386 85.6565 4.48668C85.659 4.5295 85.6698 4.57139 85.6884 4.60994C85.707 4.64849 85.733 4.68292 85.7649 4.71121C85.7968 4.7395 85.834 4.76109 85.8743 4.77472C86.4743 4.98686 87.0843 5.22933 87.6643 5.48188C87.7083 5.51471 87.76 5.53558 87.8143 5.54249L87.7943 5.50207ZM62.8943 4.69392H62.9643L64.8643 4.28981C64.9067 4.28256 64.9471 4.26677 64.9833 4.24338C65.0195 4.21998 65.0507 4.18946 65.0749 4.15363C65.0992 4.11781 65.1161 4.0774 65.1245 4.03485C65.133 3.99229 65.133 3.94847 65.1243 3.90595C65.1051 3.82265 65.055 3.74998 64.9842 3.70297C64.9135 3.65596 64.8276 3.63822 64.7443 3.6534C64.1043 3.77462 63.4643 3.91605 62.8243 4.05748C62.7419 4.07685 62.6699 4.1275 62.6234 4.19895C62.5769 4.2704 62.5593 4.35719 62.5743 4.44136C62.5864 4.52345 62.6275 4.59832 62.69 4.65217C62.7525 4.70603 62.8321 4.7352 62.9143 4.7343L62.8943 4.69392ZM84.1143 4.209C84.187 4.21133 84.2582 4.18858 84.3164 4.14451C84.3745 4.10044 84.4162 4.03769 84.4343 3.96656C84.4448 3.92544 84.4472 3.8826 84.4413 3.84053C84.4354 3.79847 84.4215 3.758 84.4001 3.72141C84.3788 3.68482 84.3505 3.65282 84.3169 3.62729C84.2833 3.60175 84.245 3.58316 84.2043 3.57256C83.5743 3.40083 82.9343 3.2392 82.2843 3.10787C82.1995 3.093 82.1124 3.11212 82.0415 3.16118C81.9705 3.21024 81.9212 3.28537 81.9043 3.37054C81.8892 3.45471 81.9068 3.54147 81.9533 3.61292C81.9999 3.68437 82.0718 3.73502 82.1543 3.75439C82.7943 3.87562 83.4243 4.02715 84.0343 4.19889L84.1143 4.209ZM66.7143 3.92614H66.7743C67.4409 3.81165 68.081 3.71064 68.6943 3.62309C68.7785 3.60821 68.8535 3.56091 68.9039 3.49121C68.9543 3.4215 68.9759 3.33478 68.9643 3.24929C68.9594 3.20703 68.9462 3.16622 68.9252 3.12933C68.9042 3.09244 68.876 3.06024 68.8423 3.03472C68.8086 3.00919 68.7701 2.99089 68.7292 2.98089C68.6883 2.97088 68.6458 2.9694 68.6043 2.97654C67.9543 3.06746 67.3143 3.16847 66.6643 3.27959C66.5808 3.29439 66.5065 3.34208 66.4577 3.41216C66.409 3.48224 66.3897 3.56901 66.4043 3.6534C66.4042 3.69628 66.4128 3.7387 66.4297 3.77807C66.4465 3.81745 66.4711 3.85291 66.502 3.88227C66.533 3.91163 66.5696 3.93428 66.6095 3.94877C66.6495 3.96327 66.6919 3.96933 66.7343 3.96656L66.7143 3.92614ZM80.3043 3.43115C80.3821 3.42967 80.4569 3.40047 80.5154 3.34871C80.574 3.29696 80.6125 3.22598 80.6243 3.14829C80.6299 3.10579 80.627 3.06257 80.6159 3.02118C80.6048 2.9798 80.5857 2.94105 80.5597 2.90721C80.5336 2.87336 80.5011 2.84508 80.4641 2.82403C80.4272 2.80298 80.3864 2.78958 80.3443 2.7846C79.7043 2.69368 79.0443 2.62297 78.3443 2.57246C78.3027 2.56831 78.2609 2.57265 78.221 2.58526C78.1812 2.59787 78.1443 2.61848 78.1126 2.64584C78.0808 2.67319 78.0548 2.70673 78.0362 2.74446C78.0176 2.78219 78.0068 2.82335 78.0043 2.86543C78.0002 2.90792 78.0044 2.9508 78.0168 2.99162C78.0291 3.03244 78.0494 3.07038 78.0763 3.10325C78.1033 3.13612 78.1365 3.1633 78.1739 3.18316C78.2113 3.20302 78.2522 3.21519 78.2943 3.21898C78.9443 3.26949 79.5943 3.34023 80.2143 3.43115H80.3043ZM70.5743 3.38062C71.2143 3.30991 71.8643 3.25941 72.5043 3.2089C72.5464 3.20633 72.5875 3.19539 72.6253 3.17672C72.6632 3.15805 72.697 3.13202 72.7249 3.10011C72.7528 3.06819 72.7741 3.03103 72.7878 2.99075C72.8014 2.95048 72.807 2.9079 72.8043 2.86543C72.8018 2.82203 72.7907 2.77956 72.7716 2.74061C72.7525 2.70165 72.7258 2.66701 72.6931 2.63872C72.6604 2.61042 72.6224 2.58907 72.5814 2.57595C72.5404 2.56283 72.4971 2.5582 72.4543 2.56235C71.8043 2.56235 71.1543 2.66339 70.4543 2.7341C70.4122 2.7379 70.3712 2.75006 70.3338 2.76992C70.2964 2.78979 70.2633 2.81696 70.2364 2.84983C70.2094 2.88271 70.1892 2.92064 70.1768 2.96147C70.1644 3.00229 70.1601 3.04516 70.1643 3.08765C70.1592 3.14213 70.1679 3.19703 70.1895 3.24719C70.2112 3.29735 70.2451 3.34114 70.2881 3.37445C70.331 3.40777 70.3817 3.42951 70.4352 3.43765C70.4888 3.4458 70.5435 3.44009 70.5943 3.42104L70.5743 3.38062ZM76.4143 3.11799C76.4984 3.11814 76.5795 3.08578 76.6408 3.02756C76.7022 2.96935 76.7392 2.88966 76.7443 2.80479C76.7456 2.7615 76.7383 2.71839 76.7229 2.67799C76.7074 2.6376 76.684 2.60075 76.6541 2.56966C76.6243 2.53856 76.5886 2.51384 76.5491 2.49696C76.5096 2.48009 76.4672 2.47141 76.4243 2.47144C75.7743 2.47144 75.1143 2.47144 74.4243 2.47144C74.3814 2.47141 74.339 2.48009 74.2995 2.49696C74.26 2.51384 74.2242 2.53856 74.1944 2.56966C74.1645 2.60075 74.1412 2.6376 74.1257 2.67799C74.1102 2.71839 74.1029 2.7615 74.1043 2.80479C74.1069 2.88877 74.1417 2.96843 74.2014 3.02689C74.2612 3.08534 74.3411 3.11803 74.4243 3.11799H76.3743H76.4143Z" fill="#999999"/>
<path d="M26.4545 77.8441L23.6346 79.0765L12.3646 71.1363L9.36456 72.8132C6.95456 74.2679 4.61457 74.3689 3.49457 73.7224L3.26453 73.8335C1.52453 74.6013 0.494532 73.9143 0.144531 73.086C-0.205469 72.2576 -0.00544167 71.0655 1.73456 70.2776L1.96454 70.1765C2.17454 69.1663 3.08458 67.4692 6.63458 66.4691L9.90454 65.4083L11.9045 51.6796L14.7245 50.437L16.9146 63.1556L24.9745 60.3674L26.1946 57.1044L28.4346 56.2659L28.5945 59.2966L29.3945 59.2258L30.1246 60.9129L29.5245 61.5089L31.6445 63.7314L29.5046 64.8123L26.3246 63.4789L18.7946 67.5197L26.4545 77.8441ZM26.2446 62.7414L29.4446 64.085L30.4446 63.5597L28.5046 61.5392L29.2346 60.7917L28.8945 59.9936L27.8945 60.0845L27.7446 57.2559L26.6545 57.66L25.4346 60.9331L16.3146 64.0749L14.1445 51.4371L12.4545 52.1746L10.5046 65.9539L6.81458 67.1459C3.37457 68.1056 2.69454 69.6613 2.59454 70.4998V70.712L2.39453 70.7827C2.26748 70.8192 2.14371 70.8666 2.02454 70.9241C0.954536 71.3888 0.474546 72.1263 0.784546 72.8334C1.09455 73.5406 1.94453 73.7022 3.01453 73.2274C3.13493 73.1783 3.25191 73.1209 3.36456 73.0557L3.55457 72.9446L3.73456 73.0759C4.46456 73.6214 6.59457 73.7224 9.05457 72.2475L12.4146 70.3483L23.7145 78.3189L25.4045 77.5814L17.7446 67.3379L26.2446 62.7414Z" fill="#999999"/>
</svg>
